<svg width="108" height="105" viewBox="0 0 108 105" fill="none" xmlns="http://www.w3.org/2000/svg">
<path d="M92.9456 59.0241C95.4148 51.6943 106.346 59.8484 106.281 51.6085C106.217 43.4955 93.9746 48.4396 92.8947 45.145C91.1093 39.6979 104.526 36.9675 101.254 31.6435C97.9824 26.3195 90.3126 35.4047 86.6243 31.759C82.4696 27.6523 96.6883 24.0588 90.9335 18.5185C84.087 11.927 80.4558 24.675 75.9198 21.7668C70.8741 18.5319 85.1244 11.8426 77.4283 7.98929C69.7322 4.13597 70.0741 17.9947 64.298 16.0651C58.2958 14.0599 68.2929 2.30171 60.3173 1.27865C54.7112 0.559538 57.0245 14.0531 53.6736 14.0796" stroke="white" stroke-width="2"/>
<path d="M14.9948 59.5769C13.5944 55.2646 1.73052 60.6739 1.66546 52.4341C1.60141 44.3211 13.92 49.0713 14.9477 45.7601C16.647 40.2855 3.18905 37.7672 6.37634 32.3922C9.56362 27.0172 17.3758 35.9802 21.0061 32.2768C25.0955 28.1051 10.8219 24.7364 16.4885 19.1059C23.2302 12.4072 27.0621 25.0963 31.5516 22.1169C36.5457 18.8027 22.1915 12.3392 29.8259 8.36493C37.4602 4.39063 37.337 18.2531 43.082 16.2325C49.0518 14.1328 38.8704 2.53388 46.8288 1.38508C52.4229 0.577582 50.3228 14.106 53.6738 14.0795" stroke="white" stroke-width="2"/>
<path d="M92.9456 59.0241C90.9701 64.8685 105.119 64.5034 100.883 72.1396C96.6473 79.7758 90.4981 68.7472 86.8824 72.4526C82.8095 76.6264 97.0262 79.9975 91.3824 85.6309C84.668 92.3331 80.8509 79.6368 76.3795 82.6177C71.4056 85.9336 85.7025 92.4012 78.0988 96.3775C70.4952 100.354 70.6174 86.4835 64.8954 88.505C58.9496 90.6056 68.8744 101.284 61.1642 103.361C51.8148 105.879 60.3009 90.4925 54.277 90.54" stroke="white" stroke-width="2"/>
<path d="M14.9945 59.5769C16.773 65.0271 3.55998 67.7573 6.81879 73.0844C10.0776 78.4115 17.7163 69.3216 21.3901 72.9694C25.5283 77.0785 11.3666 80.6735 17.0985 86.2172C23.9179 92.8126 27.5341 80.0576 32.0521 82.9676C37.0777 86.2045 22.8846 92.897 30.5501 96.7527C38.2155 100.608 37.8745 86.7419 43.6276 88.6729C49.6058 90.6794 39.8509 101.513 47.5929 103.468C56.9808 105.838 48.253 90.5876 54.2768 90.54" stroke="white" stroke-width="2"/>
<path d="M53.8195 20.1817C36.107 20.3215 21.8508 34.8929 21.9917 52.742C22.1325 70.5912 36.6169 84.9358 54.3294 84.796C72.0418 84.6562 86.298 70.0848 86.1571 52.2357C86.0163 34.3865 71.5319 20.0419 53.8195 20.1817Z" stroke="white" stroke-width="2"/>
<path d="M53.8089 31.1866C42.1868 31.2783 32.8286 40.8401 32.9211 52.5576C33.0135 64.275 42.5215 73.6879 54.1435 73.5962C65.7656 73.5045 75.1238 63.9427 75.0313 52.2253C74.9389 40.5078 65.4309 31.0949 53.8089 31.1866Z" stroke="#0500FF" stroke-width="2"/>
<ellipse cx="9.62891" cy="9.56402" rx="9.62891" ry="9.56402" transform="matrix(-0.00789114 -0.999969 -0.999969 0.00789114 63.6157 61.9443)" fill="#0500FF"/>
<ellipse cx="80.9392" cy="52.3534" rx="2.10396" ry="2.09801" transform="rotate(89.5479 80.9392 52.3534)" fill="#0500FF"/>
<ellipse cx="26.8625" cy="52.7801" rx="2.10396" ry="2.09801" transform="rotate(89.5479 26.8625 52.7801)" fill="#0500FF"/>
<ellipse cx="53.9377" cy="25.1966" rx="2.10396" ry="2.09801" transform="rotate(89.5479 53.9377 25.1966)" fill="#0500FF"/>
<ellipse cx="54.3659" cy="79.4264" rx="2.10396" ry="2.09801" transform="rotate(89.5479 54.3659 79.4264)" fill="#0500FF"/>
<ellipse cx="34.0861" cy="71.4766" rx="2.10396" ry="2.09801" transform="rotate(89.5479 34.0861 71.4766)" fill="#0500FF"/>
<ellipse cx="33.7902" cy="33.972" rx="2.10396" ry="2.09801" transform="rotate(89.5479 33.7902 33.972)" fill="#0500FF"/>
<ellipse cx="72.6931" cy="32.1444" rx="2.10396" ry="2.09801" transform="rotate(89.5479 72.6931 32.1444)" fill="#0500FF"/>
<ellipse cx="64.0617" cy="27.1441" rx="2.10396" ry="2.09801" transform="rotate(89.5479 64.0617 27.1441)" fill="#0500FF"/>
<ellipse cx="78.8337" cy="41.7262" rx="2.10396" ry="2.09801" transform="rotate(89.5479 78.8337 41.7262)" fill="#0500FF"/>
<ellipse cx="79.0017" cy="63.0125" rx="2.10396" ry="2.09801" transform="rotate(89.5479 79.0017 63.0125)" fill="#0500FF"/>
<ellipse cx="64.4533" cy="76.8123" rx="2.10396" ry="2.09801" transform="rotate(89.5479 64.4533 76.8123)" fill="#0500FF"/>
<ellipse cx="42.7219" cy="76.984" rx="2.10396" ry="2.09802" transform="rotate(89.5479 42.7219 76.984)" fill="#0500FF"/>
<ellipse cx="28.9685" cy="63.4073" rx="2.10396" ry="2.09801" transform="rotate(89.5479 28.9685 63.4073)" fill="#0500FF"/>
<ellipse cx="28.8005" cy="42.1209" rx="2.10396" ry="2.09801" transform="rotate(89.5479 28.8005 42.1209)" fill="#0500FF"/>
<ellipse cx="42.3298" cy="27.3155" rx="2.10396" ry="2.09802" transform="rotate(89.5479 42.3298 27.3155)" fill="#0500FF"/>
<ellipse cx="73.0012" cy="71.1695" rx="2.10396" ry="2.09801" transform="rotate(89.5479 73.0012 71.1695)" fill="#0500FF"/>
</svg>
