<svg width="572" height="800" viewBox="0 0 572 800" fill="none" xmlns="http://www.w3.org/2000/svg">
<rect width="572" height="800" rx="7" fill="#0500FF"/>
<path d="M46.768 84L46.938 64.348H48.808L53.398 77.846L57.988 64.348H59.926L60.096 84H57.954L57.92 70.196L53.806 81.96H53.024L48.944 70.264L48.91 84H46.768ZM67.138 84.306C66.3447 84.306 65.6533 84.1133 65.064 83.728C64.4747 83.32 64.01 82.7873 63.67 82.13C63.3527 81.45 63.194 80.7133 63.194 79.92C63.194 78.9227 63.33 78.0727 63.602 77.37C63.8967 76.6673 64.35 76.044 64.962 75.5C65.5967 74.9333 66.4127 74.3893 67.41 73.868C68.43 73.324 69.6653 72.7233 71.116 72.066V70.672C71.116 69.4707 71.0367 68.53 70.878 67.85C70.742 67.1473 70.4927 66.6487 70.13 66.354C69.79 66.0593 69.3027 65.912 68.668 65.912C68.1467 65.912 67.682 66.014 67.274 66.218C66.866 66.422 66.5373 66.7733 66.288 67.272C66.0387 67.748 65.914 68.4167 65.914 69.278V69.958L63.466 69.924C63.4887 67.9293 63.908 66.456 64.724 65.504C65.5627 64.5293 66.9227 64.042 68.804 64.042C70.572 64.042 71.8073 64.5747 72.51 65.64C73.2353 66.6827 73.598 68.3147 73.598 70.536V80.09C73.598 80.43 73.6093 80.872 73.632 81.416C73.6547 81.9373 73.6773 82.436 73.7 82.912C73.7227 83.388 73.7453 83.7507 73.768 84H71.558C71.5127 83.5693 71.4447 83.0933 71.354 82.572C71.2633 82.028 71.2067 81.5973 71.184 81.28C70.912 82.0733 70.4247 82.776 69.722 83.388C69.042 84 68.1807 84.306 67.138 84.306ZM67.92 82.198C68.4187 82.198 68.872 82.0733 69.28 81.824C69.688 81.5747 70.0507 81.28 70.368 80.94C70.6853 80.5773 70.9347 80.2147 71.116 79.852V73.732C70.1413 74.2307 69.3027 74.684 68.6 75.092C67.92 75.5 67.3647 75.8967 66.934 76.282C66.5033 76.6673 66.186 77.1093 65.982 77.608C65.778 78.084 65.676 78.6507 65.676 79.308C65.676 80.3507 65.9027 81.0987 66.356 81.552C66.8093 81.9827 67.3307 82.198 67.92 82.198ZM82.1477 84.306C80.6063 84.306 79.4617 83.966 78.7137 83.286C77.9657 82.606 77.467 81.688 77.2177 80.532C76.991 79.3533 76.8777 78.0273 76.8777 76.554V71.964C76.8777 70.1507 77.025 68.666 77.3197 67.51C77.6143 66.3313 78.1357 65.4587 78.8837 64.892C79.6543 64.3253 80.7423 64.042 82.1477 64.042C83.5303 64.042 84.5843 64.3027 85.3097 64.824C86.035 65.3453 86.5223 66.082 86.7717 67.034C87.021 67.986 87.1457 69.0853 87.1457 70.332V71.284H84.8337V70.332C84.8337 69.176 84.743 68.2807 84.5617 67.646C84.403 67.0113 84.1197 66.5693 83.7117 66.32C83.3263 66.048 82.805 65.912 82.1477 65.912C81.377 65.912 80.7877 66.0933 80.3797 66.456C79.9717 66.8187 79.6997 67.4193 79.5637 68.258C79.4277 69.074 79.3597 70.1733 79.3597 71.556V77.064C79.3597 79.036 79.5523 80.43 79.9377 81.246C80.323 82.0393 81.071 82.436 82.1817 82.436C82.9523 82.436 83.5303 82.266 83.9157 81.926C84.301 81.5633 84.5503 81.0307 84.6637 80.328C84.777 79.6253 84.8337 78.7527 84.8337 77.71V76.622H87.1457V77.574C87.1457 78.8887 87.021 80.056 86.7717 81.076C86.545 82.0733 86.069 82.8667 85.3437 83.456C84.6183 84.0227 83.553 84.306 82.1477 84.306ZM93.0505 84V66.252H88.8005V64.348H99.7145V66.252H95.5325V84H93.0505ZM106.586 84.306C105.362 84.306 104.353 84.068 103.56 83.592C102.789 83.0933 102.211 82.2773 101.826 81.144C101.463 80.0107 101.282 78.5033 101.282 76.622V71.658C101.282 69.7087 101.475 68.19 101.86 67.102C102.245 65.9913 102.835 65.2093 103.628 64.756C104.421 64.28 105.419 64.042 106.62 64.042C108.003 64.042 109.057 64.3367 109.782 64.926C110.507 65.5153 111.006 66.4107 111.278 67.612C111.573 68.7907 111.72 70.3093 111.72 72.168V73.936H103.764V77.37C103.764 78.6393 103.855 79.648 104.036 80.396C104.24 81.1213 104.546 81.6427 104.954 81.96C105.385 82.2773 105.929 82.436 106.586 82.436C107.085 82.436 107.538 82.3453 107.946 82.164C108.354 81.96 108.671 81.586 108.898 81.042C109.147 80.4753 109.272 79.682 109.272 78.662V77.302H111.686V78.39C111.686 80.1807 111.312 81.62 110.564 82.708C109.839 83.7733 108.513 84.306 106.586 84.306ZM103.764 72.508H109.272V70.876C109.272 69.8333 109.215 68.9493 109.102 68.224C108.989 67.476 108.739 66.9093 108.354 66.524C107.991 66.116 107.402 65.912 106.586 65.912C105.906 65.912 105.351 66.0593 104.92 66.354C104.512 66.6487 104.217 67.1813 104.036 67.952C103.855 68.7 103.764 69.7767 103.764 71.182V72.508ZM115.07 90.46V64.348H117.552V65.98C117.96 65.4813 118.47 65.0393 119.082 64.654C119.694 64.246 120.442 64.042 121.326 64.042C122.278 64.042 123.037 64.2687 123.604 64.722C124.193 65.1527 124.647 65.742 124.964 66.49C125.281 67.238 125.497 68.0767 125.61 69.006C125.723 69.9353 125.78 70.8873 125.78 71.862V76.01C125.78 77.6873 125.644 79.1493 125.372 80.396C125.1 81.62 124.613 82.5833 123.91 83.286C123.23 83.966 122.278 84.306 121.054 84.306C120.261 84.306 119.569 84.102 118.98 83.694C118.413 83.286 117.937 82.8667 117.552 82.436V90.46H115.07ZM120.68 82.334C121.428 82.334 121.983 82.096 122.346 81.62C122.731 81.144 122.981 80.4413 123.094 79.512C123.23 78.56 123.298 77.4153 123.298 76.078V71.862C123.298 70.5927 123.23 69.5273 123.094 68.666C122.981 67.782 122.731 67.1133 122.346 66.66C121.961 66.2067 121.383 65.98 120.612 65.98C119.977 65.98 119.388 66.15 118.844 66.49C118.323 66.83 117.892 67.17 117.552 67.51V80.906C117.915 81.2913 118.357 81.6313 118.878 81.926C119.422 82.198 120.023 82.334 120.68 82.334ZM128.806 73.902V71.93H136.014V73.902H128.806ZM139.342 84V64.348H141.824V73.018H143.218L147.706 64.348H150.29L145.496 73.834L150.426 84H147.842L143.218 74.548H141.824V84H139.342ZM150.993 84.17V82.266C151.65 82.2433 152.183 82.1073 152.591 81.858C153.022 81.6087 153.362 81.1667 153.611 80.532C153.883 79.8747 154.098 78.9453 154.257 77.744C154.438 76.5427 154.597 75.0013 154.733 73.12L155.345 64.348H164.321V84H161.839V66.252H157.521L157.045 73.12C156.886 75.3413 156.694 77.166 156.467 78.594C156.24 80.022 155.912 81.144 155.481 81.96C155.073 82.776 154.529 83.354 153.849 83.694C153.192 84.0113 152.364 84.17 151.367 84.17H150.993ZM171.495 84.306C170.702 84.306 170.011 84.1133 169.421 83.728C168.832 83.32 168.367 82.7873 168.027 82.13C167.71 81.45 167.551 80.7133 167.551 79.92C167.551 78.9227 167.687 78.0727 167.959 77.37C168.254 76.6673 168.707 76.044 169.319 75.5C169.954 74.9333 170.77 74.3893 171.767 73.868C172.787 73.324 174.023 72.7233 175.473 72.066V70.672C175.473 69.4707 175.394 68.53 175.235 67.85C175.099 67.1473 174.85 66.6487 174.487 66.354C174.147 66.0593 173.66 65.912 173.025 65.912C172.504 65.912 172.039 66.014 171.631 66.218C171.223 66.422 170.895 66.7733 170.645 67.272C170.396 67.748 170.271 68.4167 170.271 69.278V69.958L167.823 69.924C167.846 67.9293 168.265 66.456 169.081 65.504C169.92 64.5293 171.28 64.042 173.161 64.042C174.929 64.042 176.165 64.5747 176.867 65.64C177.593 66.6827 177.955 68.3147 177.955 70.536V80.09C177.955 80.43 177.967 80.872 177.989 81.416C178.012 81.9373 178.035 82.436 178.057 82.912C178.08 83.388 178.103 83.7507 178.125 84H175.915C175.87 83.5693 175.802 83.0933 175.711 82.572C175.621 82.028 175.564 81.5973 175.541 81.28C175.269 82.0733 174.782 82.776 174.079 83.388C173.399 84 172.538 84.306 171.495 84.306ZM172.277 82.198C172.776 82.198 173.229 82.0733 173.637 81.824C174.045 81.5747 174.408 81.28 174.725 80.94C175.043 80.5773 175.292 80.2147 175.473 79.852V73.732C174.499 74.2307 173.66 74.684 172.957 75.092C172.277 75.5 171.722 75.8967 171.291 76.282C170.861 76.6673 170.543 77.1093 170.339 77.608C170.135 78.084 170.033 78.6507 170.033 79.308C170.033 80.3507 170.26 81.0987 170.713 81.552C171.167 81.9827 171.688 82.198 172.277 82.198ZM186.505 84.306C184.964 84.306 183.819 83.966 183.071 83.286C182.323 82.606 181.824 81.688 181.575 80.532C181.348 79.3533 181.235 78.0273 181.235 76.554V71.964C181.235 70.1507 181.382 68.666 181.677 67.51C181.972 66.3313 182.493 65.4587 183.241 64.892C184.012 64.3253 185.1 64.042 186.505 64.042C187.888 64.042 188.942 64.3027 189.667 64.824C190.392 65.3453 190.88 66.082 191.129 67.034C191.378 67.986 191.503 69.0853 191.503 70.332V71.284H189.191V70.332C189.191 69.176 189.1 68.2807 188.919 67.646C188.76 67.0113 188.477 66.5693 188.069 66.32C187.684 66.048 187.162 65.912 186.505 65.912C185.734 65.912 185.145 66.0933 184.737 66.456C184.329 66.8187 184.057 67.4193 183.921 68.258C183.785 69.074 183.717 70.1733 183.717 71.556V77.064C183.717 79.036 183.91 80.43 184.295 81.246C184.68 82.0393 185.428 82.436 186.539 82.436C187.31 82.436 187.888 82.266 188.273 81.926C188.658 81.5633 188.908 81.0307 189.021 80.328C189.134 79.6253 189.191 78.7527 189.191 77.71V76.622H191.503V77.574C191.503 78.8887 191.378 80.056 191.129 81.076C190.902 82.0733 190.426 82.8667 189.701 83.456C188.976 84.0227 187.91 84.306 186.505 84.306ZM199.72 84.306C198.179 84.306 197.034 83.966 196.286 83.286C195.538 82.606 195.039 81.688 194.79 80.532C194.563 79.3533 194.45 78.0273 194.45 76.554V71.964C194.45 70.1507 194.597 68.666 194.892 67.51C195.187 66.3313 195.708 65.4587 196.456 64.892C197.227 64.3253 198.315 64.042 199.72 64.042C201.103 64.042 202.157 64.3027 202.882 64.824C203.607 65.3453 204.095 66.082 204.344 67.034C204.593 67.986 204.718 69.0853 204.718 70.332V71.284H202.406V70.332C202.406 69.176 202.315 68.2807 202.134 67.646C201.975 67.0113 201.692 66.5693 201.284 66.32C200.899 66.048 200.377 65.912 199.72 65.912C198.949 65.912 198.36 66.0933 197.952 66.456C197.544 66.8187 197.272 67.4193 197.136 68.258C197 69.074 196.932 70.1733 196.932 71.556V77.064C196.932 79.036 197.125 80.43 197.51 81.246C197.895 82.0393 198.643 82.436 199.754 82.436C200.525 82.436 201.103 82.266 201.488 81.926C201.873 81.5633 202.123 81.0307 202.236 80.328C202.349 79.6253 202.406 78.7527 202.406 77.71V76.622H204.718V77.574C204.718 78.8887 204.593 80.056 204.344 81.076C204.117 82.0733 203.641 82.8667 202.916 83.456C202.191 84.0227 201.125 84.306 199.72 84.306ZM51.8 134.306C50.2587 134.306 49.114 133.966 48.366 133.286C47.618 132.606 47.1193 131.688 46.87 130.532C46.6433 129.353 46.53 128.027 46.53 126.554V121.964C46.53 120.151 46.6773 118.666 46.972 117.51C47.2667 116.331 47.788 115.459 48.536 114.892C49.3067 114.325 50.3947 114.042 51.8 114.042C53.1827 114.042 54.2367 114.303 54.962 114.824C55.6873 115.345 56.1747 116.082 56.424 117.034C56.6733 117.986 56.798 119.085 56.798 120.332V121.284H54.486V120.332C54.486 119.176 54.3953 118.281 54.214 117.646C54.0553 117.011 53.772 116.569 53.364 116.32C52.9787 116.048 52.4573 115.912 51.8 115.912C51.0293 115.912 50.44 116.093 50.032 116.456C49.624 116.819 49.352 117.419 49.216 118.258C49.08 119.074 49.012 120.173 49.012 121.556V127.064C49.012 129.036 49.2047 130.43 49.59 131.246C49.9753 132.039 50.7233 132.436 51.834 132.436C52.6047 132.436 53.1827 132.266 53.568 131.926C53.9533 131.563 54.2027 131.031 54.316 130.328C54.4293 129.625 54.486 128.753 54.486 127.71V126.622H56.798V127.574C56.798 128.889 56.6733 130.056 56.424 131.076C56.1973 132.073 55.7213 132.867 54.996 133.456C54.2707 134.023 53.2053 134.306 51.8 134.306ZM67.5343 134V106.46H69.8463V128.288L78.7543 106.46H80.7603V134H78.4483V112.07L69.5743 134H67.5343ZM85.0544 134V114.348H89.8144C91.1064 114.348 92.1037 114.575 92.8064 115.028C93.5317 115.481 94.0531 116.071 94.3704 116.796C94.6877 117.499 94.8464 118.258 94.8464 119.074C94.8464 119.958 94.6764 120.808 94.3364 121.624C93.9964 122.417 93.3277 122.984 92.3304 123.324C93.1011 123.528 93.6904 123.891 94.0984 124.412C94.5291 124.911 94.8351 125.5 95.0164 126.18C95.1977 126.86 95.2884 127.574 95.2884 128.322C95.2884 129.433 95.1411 130.419 94.8464 131.28C94.5517 132.141 94.0304 132.81 93.2824 133.286C92.5344 133.762 91.4691 134 90.0864 134H85.0544ZM87.5024 132.096H89.6444C90.4151 132.096 91.0271 131.949 91.4804 131.654C91.9564 131.359 92.2964 130.929 92.5004 130.362C92.7271 129.773 92.8404 129.059 92.8404 128.22C92.8404 127.177 92.7044 126.395 92.4324 125.874C92.1831 125.33 91.8317 124.956 91.3784 124.752C90.9477 124.548 90.4264 124.446 89.8144 124.446H87.5024V132.096ZM87.5024 122.644H89.9844C90.7551 122.644 91.3784 122.361 91.8544 121.794C92.3304 121.227 92.5684 120.4 92.5684 119.312C92.5684 118.292 92.3077 117.533 91.7864 117.034C91.2877 116.513 90.5397 116.252 89.5424 116.252H87.5024V122.644ZM101.702 134.306C100.909 134.306 100.218 134.113 99.6284 133.728C99.0391 133.32 98.5744 132.787 98.2344 132.13C97.9171 131.45 97.7584 130.713 97.7584 129.92C97.7584 128.923 97.8944 128.073 98.1664 127.37C98.4611 126.667 98.9144 126.044 99.5264 125.5C100.161 124.933 100.977 124.389 101.974 123.868C102.994 123.324 104.23 122.723 105.68 122.066V120.672C105.68 119.471 105.601 118.53 105.442 117.85C105.306 117.147 105.057 116.649 104.694 116.354C104.354 116.059 103.867 115.912 103.232 115.912C102.711 115.912 102.246 116.014 101.838 116.218C101.43 116.422 101.102 116.773 100.852 117.272C100.603 117.748 100.478 118.417 100.478 119.278V119.958L98.0304 119.924C98.0531 117.929 98.4724 116.456 99.2884 115.504C100.127 114.529 101.487 114.042 103.368 114.042C105.136 114.042 106.372 114.575 107.074 115.64C107.8 116.683 108.162 118.315 108.162 120.536V130.09C108.162 130.43 108.174 130.872 108.196 131.416C108.219 131.937 108.242 132.436 108.264 132.912C108.287 133.388 108.31 133.751 108.332 134H106.122C106.077 133.569 106.009 133.093 105.918 132.572C105.828 132.028 105.771 131.597 105.748 131.28C105.476 132.073 104.989 132.776 104.286 133.388C103.606 134 102.745 134.306 101.702 134.306ZM102.484 132.198C102.983 132.198 103.436 132.073 103.844 131.824C104.252 131.575 104.615 131.28 104.932 130.94C105.25 130.577 105.499 130.215 105.68 129.852V123.732C104.706 124.231 103.867 124.684 103.164 125.092C102.484 125.5 101.929 125.897 101.498 126.282C101.068 126.667 100.75 127.109 100.546 127.608C100.342 128.084 100.24 128.651 100.24 129.308C100.24 130.351 100.467 131.099 100.92 131.552C101.374 131.983 101.895 132.198 102.484 132.198ZM111.816 134V114.348H114.298V122.916H120.418V114.348H122.934V134H120.418V124.786H114.298V134H111.816ZM131.586 134.306C130.249 134.306 129.195 134.023 128.424 133.456C127.676 132.867 127.144 132.028 126.826 130.94C126.509 129.829 126.35 128.481 126.35 126.894V121.454C126.35 119.867 126.509 118.53 126.826 117.442C127.144 116.331 127.676 115.493 128.424 114.926C129.195 114.337 130.249 114.042 131.586 114.042C132.969 114.042 134.034 114.337 134.782 114.926C135.53 115.493 136.063 116.331 136.38 117.442C136.698 118.53 136.856 119.867 136.856 121.454V126.894C136.856 128.481 136.698 129.829 136.38 130.94C136.063 132.028 135.53 132.867 134.782 133.456C134.034 134.023 132.969 134.306 131.586 134.306ZM131.586 132.436C132.448 132.436 133.071 132.209 133.456 131.756C133.864 131.303 134.114 130.668 134.204 129.852C134.295 129.013 134.34 128.073 134.34 127.03V121.318C134.34 120.253 134.295 119.323 134.204 118.53C134.114 117.714 133.864 117.079 133.456 116.626C133.071 116.15 132.448 115.912 131.586 115.912C130.725 115.912 130.102 116.15 129.716 116.626C129.331 117.079 129.093 117.714 129.002 118.53C128.912 119.323 128.866 120.253 128.866 121.318V127.03C128.866 128.073 128.912 129.013 129.002 129.852C129.093 130.668 129.331 131.303 129.716 131.756C130.102 132.209 130.725 132.436 131.586 132.436ZM140.168 134L140.338 114.348H142.208L146.798 127.846L151.388 114.348H153.326L153.496 134H151.354L151.32 120.196L147.206 131.96H146.424L142.344 120.264L142.31 134H140.168ZM156.696 123.902V121.93H163.904V123.902H156.696ZM182.09 138.726L181.852 134H167.708V106.46H170.326V132.062H179.37V106.46H181.988V132.062H184.164V138.726H182.09ZM190.355 134.306C189.561 134.306 188.87 134.113 188.281 133.728C187.691 133.32 187.227 132.787 186.887 132.13C186.569 131.45 186.411 130.713 186.411 129.92C186.411 128.923 186.547 128.073 186.819 127.37C187.113 126.667 187.567 126.044 188.179 125.5C188.813 124.933 189.629 124.389 190.627 123.868C191.647 123.324 192.882 122.723 194.333 122.066V120.672C194.333 119.471 194.253 118.53 194.095 117.85C193.959 117.147 193.709 116.649 193.347 116.354C193.007 116.059 192.519 115.912 191.885 115.912C191.363 115.912 190.899 116.014 190.491 116.218C190.083 116.422 189.754 116.773 189.505 117.272C189.255 117.748 189.131 118.417 189.131 119.278V119.958L186.683 119.924C186.705 117.929 187.125 116.456 187.941 115.504C188.779 114.529 190.139 114.042 192.021 114.042C193.789 114.042 195.024 114.575 195.727 115.64C196.452 116.683 196.815 118.315 196.815 120.536V130.09C196.815 130.43 196.826 130.872 196.849 131.416C196.871 131.937 196.894 132.436 196.917 132.912C196.939 133.388 196.962 133.751 196.985 134H194.775C194.729 133.569 194.661 133.093 194.571 132.572C194.48 132.028 194.423 131.597 194.401 131.28C194.129 132.073 193.641 132.776 192.939 133.388C192.259 134 191.397 134.306 190.355 134.306ZM191.137 132.198C191.635 132.198 192.089 132.073 192.497 131.824C192.905 131.575 193.267 131.28 193.585 130.94C193.902 130.577 194.151 130.215 194.333 129.852V123.732C193.358 124.231 192.519 124.684 191.817 125.092C191.137 125.5 190.581 125.897 190.151 126.282C189.72 126.667 189.403 127.109 189.199 127.608C188.995 128.084 188.893 128.651 188.893 129.308C188.893 130.351 189.119 131.099 189.573 131.552C190.026 131.983 190.547 132.198 191.137 132.198ZM200.468 140.46V114.348H202.95V115.98C203.358 115.481 203.868 115.039 204.48 114.654C205.092 114.246 205.84 114.042 206.724 114.042C207.676 114.042 208.436 114.269 209.002 114.722C209.592 115.153 210.045 115.742 210.362 116.49C210.68 117.238 210.895 118.077 211.008 119.006C211.122 119.935 211.178 120.887 211.178 121.862V126.01C211.178 127.687 211.042 129.149 210.77 130.396C210.498 131.62 210.011 132.583 209.308 133.286C208.628 133.966 207.676 134.306 206.452 134.306C205.659 134.306 204.968 134.102 204.378 133.694C203.812 133.286 203.336 132.867 202.95 132.436V140.46H200.468ZM206.078 132.334C206.826 132.334 207.382 132.096 207.744 131.62C208.13 131.144 208.379 130.441 208.492 129.512C208.628 128.56 208.696 127.415 208.696 126.078V121.862C208.696 120.593 208.628 119.527 208.492 118.666C208.379 117.782 208.13 117.113 207.744 116.66C207.359 116.207 206.781 115.98 206.01 115.98C205.376 115.98 204.786 116.15 204.242 116.49C203.721 116.83 203.29 117.17 202.95 117.51V130.906C203.313 131.291 203.755 131.631 204.276 131.926C204.82 132.198 205.421 132.334 206.078 132.334ZM219.576 134.306C218.352 134.306 217.344 134.068 216.55 133.592C215.78 133.093 215.202 132.277 214.816 131.144C214.454 130.011 214.272 128.503 214.272 126.622V121.658C214.272 119.709 214.465 118.19 214.85 117.102C215.236 115.991 215.825 115.209 216.618 114.756C217.412 114.28 218.409 114.042 219.61 114.042C220.993 114.042 222.047 114.337 222.772 114.926C223.498 115.515 223.996 116.411 224.268 117.612C224.563 118.791 224.71 120.309 224.71 122.168V123.936H216.754V127.37C216.754 128.639 216.845 129.648 217.026 130.396C217.23 131.121 217.536 131.643 217.944 131.96C218.375 132.277 218.919 132.436 219.576 132.436C220.075 132.436 220.528 132.345 220.936 132.164C221.344 131.96 221.662 131.586 221.888 131.042C222.138 130.475 222.262 129.682 222.262 128.662V127.302H224.676V128.39C224.676 130.181 224.302 131.62 223.554 132.708C222.829 133.773 221.503 134.306 219.576 134.306ZM216.754 122.508H222.262V120.876C222.262 119.833 222.206 118.949 222.092 118.224C221.979 117.476 221.73 116.909 221.344 116.524C220.982 116.116 220.392 115.912 219.576 115.912C218.896 115.912 218.341 116.059 217.91 116.354C217.502 116.649 217.208 117.181 217.026 117.952C216.845 118.7 216.754 119.777 216.754 121.182V122.508ZM228.06 134V114.348H232.82C234.112 114.348 235.11 114.575 235.812 115.028C236.538 115.481 237.059 116.071 237.376 116.796C237.694 117.499 237.852 118.258 237.852 119.074C237.852 119.958 237.682 120.808 237.342 121.624C237.002 122.417 236.334 122.984 235.336 123.324C236.107 123.528 236.696 123.891 237.104 124.412C237.535 124.911 237.841 125.5 238.022 126.18C238.204 126.86 238.294 127.574 238.294 128.322C238.294 129.433 238.147 130.419 237.852 131.28C237.558 132.141 237.036 132.81 236.288 133.286C235.54 133.762 234.475 134 233.092 134H228.06ZM230.508 132.096H232.65C233.421 132.096 234.033 131.949 234.486 131.654C234.962 131.359 235.302 130.929 235.506 130.362C235.733 129.773 235.846 129.059 235.846 128.22C235.846 127.177 235.71 126.395 235.438 125.874C235.189 125.33 234.838 124.956 234.384 124.752C233.954 124.548 233.432 124.446 232.82 124.446H230.508V132.096ZM230.508 122.644H232.99C233.761 122.644 234.384 122.361 234.86 121.794C235.336 121.227 235.574 120.4 235.574 119.312C235.574 118.292 235.314 117.533 234.792 117.034C234.294 116.513 233.546 116.252 232.548 116.252H230.508V122.644ZM241.308 134V114.348H243.416V129.478L249.978 114.348H251.984V134H249.876V118.904L243.382 134H241.308ZM262.959 134V125.806C262.528 125.874 262.075 125.953 261.599 126.044C261.146 126.112 260.647 126.146 260.103 126.146C259.174 126.146 258.335 126.01 257.587 125.738C256.862 125.443 256.284 124.967 255.853 124.31C255.445 123.653 255.241 122.757 255.241 121.624V114.348H257.723V121.692C257.723 122.553 257.95 123.211 258.403 123.664C258.879 124.117 259.616 124.344 260.613 124.344C261.089 124.344 261.497 124.31 261.837 124.242C262.2 124.174 262.574 124.106 262.959 124.038V114.348H265.475V134H262.959ZM274.229 134.306C273.005 134.306 271.996 134.068 271.203 133.592C270.432 133.093 269.854 132.277 269.469 131.144C269.106 130.011 268.925 128.503 268.925 126.622V121.658C268.925 119.709 269.117 118.19 269.503 117.102C269.888 115.991 270.477 115.209 271.271 114.756C272.064 114.28 273.061 114.042 274.263 114.042C275.645 114.042 276.699 114.337 277.425 114.926C278.15 115.515 278.649 116.411 278.921 117.612C279.215 118.791 279.363 120.309 279.363 122.168V123.936H271.407V127.37C271.407 128.639 271.497 129.648 271.679 130.396C271.883 131.121 272.189 131.643 272.597 131.96C273.027 132.277 273.571 132.436 274.229 132.436C274.727 132.436 275.181 132.345 275.589 132.164C275.997 131.96 276.314 131.586 276.541 131.042C276.79 130.475 276.915 129.682 276.915 128.662V127.302H279.329V128.39C279.329 130.181 278.955 131.62 278.207 132.708C277.481 133.773 276.155 134.306 274.229 134.306ZM271.407 122.508H276.915V120.876C276.915 119.833 276.858 118.949 276.745 118.224C276.631 117.476 276.382 116.909 275.997 116.524C275.634 116.116 275.045 115.912 274.229 115.912C273.549 115.912 272.993 116.059 272.563 116.354C272.155 116.649 271.86 117.181 271.679 117.952C271.497 118.7 271.407 119.777 271.407 121.182V122.508ZM282.577 134L282.747 114.348H284.617L289.207 127.846L293.797 114.348H295.735L295.905 134H293.763L293.729 120.196L289.615 131.96H288.833L284.753 120.264L284.719 134H282.577Z" fill="white"/>
<path d="M53.772 610.34C52.14 610.34 50.848 609.989 49.896 609.286C48.944 608.583 48.264 607.62 47.856 606.396C47.448 605.172 47.244 603.778 47.244 602.214V590.246C47.244 588.659 47.448 587.265 47.856 586.064C48.2867 584.84 48.978 583.888 49.93 583.208C50.9047 582.528 52.1853 582.188 53.772 582.188C55.404 582.188 56.696 582.528 57.648 583.208C58.6227 583.888 59.314 584.84 59.722 586.064C60.1527 587.265 60.368 588.659 60.368 590.246V602.214C60.368 603.801 60.1527 605.206 59.722 606.43C59.314 607.654 58.634 608.617 57.682 609.32C56.73 610 55.4267 610.34 53.772 610.34ZM53.772 608.368C54.8373 608.368 55.6533 608.096 56.22 607.552C56.8093 607.008 57.2173 606.294 57.444 605.41C57.6933 604.503 57.818 603.506 57.818 602.418V590.076C57.818 588.965 57.6933 587.968 57.444 587.084C57.2173 586.177 56.8207 585.463 56.254 584.942C55.6873 584.421 54.86 584.16 53.772 584.16C52.7293 584.16 51.9133 584.421 51.324 584.942C50.7573 585.463 50.3493 586.177 50.1 587.084C49.8733 587.968 49.76 588.965 49.76 590.076V602.418C49.76 603.506 49.8733 604.503 50.1 605.41C50.3493 606.294 50.7687 607.008 51.358 607.552C51.9473 608.096 52.752 608.368 53.772 608.368ZM71.1325 610.34C69.7498 610.34 68.5938 610.102 67.6645 609.626C66.7351 609.15 66.0325 608.436 65.5565 607.484C65.1031 606.509 64.8651 605.308 64.8425 603.88C64.8425 603.857 64.8425 603.778 64.8425 603.642C64.8425 603.506 64.8425 603.427 64.8425 603.404H67.2905C67.2905 605.149 67.5738 606.396 68.1405 607.144C68.7071 607.892 69.7158 608.266 71.1665 608.266C71.9371 608.266 72.5945 608.085 73.1385 607.722C73.7051 607.359 74.1358 606.747 74.4305 605.886C74.7251 605.002 74.8725 603.823 74.8725 602.35V597.148C74.5325 597.556 73.9885 597.93 73.2405 598.27C72.5151 598.61 71.5858 598.78 70.4525 598.78C68.9338 598.78 67.7438 598.497 66.8825 597.93C66.0211 597.341 65.4091 596.445 65.0465 595.244C64.6838 594.02 64.5025 592.456 64.5025 590.552C64.5025 588.852 64.7178 587.379 65.1485 586.132C65.6018 584.885 66.3045 583.922 67.2565 583.242C68.2311 582.539 69.5005 582.188 71.0645 582.188C72.5605 582.188 73.7731 582.539 74.7025 583.242C75.6318 583.922 76.3118 584.908 76.7425 586.2C77.1731 587.469 77.3885 588.999 77.3885 590.79V601.772C77.3885 603.449 77.1845 604.934 76.7765 606.226C76.3911 607.518 75.7451 608.527 74.8385 609.252C73.9318 609.977 72.6965 610.34 71.1325 610.34ZM71.0305 596.842C72.0051 596.842 72.8098 596.672 73.4445 596.332C74.0791 595.969 74.5551 595.607 74.8725 595.244V590.518C74.8725 589.022 74.7365 587.821 74.4645 586.914C74.2151 585.985 73.8071 585.316 73.2405 584.908C72.6738 584.477 71.9485 584.262 71.0645 584.262C70.1805 584.262 69.4325 584.477 68.8205 584.908C68.2311 585.316 67.7891 585.951 67.4945 586.812C67.1998 587.673 67.0525 588.761 67.0525 590.076C67.0525 591.572 67.1318 592.83 67.2905 593.85C67.4718 594.847 67.8458 595.595 68.4125 596.094C68.9791 596.593 69.8518 596.842 71.0305 596.842ZM81.6377 610V606.26H84.2557V610H81.6377ZM94.5122 610.34C92.8802 610.34 91.5882 609.989 90.6362 609.286C89.6842 608.583 89.0042 607.62 88.5962 606.396C88.1882 605.172 87.9842 603.778 87.9842 602.214V590.246C87.9842 588.659 88.1882 587.265 88.5962 586.064C89.0269 584.84 89.7182 583.888 90.6702 583.208C91.6449 582.528 92.9256 582.188 94.5122 582.188C96.1442 582.188 97.4362 582.528 98.3882 583.208C99.3629 583.888 100.054 584.84 100.462 586.064C100.893 587.265 101.108 588.659 101.108 590.246V602.214C101.108 603.801 100.893 605.206 100.462 606.43C100.054 607.654 99.3742 608.617 98.4222 609.32C97.4702 610 96.1669 610.34 94.5122 610.34ZM94.5122 608.368C95.5776 608.368 96.3936 608.096 96.9602 607.552C97.5496 607.008 97.9576 606.294 98.1842 605.41C98.4336 604.503 98.5582 603.506 98.5582 602.418V590.076C98.5582 588.965 98.4336 587.968 98.1842 587.084C97.9576 586.177 97.5609 585.463 96.9942 584.942C96.4276 584.421 95.6002 584.16 94.5122 584.16C93.4696 584.16 92.6536 584.421 92.0642 584.942C91.4976 585.463 91.0896 586.177 90.8402 587.084C90.6136 587.968 90.5002 588.965 90.5002 590.076V602.418C90.5002 603.506 90.6136 604.503 90.8402 605.41C91.0896 606.294 91.5089 607.008 92.0982 607.552C92.6876 608.096 93.4922 608.368 94.5122 608.368ZM111.873 610.34C110.49 610.34 109.334 610.102 108.405 609.626C107.475 609.15 106.773 608.436 106.297 607.484C105.843 606.509 105.605 605.308 105.583 603.88C105.583 603.857 105.583 603.778 105.583 603.642C105.583 603.506 105.583 603.427 105.583 603.404H108.031C108.031 605.149 108.314 606.396 108.881 607.144C109.447 607.892 110.456 608.266 111.907 608.266C112.677 608.266 113.335 608.085 113.879 607.722C114.445 607.359 114.876 606.747 115.171 605.886C115.465 605.002 115.613 603.823 115.613 602.35V597.148C115.273 597.556 114.729 597.93 113.981 598.27C113.255 598.61 112.326 598.78 111.193 598.78C109.674 598.78 108.484 598.497 107.623 597.93C106.761 597.341 106.149 596.445 105.787 595.244C105.424 594.02 105.243 592.456 105.243 590.552C105.243 588.852 105.458 587.379 105.889 586.132C106.342 584.885 107.045 583.922 107.997 583.242C108.971 582.539 110.241 582.188 111.805 582.188C113.301 582.188 114.513 582.539 115.443 583.242C116.372 583.922 117.052 584.908 117.483 586.2C117.913 587.469 118.129 588.999 118.129 590.79V601.772C118.129 603.449 117.925 604.934 117.517 606.226C117.131 607.518 116.485 608.527 115.579 609.252C114.672 609.977 113.437 610.34 111.873 610.34ZM111.771 596.842C112.745 596.842 113.55 596.672 114.185 596.332C114.819 595.969 115.295 595.607 115.613 595.244V590.518C115.613 589.022 115.477 587.821 115.205 586.914C114.955 585.985 114.547 585.316 113.981 584.908C113.414 584.477 112.689 584.262 111.805 584.262C110.921 584.262 110.173 584.477 109.561 584.908C108.971 585.316 108.529 585.951 108.235 586.812C107.94 587.673 107.793 588.761 107.793 590.076C107.793 591.572 107.872 592.83 108.031 593.85C108.212 594.847 108.586 595.595 109.153 596.094C109.719 596.593 110.592 596.842 111.771 596.842ZM53.568 660.34C52.1853 660.34 51.0293 660.102 50.1 659.626C49.1707 659.15 48.468 658.436 47.992 657.484C47.5387 656.509 47.3007 655.308 47.278 653.88C47.278 653.857 47.278 653.778 47.278 653.642C47.278 653.506 47.278 653.427 47.278 653.404H49.726C49.726 655.149 50.0093 656.396 50.576 657.144C51.1427 657.892 52.1513 658.266 53.602 658.266C54.3727 658.266 55.03 658.085 55.574 657.722C56.1407 657.359 56.5713 656.747 56.866 655.886C57.1607 655.002 57.308 653.823 57.308 652.35V647.148C56.968 647.556 56.424 647.93 55.676 648.27C54.9507 648.61 54.0213 648.78 52.888 648.78C51.3693 648.78 50.1793 648.497 49.318 647.93C48.4567 647.341 47.8447 646.445 47.482 645.244C47.1193 644.02 46.938 642.456 46.938 640.552C46.938 638.852 47.1533 637.379 47.584 636.132C48.0373 634.885 48.74 633.922 49.692 633.242C50.6667 632.539 51.936 632.188 53.5 632.188C54.996 632.188 56.2087 632.539 57.138 633.242C58.0673 633.922 58.7473 634.908 59.178 636.2C59.6087 637.469 59.824 638.999 59.824 640.79V651.772C59.824 653.449 59.62 654.934 59.212 656.226C58.8267 657.518 58.1807 658.527 57.274 659.252C56.3673 659.977 55.132 660.34 53.568 660.34ZM53.466 646.842C54.4407 646.842 55.2453 646.672 55.88 646.332C56.5147 645.969 56.9907 645.607 57.308 645.244V640.518C57.308 639.022 57.172 637.821 56.9 636.914C56.6507 635.985 56.2427 635.316 55.676 634.908C55.1093 634.477 54.384 634.262 53.5 634.262C52.616 634.262 51.868 634.477 51.256 634.908C50.6667 635.316 50.2247 635.951 49.93 636.812C49.6353 637.673 49.488 638.761 49.488 640.076C49.488 641.572 49.5673 642.83 49.726 643.85C49.9073 644.847 50.2813 645.595 50.848 646.094C51.4147 646.593 52.2873 646.842 53.466 646.842ZM78.0507 660V651.806C77.62 651.874 77.1667 651.953 76.6907 652.044C76.2373 652.112 75.7387 652.146 75.1947 652.146C74.2653 652.146 73.4267 652.01 72.6787 651.738C71.9533 651.443 71.3753 650.967 70.9447 650.31C70.5367 649.653 70.3327 648.757 70.3327 647.624V640.348H72.8147V647.692C72.8147 648.553 73.0413 649.211 73.4947 649.664C73.9707 650.117 74.7073 650.344 75.7047 650.344C76.1807 650.344 76.5887 650.31 76.9287 650.242C77.2913 650.174 77.6653 650.106 78.0507 650.038V640.348H80.5667V660H78.0507ZM87.7903 660.306C86.997 660.306 86.3057 660.113 85.7163 659.728C85.127 659.32 84.6623 658.787 84.3223 658.13C84.005 657.45 83.8463 656.713 83.8463 655.92C83.8463 654.923 83.9823 654.073 84.2543 653.37C84.549 652.667 85.0023 652.044 85.6143 651.5C86.249 650.933 87.065 650.389 88.0623 649.868C89.0823 649.324 90.3177 648.723 91.7683 648.066V646.672C91.7683 645.471 91.689 644.53 91.5303 643.85C91.3943 643.147 91.145 642.649 90.7823 642.354C90.4423 642.059 89.955 641.912 89.3203 641.912C88.799 641.912 88.3343 642.014 87.9263 642.218C87.5183 642.422 87.1897 642.773 86.9403 643.272C86.691 643.748 86.5663 644.417 86.5663 645.278V645.958L84.1183 645.924C84.141 643.929 84.5603 642.456 85.3763 641.504C86.215 640.529 87.575 640.042 89.4563 640.042C91.2243 640.042 92.4597 640.575 93.1623 641.64C93.8877 642.683 94.2503 644.315 94.2503 646.536V656.09C94.2503 656.43 94.2617 656.872 94.2843 657.416C94.307 657.937 94.3297 658.436 94.3523 658.912C94.375 659.388 94.3977 659.751 94.4203 660H92.2103C92.165 659.569 92.097 659.093 92.0063 658.572C91.9157 658.028 91.859 657.597 91.8363 657.28C91.5643 658.073 91.077 658.776 90.3743 659.388C89.6943 660 88.833 660.306 87.7903 660.306ZM88.5723 658.198C89.071 658.198 89.5243 658.073 89.9323 657.824C90.3403 657.575 90.703 657.28 91.0203 656.94C91.3377 656.577 91.587 656.215 91.7683 655.852V649.732C90.7937 650.231 89.955 650.684 89.2523 651.092C88.5723 651.5 88.017 651.897 87.5863 652.282C87.1557 652.667 86.8383 653.109 86.6343 653.608C86.4303 654.084 86.3283 654.651 86.3283 655.308C86.3283 656.351 86.555 657.099 87.0083 657.552C87.4617 657.983 87.983 658.198 88.5723 658.198ZM102.8 660.306C101.259 660.306 100.114 659.966 99.366 659.286C98.618 658.606 98.1193 657.688 97.87 656.532C97.6433 655.353 97.53 654.027 97.53 652.554V647.964C97.53 646.151 97.6773 644.666 97.972 643.51C98.2667 642.331 98.788 641.459 99.536 640.892C100.307 640.325 101.395 640.042 102.8 640.042C104.183 640.042 105.237 640.303 105.962 640.824C106.687 641.345 107.175 642.082 107.424 643.034C107.673 643.986 107.798 645.085 107.798 646.332V647.284H105.486V646.332C105.486 645.176 105.395 644.281 105.214 643.646C105.055 643.011 104.772 642.569 104.364 642.32C103.979 642.048 103.457 641.912 102.8 641.912C102.029 641.912 101.44 642.093 101.032 642.456C100.624 642.819 100.352 643.419 100.216 644.258C100.08 645.074 100.012 646.173 100.012 647.556V653.064C100.012 655.036 100.205 656.43 100.59 657.246C100.975 658.039 101.723 658.436 102.834 658.436C103.605 658.436 104.183 658.266 104.568 657.926C104.953 657.563 105.203 657.031 105.316 656.328C105.429 655.625 105.486 654.753 105.486 653.71V652.622H107.798V653.574C107.798 654.889 107.673 656.056 107.424 657.076C107.197 658.073 106.721 658.867 105.996 659.456C105.271 660.023 104.205 660.306 102.8 660.306ZM115.981 660.306C114.644 660.306 113.59 660.023 112.819 659.456C112.071 658.867 111.538 658.028 111.221 656.94C110.904 655.829 110.745 654.481 110.745 652.894V647.454C110.745 645.867 110.904 644.53 111.221 643.442C111.538 642.331 112.071 641.493 112.819 640.926C113.59 640.337 114.644 640.042 115.981 640.042C117.364 640.042 118.429 640.337 119.177 640.926C119.925 641.493 120.458 642.331 120.775 643.442C121.092 644.53 121.251 645.867 121.251 647.454V652.894C121.251 654.481 121.092 655.829 120.775 656.94C120.458 658.028 119.925 658.867 119.177 659.456C118.429 660.023 117.364 660.306 115.981 660.306ZM115.981 658.436C116.842 658.436 117.466 658.209 117.851 657.756C118.259 657.303 118.508 656.668 118.599 655.852C118.69 655.013 118.735 654.073 118.735 653.03V647.318C118.735 646.253 118.69 645.323 118.599 644.53C118.508 643.714 118.259 643.079 117.851 642.626C117.466 642.15 116.842 641.912 115.981 641.912C115.12 641.912 114.496 642.15 114.111 642.626C113.726 643.079 113.488 643.714 113.397 644.53C113.306 645.323 113.261 646.253 113.261 647.318V653.03C113.261 654.073 113.306 655.013 113.397 655.852C113.488 656.668 113.726 657.303 114.111 657.756C114.496 658.209 115.12 658.436 115.981 658.436ZM124.699 660V640.348H129.459C130.751 640.348 131.748 640.575 132.451 641.028C133.176 641.481 133.698 642.071 134.015 642.796C134.332 643.499 134.491 644.258 134.491 645.074C134.491 645.958 134.321 646.808 133.981 647.624C133.641 648.417 132.972 648.984 131.975 649.324C132.746 649.528 133.335 649.891 133.743 650.412C134.174 650.911 134.48 651.5 134.661 652.18C134.842 652.86 134.933 653.574 134.933 654.322C134.933 655.433 134.786 656.419 134.491 657.28C134.196 658.141 133.675 658.81 132.927 659.286C132.179 659.762 131.114 660 129.731 660H124.699ZM127.147 658.096H129.289C130.06 658.096 130.672 657.949 131.125 657.654C131.601 657.359 131.941 656.929 132.145 656.362C132.372 655.773 132.485 655.059 132.485 654.22C132.485 653.177 132.349 652.395 132.077 651.874C131.828 651.33 131.476 650.956 131.023 650.752C130.592 650.548 130.071 650.446 129.459 650.446H127.147V658.096ZM127.147 648.644H129.629C130.4 648.644 131.023 648.361 131.499 647.794C131.975 647.227 132.213 646.4 132.213 645.312C132.213 644.292 131.952 643.533 131.431 643.034C130.932 642.513 130.184 642.252 129.187 642.252H127.147V648.644ZM151.55 660.34C150.168 660.34 149.012 660.102 148.082 659.626C147.153 659.15 146.45 658.436 145.974 657.484C145.521 656.509 145.283 655.308 145.26 653.88C145.26 653.857 145.26 653.778 145.26 653.642C145.26 653.506 145.26 653.427 145.26 653.404H147.708C147.708 655.149 147.992 656.396 148.558 657.144C149.125 657.892 150.134 658.266 151.584 658.266C152.355 658.266 153.012 658.085 153.556 657.722C154.123 657.359 154.554 656.747 154.848 655.886C155.143 655.002 155.29 653.823 155.29 652.35V647.148C154.95 647.556 154.406 647.93 153.658 648.27C152.933 648.61 152.004 648.78 150.87 648.78C149.352 648.78 148.162 648.497 147.3 647.93C146.439 647.341 145.827 646.445 145.464 645.244C145.102 644.02 144.92 642.456 144.92 640.552C144.92 638.852 145.136 637.379 145.566 636.132C146.02 634.885 146.722 633.922 147.674 633.242C148.649 632.539 149.918 632.188 151.482 632.188C152.978 632.188 154.191 632.539 155.12 633.242C156.05 633.922 156.73 634.908 157.16 636.2C157.591 637.469 157.806 638.999 157.806 640.79V651.772C157.806 653.449 157.602 654.934 157.194 656.226C156.809 657.518 156.163 658.527 155.256 659.252C154.35 659.977 153.114 660.34 151.55 660.34ZM151.448 646.842C152.423 646.842 153.228 646.672 153.862 646.332C154.497 645.969 154.973 645.607 155.29 645.244V640.518C155.29 639.022 155.154 637.821 154.882 636.914C154.633 635.985 154.225 635.316 153.658 634.908C153.092 634.477 152.366 634.262 151.482 634.262C150.598 634.262 149.85 634.477 149.238 634.908C148.649 635.316 148.207 635.951 147.912 636.812C147.618 637.673 147.47 638.761 147.47 640.076C147.47 641.572 147.55 642.83 147.708 643.85C147.89 644.847 148.264 645.595 148.83 646.094C149.397 646.593 150.27 646.842 151.448 646.842ZM168.723 660L168.893 640.348H170.763L175.353 653.846L179.943 640.348H181.881L182.051 660H179.909L179.875 646.196L175.761 657.96H174.979L170.899 646.264L170.865 660H168.723ZM185.693 660V640.348H187.801V655.478L194.363 640.348H196.369V660H194.261V644.904L187.767 660H185.693ZM200.17 660V640.348H202.652V648.916H208.772V640.348H211.288V660H208.772V650.786H202.652V660H200.17ZM214.534 664.896V662.958C215.667 662.958 216.517 662.867 217.084 662.686C217.673 662.527 218.058 662.289 218.24 661.972C218.444 661.677 218.546 661.326 218.546 660.918C218.546 660.555 218.478 660.079 218.342 659.49C218.206 658.901 218.058 658.289 217.9 657.654L213.854 640.348H216.336L219.736 657.076L223.034 640.348H225.55L220.79 661.394C220.608 662.233 220.28 662.901 219.804 663.4C219.35 663.921 218.738 664.295 217.968 664.522C217.22 664.771 216.29 664.896 215.18 664.896H214.534ZM230.611 660V642.252H226.361V640.348H237.275V642.252H233.093V660H230.611ZM46.36 714.896V712.958C47.4933 712.958 48.3433 712.867 48.91 712.686C49.4993 712.527 49.8847 712.289 50.066 711.972C50.27 711.677 50.372 711.326 50.372 710.918C50.372 710.555 50.304 710.079 50.168 709.49C50.032 708.901 49.8847 708.289 49.726 707.654L45.68 690.348H48.162L51.562 707.076L54.86 690.348H57.376L52.616 711.394C52.4347 712.233 52.106 712.901 51.63 713.4C51.1767 713.921 50.5647 714.295 49.794 714.522C49.046 714.771 48.1167 714.896 47.006 714.896H46.36ZM57.4599 710.17V708.266C58.1173 708.243 58.6499 708.107 59.0579 707.858C59.4886 707.609 59.8286 707.167 60.0779 706.532C60.3499 705.875 60.5653 704.945 60.7239 703.744C60.9053 702.543 61.0639 701.001 61.1999 699.12L61.8119 690.348H70.7879V710H68.3059V692.252H63.9879L63.5119 699.12C63.3533 701.341 63.1606 703.166 62.9339 704.594C62.7073 706.022 62.3786 707.144 61.9479 707.96C61.5399 708.776 60.9959 709.354 60.3159 709.694C59.6586 710.011 58.8313 710.17 57.8339 710.17H57.4599ZM74.6982 710V706.26H77.3162V710H74.6982ZM86.2842 710.034V708.062C86.9416 708.039 87.4969 707.971 87.9502 707.858C88.4036 707.722 88.7776 707.439 89.0722 707.008C89.3896 706.577 89.6502 705.875 89.8542 704.9C90.0809 703.925 90.2849 702.588 90.4662 700.888C90.6702 699.188 90.8742 697.012 91.0782 694.36L91.8942 682.46H102.604V710H99.9862V684.432H94.2062L93.5602 694.36C93.3562 696.967 93.1522 699.188 92.9482 701.024C92.7669 702.837 92.5289 704.345 92.2342 705.546C91.9396 706.725 91.5429 707.654 91.0442 708.334C90.5682 708.991 89.9449 709.445 89.1742 709.694C88.4036 709.943 87.4402 710.057 86.2842 710.034ZM111.832 710.306C110.608 710.306 109.599 710.068 108.806 709.592C108.035 709.093 107.457 708.277 107.072 707.144C106.709 706.011 106.528 704.503 106.528 702.622V697.658C106.528 695.709 106.721 694.19 107.106 693.102C107.491 691.991 108.081 691.209 108.874 690.756C109.667 690.28 110.665 690.042 111.866 690.042C113.249 690.042 114.303 690.337 115.028 690.926C115.753 691.515 116.252 692.411 116.524 693.612C116.819 694.791 116.966 696.309 116.966 698.168V699.936H109.01V703.37C109.01 704.639 109.101 705.648 109.282 706.396C109.486 707.121 109.792 707.643 110.2 707.96C110.631 708.277 111.175 708.436 111.832 708.436C112.331 708.436 112.784 708.345 113.192 708.164C113.6 707.96 113.917 707.586 114.144 707.042C114.393 706.475 114.518 705.682 114.518 704.662V703.302H116.932V704.39C116.932 706.181 116.558 707.62 115.81 708.708C115.085 709.773 113.759 710.306 111.832 710.306ZM109.01 698.508H114.518V696.876C114.518 695.833 114.461 694.949 114.348 694.224C114.235 693.476 113.985 692.909 113.6 692.524C113.237 692.116 112.648 691.912 111.832 691.912C111.152 691.912 110.597 692.059 110.166 692.354C109.758 692.649 109.463 693.181 109.282 693.952C109.101 694.7 109.01 695.777 109.01 697.182V698.508ZM125.212 710.306C123.671 710.306 122.526 709.966 121.778 709.286C121.03 708.606 120.531 707.688 120.282 706.532C120.055 705.353 119.942 704.027 119.942 702.554V697.964C119.942 696.151 120.089 694.666 120.384 693.51C120.679 692.331 121.2 691.459 121.948 690.892C122.719 690.325 123.807 690.042 125.212 690.042C126.595 690.042 127.649 690.303 128.374 690.824C129.099 691.345 129.587 692.082 129.836 693.034C130.085 693.986 130.21 695.085 130.21 696.332V697.284H127.898V696.332C127.898 695.176 127.807 694.281 127.626 693.646C127.467 693.011 127.184 692.569 126.776 692.32C126.391 692.048 125.869 691.912 125.212 691.912C124.441 691.912 123.852 692.093 123.444 692.456C123.036 692.819 122.764 693.419 122.628 694.258C122.492 695.074 122.424 696.173 122.424 697.556V703.064C122.424 705.036 122.617 706.43 123.002 707.246C123.387 708.039 124.135 708.436 125.246 708.436C126.017 708.436 126.595 708.266 126.98 707.926C127.365 707.563 127.615 707.031 127.728 706.328C127.841 705.625 127.898 704.753 127.898 703.71V702.622H130.21V703.574C130.21 704.889 130.085 706.056 129.836 707.076C129.609 708.073 129.133 708.867 128.408 709.456C127.683 710.023 126.617 710.306 125.212 710.306ZM133.531 710V690.348H136.013V698.916H142.133V690.348H144.649V710H142.133V700.786H136.013V710H133.531ZM151.839 710.306C151.046 710.306 150.354 710.113 149.765 709.728C149.176 709.32 148.711 708.787 148.371 708.13C148.054 707.45 147.895 706.713 147.895 705.92C147.895 704.923 148.031 704.073 148.303 703.37C148.598 702.667 149.051 702.044 149.663 701.5C150.298 700.933 151.114 700.389 152.111 699.868C153.131 699.324 154.366 698.723 155.817 698.066V696.672C155.817 695.471 155.738 694.53 155.579 693.85C155.443 693.147 155.194 692.649 154.831 692.354C154.491 692.059 154.004 691.912 153.369 691.912C152.848 691.912 152.383 692.014 151.975 692.218C151.567 692.422 151.238 692.773 150.989 693.272C150.74 693.748 150.615 694.417 150.615 695.278V695.958L148.167 695.924C148.19 693.929 148.609 692.456 149.425 691.504C150.264 690.529 151.624 690.042 153.505 690.042C155.273 690.042 156.508 690.575 157.211 691.64C157.936 692.683 158.299 694.315 158.299 696.536V706.09C158.299 706.43 158.31 706.872 158.333 707.416C158.356 707.937 158.378 708.436 158.401 708.912C158.424 709.388 158.446 709.751 158.469 710H156.259C156.214 709.569 156.146 709.093 156.055 708.572C155.964 708.028 155.908 707.597 155.885 707.28C155.613 708.073 155.126 708.776 154.423 709.388C153.743 710 152.882 710.306 151.839 710.306ZM152.621 708.198C153.12 708.198 153.573 708.073 153.981 707.824C154.389 707.575 154.752 707.28 155.069 706.94C155.386 706.577 155.636 706.215 155.817 705.852V699.732C154.842 700.231 154.004 700.684 153.301 701.092C152.621 701.5 152.066 701.897 151.635 702.282C151.204 702.667 150.887 703.109 150.683 703.608C150.479 704.084 150.377 704.651 150.377 705.308C150.377 706.351 150.604 707.099 151.057 707.552C151.51 707.983 152.032 708.198 152.621 708.198ZM160.593 710L164.469 701.5C163.766 701.205 163.211 700.786 162.803 700.242C162.395 699.675 162.1 699.041 161.919 698.338C161.76 697.613 161.681 696.876 161.681 696.128C161.681 695.312 161.771 694.553 161.953 693.85C162.157 693.125 162.497 692.513 162.973 692.014C163.449 691.493 164.117 691.085 164.979 690.79C165.863 690.495 166.985 690.348 168.345 690.348H171.847V710H169.365V702.044C168.843 702.044 168.367 702.044 167.937 702.044C167.529 702.021 167.143 701.987 166.781 701.942L163.279 710H160.593ZM168.481 700.514C168.503 700.514 168.617 700.514 168.821 700.514C169.025 700.514 169.206 700.514 169.365 700.514V691.878C169.138 691.878 168.9 691.878 168.651 691.878C168.401 691.878 168.265 691.878 168.243 691.878C167.041 691.878 166.135 692.059 165.523 692.422C164.911 692.785 164.491 693.283 164.265 693.918C164.061 694.53 163.959 695.267 163.959 696.128C163.959 697.601 164.287 698.701 164.945 699.426C165.625 700.129 166.803 700.491 168.481 700.514ZM182.605 710V690.348H193.111V710H190.629V692.286H185.087V710H182.605ZM201.745 710.306C200.407 710.306 199.353 710.023 198.583 709.456C197.835 708.867 197.302 708.028 196.985 706.94C196.667 705.829 196.509 704.481 196.509 702.894V697.454C196.509 695.867 196.667 694.53 196.985 693.442C197.302 692.331 197.835 691.493 198.583 690.926C199.353 690.337 200.407 690.042 201.745 690.042C203.127 690.042 204.193 690.337 204.941 690.926C205.689 691.493 206.221 692.331 206.539 693.442C206.856 694.53 207.015 695.867 207.015 697.454V702.894C207.015 704.481 206.856 705.829 206.539 706.94C206.221 708.028 205.689 708.867 204.941 709.456C204.193 710.023 203.127 710.306 201.745 710.306ZM201.745 708.436C202.606 708.436 203.229 708.209 203.615 707.756C204.023 707.303 204.272 706.668 204.363 705.852C204.453 705.013 204.499 704.073 204.499 703.03V697.318C204.499 696.253 204.453 695.323 204.363 694.53C204.272 693.714 204.023 693.079 203.615 692.626C203.229 692.15 202.606 691.912 201.745 691.912C200.883 691.912 200.26 692.15 199.875 692.626C199.489 693.079 199.251 693.714 199.161 694.53C199.07 695.323 199.025 696.253 199.025 697.318V703.03C199.025 704.073 199.07 705.013 199.161 705.852C199.251 706.668 199.489 707.303 199.875 707.756C200.26 708.209 200.883 708.436 201.745 708.436ZM208.7 710.17V708.266C209.358 708.243 209.89 708.107 210.298 707.858C210.729 707.609 211.069 707.167 211.318 706.532C211.59 705.875 211.806 704.945 211.964 703.744C212.146 702.543 212.304 701.001 212.44 699.12L213.052 690.348H222.028V710H219.546V692.252H215.228L214.752 699.12C214.594 701.341 214.401 703.166 214.174 704.594C213.948 706.022 213.619 707.144 213.188 707.96C212.78 708.776 212.236 709.354 211.556 709.694C210.899 710.011 210.072 710.17 209.074 710.17H208.7ZM224.442 710L228.318 701.5C227.616 701.205 227.06 700.786 226.652 700.242C226.244 699.675 225.95 699.041 225.768 698.338C225.61 697.613 225.53 696.876 225.53 696.128C225.53 695.312 225.621 694.553 225.802 693.85C226.006 693.125 226.346 692.513 226.822 692.014C227.298 691.493 227.967 691.085 228.828 690.79C229.712 690.495 230.834 690.348 232.194 690.348H235.696V710H233.214V702.044C232.693 702.044 232.217 702.044 231.786 702.044C231.378 702.021 230.993 701.987 230.63 701.942L227.128 710H224.442ZM232.33 700.514C232.353 700.514 232.466 700.514 232.67 700.514C232.874 700.514 233.056 700.514 233.214 700.514V691.878C232.988 691.878 232.75 691.878 232.5 691.878C232.251 691.878 232.115 691.878 232.092 691.878C230.891 691.878 229.984 692.059 229.372 692.422C228.76 692.785 228.341 693.283 228.114 693.918C227.91 694.53 227.808 695.267 227.808 696.128C227.808 697.601 228.137 698.701 228.794 699.426C229.474 700.129 230.653 700.491 232.33 700.514ZM239.515 710V690.348H241.997V698.916H248.117V690.348H250.633V710H248.117V700.786H241.997V710H239.515ZM257.824 710.306C257.03 710.306 256.339 710.113 255.75 709.728C255.16 709.32 254.696 708.787 254.356 708.13C254.038 707.45 253.88 706.713 253.88 705.92C253.88 704.923 254.016 704.073 254.288 703.37C254.582 702.667 255.036 702.044 255.648 701.5C256.282 700.933 257.098 700.389 258.096 699.868C259.116 699.324 260.351 698.723 261.802 698.066V696.672C261.802 695.471 261.722 694.53 261.564 693.85C261.428 693.147 261.178 692.649 260.816 692.354C260.476 692.059 259.988 691.912 259.354 691.912C258.832 691.912 258.368 692.014 257.96 692.218C257.552 692.422 257.223 692.773 256.974 693.272C256.724 693.748 256.6 694.417 256.6 695.278V695.958L254.152 695.924C254.174 693.929 254.594 692.456 255.41 691.504C256.248 690.529 257.608 690.042 259.49 690.042C261.258 690.042 262.493 690.575 263.196 691.64C263.921 692.683 264.284 694.315 264.284 696.536V706.09C264.284 706.43 264.295 706.872 264.318 707.416C264.34 707.937 264.363 708.436 264.386 708.912C264.408 709.388 264.431 709.751 264.454 710H262.244C262.198 709.569 262.13 709.093 262.04 708.572C261.949 708.028 261.892 707.597 261.87 707.28C261.598 708.073 261.11 708.776 260.408 709.388C259.728 710 258.866 710.306 257.824 710.306ZM258.606 708.198C259.104 708.198 259.558 708.073 259.966 707.824C260.374 707.575 260.736 707.28 261.054 706.94C261.371 706.577 261.62 706.215 261.802 705.852V699.732C260.827 700.231 259.988 700.684 259.286 701.092C258.606 701.5 258.05 701.897 257.62 702.282C257.189 702.667 256.872 703.109 256.668 703.608C256.464 704.084 256.362 704.651 256.362 705.308C256.362 706.351 256.588 707.099 257.042 707.552C257.495 707.983 258.016 708.198 258.606 708.198ZM268.243 713.944L267.699 712.856C268.311 712.516 268.731 712.119 268.957 711.666C269.207 711.235 269.331 710.68 269.331 710H267.869V706.294H270.623V709.728C270.623 710.839 270.442 711.711 270.079 712.346C269.717 712.981 269.105 713.513 268.243 713.944ZM45.34 764.726V758.3C45.9293 757.915 46.4507 757.427 46.904 756.838C47.3573 756.226 47.754 755.421 48.094 754.424C48.434 753.427 48.7173 752.157 48.944 750.616C49.1707 749.075 49.3407 747.182 49.454 744.938L49.76 740.348H57.954V758.198H59.926V764.726H58.056L57.852 760H47.448L47.21 764.726H45.34ZM47.924 758.198H55.54V742.184H51.766L51.46 745.448C51.324 747.601 51.1653 749.415 50.984 750.888C50.8027 752.361 50.576 753.574 50.304 754.526C50.032 755.478 49.692 756.249 49.284 756.838C48.8987 757.405 48.4453 757.858 47.924 758.198ZM67.3715 760.306C66.0341 760.306 64.9801 760.023 64.2095 759.456C63.4615 758.867 62.9288 758.028 62.6115 756.94C62.2941 755.829 62.1355 754.481 62.1355 752.894V747.454C62.1355 745.867 62.2941 744.53 62.6115 743.442C62.9288 742.331 63.4615 741.493 64.2095 740.926C64.9801 740.337 66.0341 740.042 67.3715 740.042C68.7541 740.042 69.8195 740.337 70.5675 740.926C71.3155 741.493 71.8481 742.331 72.1655 743.442C72.4828 744.53 72.6415 745.867 72.6415 747.454V752.894C72.6415 754.481 72.4828 755.829 72.1655 756.94C71.8481 758.028 71.3155 758.867 70.5675 759.456C69.8195 760.023 68.7541 760.306 67.3715 760.306ZM67.3715 758.436C68.2328 758.436 68.8561 758.209 69.2415 757.756C69.6495 757.303 69.8988 756.668 69.9895 755.852C70.0801 755.013 70.1255 754.073 70.1255 753.03V747.318C70.1255 746.253 70.0801 745.323 69.9895 744.53C69.8988 743.714 69.6495 743.079 69.2415 742.626C68.8561 742.15 68.2328 741.912 67.3715 741.912C66.5101 741.912 65.8868 742.15 65.5015 742.626C65.1161 743.079 64.8781 743.714 64.7875 744.53C64.6968 745.323 64.6515 746.253 64.6515 747.318V753.03C64.6515 754.073 64.6968 755.013 64.7875 755.852C64.8781 756.668 65.1161 757.303 65.5015 757.756C65.8868 758.209 66.5101 758.436 67.3715 758.436ZM75.9535 760L76.1235 740.348H77.9935L82.5835 753.846L87.1735 740.348H89.1115L89.2815 760H87.1395L87.1055 746.196L82.9915 757.96H82.2095L78.1295 746.264L78.0955 760H75.9535ZM99.863 760V740.348H102.345V748.916H108.465V740.348H110.981V760H108.465V750.786H102.345V760H99.863ZM118.171 760.306C117.378 760.306 116.687 760.113 116.097 759.728C115.508 759.32 115.043 758.787 114.703 758.13C114.386 757.45 114.227 756.713 114.227 755.92C114.227 754.923 114.363 754.073 114.635 753.37C114.93 752.667 115.383 752.044 115.995 751.5C116.63 750.933 117.446 750.389 118.443 749.868C119.463 749.324 120.699 748.723 122.149 748.066V746.672C122.149 745.471 122.07 744.53 121.911 743.85C121.775 743.147 121.526 742.649 121.163 742.354C120.823 742.059 120.336 741.912 119.701 741.912C119.18 741.912 118.715 742.014 118.307 742.218C117.899 742.422 117.571 742.773 117.321 743.272C117.072 743.748 116.947 744.417 116.947 745.278V745.958L114.499 745.924C114.522 743.929 114.941 742.456 115.757 741.504C116.596 740.529 117.956 740.042 119.837 740.042C121.605 740.042 122.841 740.575 123.543 741.64C124.269 742.683 124.631 744.315 124.631 746.536V756.09C124.631 756.43 124.643 756.872 124.665 757.416C124.688 757.937 124.711 758.436 124.733 758.912C124.756 759.388 124.779 759.751 124.801 760H122.591C122.546 759.569 122.478 759.093 122.387 758.572C122.297 758.028 122.24 757.597 122.217 757.28C121.945 758.073 121.458 758.776 120.755 759.388C120.075 760 119.214 760.306 118.171 760.306ZM118.953 758.198C119.452 758.198 119.905 758.073 120.313 757.824C120.721 757.575 121.084 757.28 121.401 756.94C121.719 756.577 121.968 756.215 122.149 755.852V749.732C121.175 750.231 120.336 750.684 119.633 751.092C118.953 751.5 118.398 751.897 117.967 752.282C117.537 752.667 117.219 753.109 117.015 753.608C116.811 754.084 116.709 754.651 116.709 755.308C116.709 756.351 116.936 757.099 117.389 757.552C117.843 757.983 118.364 758.198 118.953 758.198ZM135.224 760V740.348H137.706V749.018H139.1L143.588 740.348H146.172L141.378 749.834L146.308 760H143.724L139.1 750.548H137.706V760H135.224ZM147.862 764.896V762.958C148.995 762.958 149.845 762.867 150.412 762.686C151.001 762.527 151.387 762.289 151.568 761.972C151.772 761.677 151.874 761.326 151.874 760.918C151.874 760.555 151.806 760.079 151.67 759.49C151.534 758.901 151.387 758.289 151.228 757.654L147.182 740.348H149.664L153.064 757.076L156.362 740.348H158.878L154.118 761.394C153.937 762.233 153.608 762.901 153.132 763.4C152.679 763.921 152.067 764.295 151.296 764.522C150.548 764.771 149.619 764.896 148.508 764.896H147.862ZM161.355 766.46V740.348H163.837V741.98C164.245 741.481 164.755 741.039 165.367 740.654C165.979 740.246 166.727 740.042 167.611 740.042C168.563 740.042 169.323 740.269 169.889 740.722C170.479 741.153 170.932 741.742 171.249 742.49C171.567 743.238 171.782 744.077 171.895 745.006C172.009 745.935 172.065 746.887 172.065 747.862V752.01C172.065 753.687 171.929 755.149 171.657 756.396C171.385 757.62 170.898 758.583 170.195 759.286C169.515 759.966 168.563 760.306 167.339 760.306C166.546 760.306 165.855 760.102 165.265 759.694C164.699 759.286 164.223 758.867 163.837 758.436V766.46H161.355ZM166.965 758.334C167.713 758.334 168.269 758.096 168.631 757.62C169.017 757.144 169.266 756.441 169.379 755.512C169.515 754.56 169.583 753.415 169.583 752.078V747.862C169.583 746.593 169.515 745.527 169.379 744.666C169.266 743.782 169.017 743.113 168.631 742.66C168.246 742.207 167.668 741.98 166.897 741.98C166.263 741.98 165.673 742.15 165.129 742.49C164.608 742.83 164.177 743.17 163.837 743.51V756.906C164.2 757.291 164.642 757.631 165.163 757.926C165.707 758.198 166.308 758.334 166.965 758.334ZM175.533 760V740.348H178.015V748.338C178.06 748.338 178.174 748.338 178.355 748.338C178.536 748.338 178.718 748.338 178.899 748.338C179.103 748.338 179.205 748.338 179.205 748.338C180.542 748.338 181.642 748.485 182.503 748.78C183.364 749.052 184.044 749.449 184.543 749.97C185.042 750.469 185.393 751.081 185.597 751.806C185.801 752.509 185.903 753.302 185.903 754.186C185.903 755.025 185.801 755.807 185.597 756.532C185.393 757.235 185.03 757.847 184.509 758.368C184.01 758.867 183.308 759.263 182.401 759.558C181.517 759.853 180.384 760 179.001 760H175.533ZM178.015 758.436H179.001C180.27 758.436 181.234 758.266 181.891 757.926C182.548 757.563 183.002 757.076 183.251 756.464C183.5 755.829 183.625 755.07 183.625 754.186C183.625 753.347 183.512 752.611 183.285 751.976C183.058 751.341 182.628 750.843 181.993 750.48C181.358 750.095 180.395 749.902 179.103 749.902C179.08 749.902 178.944 749.902 178.695 749.902C178.468 749.902 178.242 749.902 178.015 749.902V758.436ZM188.748 760V740.348H190.856V755.478L197.418 740.348H199.424V760H197.316V744.904L190.822 760H188.748ZM201.864 760L206.522 749.732L202.102 740.348H204.55L207.916 747.556L211.146 740.348H213.662L209.072 750.004L213.73 760H211.35L207.678 752.282L204.244 760H201.864ZM223.08 760V740.348H225.562V748.916H231.682V740.348H234.198V760H231.682V750.786H225.562V760H223.08ZM242.85 760.306C241.513 760.306 240.459 760.023 239.688 759.456C238.94 758.867 238.407 758.028 238.09 756.94C237.773 755.829 237.614 754.481 237.614 752.894V747.454C237.614 745.867 237.773 744.53 238.09 743.442C238.407 742.331 238.94 741.493 239.688 740.926C240.459 740.337 241.513 740.042 242.85 740.042C244.233 740.042 245.298 740.337 246.046 740.926C246.794 741.493 247.327 742.331 247.644 743.442C247.961 744.53 248.12 745.867 248.12 747.454V752.894C248.12 754.481 247.961 755.829 247.644 756.94C247.327 758.028 246.794 758.867 246.046 759.456C245.298 760.023 244.233 760.306 242.85 760.306ZM242.85 758.436C243.711 758.436 244.335 758.209 244.72 757.756C245.128 757.303 245.377 756.668 245.468 755.852C245.559 755.013 245.604 754.073 245.604 753.03V747.318C245.604 746.253 245.559 745.323 245.468 744.53C245.377 743.714 245.128 743.079 244.72 742.626C244.335 742.15 243.711 741.912 242.85 741.912C241.989 741.912 241.365 742.15 240.98 742.626C240.595 743.079 240.357 743.714 240.266 744.53C240.175 745.323 240.13 746.253 240.13 747.318V753.03C240.13 754.073 240.175 755.013 240.266 755.852C240.357 756.668 240.595 757.303 240.98 757.756C241.365 758.209 241.989 758.436 242.85 758.436ZM249.7 760L255.242 749.936L249.972 740.348H252.386L257.316 749.766H257.622V740.348H259.696V749.766H260.002L264.898 740.348H267.278L262.042 749.936L267.55 760H265.238L260.002 750.242H259.696V760H257.622V750.242H257.282L252.046 760H249.7ZM269.597 760V740.348H272.079V749.018H273.473L277.961 740.348H280.545L275.751 749.834L280.681 760H278.097L273.473 750.548H272.079V760H269.597ZM286.179 760.306C285.386 760.306 284.694 760.113 284.105 759.728C283.516 759.32 283.051 758.787 282.711 758.13C282.394 757.45 282.235 756.713 282.235 755.92C282.235 754.923 282.371 754.073 282.643 753.37C282.938 752.667 283.391 752.044 284.003 751.5C284.638 750.933 285.454 750.389 286.451 749.868C287.471 749.324 288.706 748.723 290.157 748.066V746.672C290.157 745.471 290.078 744.53 289.919 743.85C289.783 743.147 289.534 742.649 289.171 742.354C288.831 742.059 288.344 741.912 287.709 741.912C287.188 741.912 286.723 742.014 286.315 742.218C285.907 742.422 285.578 742.773 285.329 743.272C285.08 743.748 284.955 744.417 284.955 745.278V745.958L282.507 745.924C282.53 743.929 282.949 742.456 283.765 741.504C284.604 740.529 285.964 740.042 287.845 740.042C289.613 740.042 290.848 740.575 291.551 741.64C292.276 742.683 292.639 744.315 292.639 746.536V756.09C292.639 756.43 292.65 756.872 292.673 757.416C292.696 757.937 292.718 758.436 292.741 758.912C292.764 759.388 292.786 759.751 292.809 760H290.599C290.554 759.569 290.486 759.093 290.395 758.572C290.304 758.028 290.248 757.597 290.225 757.28C289.953 758.073 289.466 758.776 288.763 759.388C288.083 760 287.222 760.306 286.179 760.306ZM286.961 758.198C287.46 758.198 287.913 758.073 288.321 757.824C288.729 757.575 289.092 757.28 289.409 756.94C289.726 756.577 289.976 756.215 290.157 755.852V749.732C289.182 750.231 288.344 750.684 287.641 751.092C286.961 751.5 286.406 751.897 285.975 752.282C285.544 752.667 285.227 753.109 285.023 753.608C284.819 754.084 284.717 754.651 284.717 755.308C284.717 756.351 284.944 757.099 285.397 757.552C285.85 757.983 286.372 758.198 286.961 758.198ZM294.933 760L299.591 749.732L295.171 740.348H297.619L300.985 747.556L304.215 740.348H306.731L302.141 750.004L306.799 760H304.419L300.747 752.282L297.313 760H294.933Z" fill="white"/>
<path d="M62.01 177V219H57.11V181.55H52.35V219H47.45V177H62.01ZM81.6614 217.39C80.2614 218.93 78.4414 219.7 76.2014 219.7C73.9147 219.7 72.2114 219.07 71.0914 217.81C69.9714 216.55 69.4114 214.45 69.4114 211.51V185.75C69.4114 182.53 70.1114 180.15 71.5114 178.61C72.9581 177.07 74.8014 176.3 77.0414 176.3C79.3281 176.3 81.0314 176.93 82.1514 178.19C83.2714 179.45 83.8314 181.55 83.8314 184.49V210.25C83.8314 213.47 83.1081 215.85 81.6614 217.39ZM78.1614 182.25C77.6947 181.457 77.0414 181.06 76.2014 181.06C75.4547 181.06 74.9414 181.387 74.6614 182.04C74.4281 182.693 74.3114 183.697 74.3114 185.05V209.13C74.3114 211.417 74.5447 212.957 75.0114 213.75C75.4781 214.543 76.1547 214.94 77.0414 214.94C77.7881 214.94 78.2781 214.613 78.5114 213.96C78.7914 213.307 78.9314 212.303 78.9314 210.95V186.87C78.9314 184.583 78.6747 183.043 78.1614 182.25ZM101.68 176.3C102.986 176.3 104.036 176.813 104.83 177.84C105.623 178.867 106.02 180.243 106.02 181.97V210.25C106.02 213.47 105.296 215.85 103.85 217.39C102.45 218.93 100.63 219.7 98.3898 219.7C96.1498 219.7 94.3998 218.953 93.1398 217.46C91.8798 215.967 91.2498 213.75 91.2498 210.81V184.21C91.2498 181.41 91.8098 178.89 92.9298 176.65C94.0498 174.41 95.5198 172.567 97.3398 171.12C99.1598 169.627 101.096 168.577 103.15 167.97L105.88 167.2V174.34L99.1598 173.92C97.8064 173.873 96.8731 174.037 96.3598 174.41C95.8931 174.783 95.6131 175.53 95.5198 176.65L95.0298 184.91L95.7298 185.05C96.1031 181.83 96.8031 179.567 97.8298 178.26C98.9031 176.953 100.186 176.3 101.68 176.3ZM101.12 184.7C101.12 182.273 100.513 181.06 99.2998 181.06C98.7864 181.06 98.2731 181.55 97.7598 182.53C97.2931 183.51 96.8964 184.863 96.5698 186.59C96.2898 188.317 96.1498 190.207 96.1498 192.26V209.2C96.1498 211.487 96.3831 213.027 96.8498 213.82C97.3164 214.613 97.9931 215.01 98.8798 215.01C100.373 215.01 101.12 213.68 101.12 211.02V184.7ZM118.357 209.13C118.357 211.417 118.684 212.957 119.337 213.75C120.037 214.543 120.971 214.94 122.137 214.94C124.097 214.94 125.147 212.56 125.287 207.8L125.497 199.61H126.477L126.687 208.01C126.781 211.463 126.244 214.287 125.077 216.48C123.911 218.627 122.184 219.7 119.897 219.7C117.704 219.7 116.071 219.07 114.997 217.81C113.971 216.55 113.457 214.45 113.457 211.51V185.82C113.457 182.553 114.134 180.15 115.487 178.61C116.841 177.07 118.637 176.3 120.877 176.3C122.884 176.3 124.354 176.953 125.287 178.26C126.267 179.52 126.757 181.62 126.757 184.56V195.76H118.357V209.13ZM120.387 181.06C119.594 181.06 119.057 181.387 118.777 182.04C118.497 182.693 118.357 183.72 118.357 185.12V194.78H122.557V186.87C122.557 184.49 122.394 182.927 122.067 182.18C121.741 181.433 121.181 181.06 120.387 181.06ZM155.589 181.69C154.142 182.11 152.882 182.95 151.809 184.21C150.736 185.423 149.756 187.407 148.869 190.16C147.982 192.82 147.376 195.107 147.049 197.02L147.609 197.58L153.839 196.67L156.359 219H151.039L150.339 205.07C150.246 203.343 150.082 202.06 149.849 201.22C149.616 200.333 149.266 199.727 148.799 199.4C148.332 199.073 147.656 198.98 146.769 199.12C146.722 199.867 146.699 201.08 146.699 202.76V219H141.799V202.76C141.799 201.08 141.752 199.867 141.659 199.12C141.472 199.073 141.239 199.05 140.959 199.05C139.979 199.05 139.302 199.47 138.929 200.31C138.556 201.15 138.299 202.737 138.159 205.07L137.459 219H132.139L134.659 196.67L140.889 197.58L141.449 197.09C141.029 195.083 140.422 192.773 139.629 190.16C138.789 187.453 137.832 185.47 136.759 184.21C135.686 182.95 134.402 182.11 132.909 181.69L131.719 181.34V177H138.019L142.779 196.6L143.479 196.46L141.799 182.67V177H146.699V182.67L145.019 196.46L145.719 196.6L150.479 177H156.779V181.34L155.589 181.69ZM174.857 214.45H176.957V225.79H175.557L173.247 219H163.727L161.417 225.79H160.017V214.45H161.487C162.001 213.33 162.374 211.603 162.607 209.27C162.887 206.937 163.051 203.413 163.097 198.7C163.191 193.94 163.237 186.707 163.237 177H174.857V214.45ZM169.957 214.45V181.55H164.987C164.987 191.257 164.941 198.397 164.847 202.97C164.801 207.543 164.661 211.37 164.427 214.45H169.957ZM188.665 218.79C188.011 219.397 187.195 219.7 186.215 219.7C183.508 219.7 182.155 218.043 182.155 214.73V209.9C182.155 208.22 182.411 206.773 182.925 205.56C183.438 204.347 184.161 203.227 185.095 202.2C186.028 201.173 187.451 199.773 189.365 198L190.625 196.81V183.86C190.625 182.74 190.438 181.993 190.065 181.62C189.691 181.247 188.921 181.06 187.755 181.06C186.028 181.06 184.838 181.41 184.185 182.11C183.531 182.763 183.205 183.743 183.205 185.05C183.205 186.59 183.671 188.177 184.605 189.81C185.538 191.443 187.381 193.637 190.135 196.39H183.415C182.201 193.497 181.595 189.973 181.595 185.82C181.595 184.327 181.945 182.857 182.645 181.41C183.345 179.917 184.301 178.703 185.515 177.77C186.728 176.79 188.035 176.3 189.435 176.3C191.441 176.3 192.958 176.813 193.985 177.84C195.011 178.82 195.525 180.22 195.525 182.04V210.74C195.525 212.467 195.641 213.61 195.875 214.17C196.155 214.683 196.528 214.94 196.995 214.94C197.368 214.94 197.648 214.753 197.835 214.38C198.021 214.007 198.138 213.283 198.185 212.21L198.395 199.96H199.375L199.585 211.93C199.631 214.403 199.375 216.317 198.815 217.67C198.255 219.023 197.205 219.7 195.665 219.7C194.405 219.7 193.495 219.233 192.935 218.3C192.375 217.32 192.095 215.523 192.095 212.91C192.095 212.163 192.188 210.437 192.375 207.73L191.675 207.59C191.348 210.95 190.928 213.517 190.415 215.29C189.901 217.017 189.318 218.183 188.665 218.79ZM187.055 212.91C187.055 214.03 187.451 214.59 188.245 214.59C188.991 214.59 189.575 213.633 189.995 211.72C190.415 209.76 190.625 207.147 190.625 203.88V198.28C189.178 199.68 188.221 200.917 187.755 201.99C187.288 203.017 187.055 204.323 187.055 205.91V212.91ZM210.51 209.13C210.51 211.417 210.836 212.957 211.49 213.75C212.19 214.543 213.123 214.94 214.29 214.94C216.25 214.94 217.3 212.56 217.44 207.8L217.65 199.61H218.63L218.84 208.01C218.933 211.463 218.396 214.287 217.23 216.48C216.063 218.627 214.336 219.7 212.05 219.7C209.856 219.7 208.223 219.07 207.15 217.81C206.123 216.55 205.61 214.45 205.61 211.51V185.82C205.61 182.553 206.286 180.15 207.64 178.61C208.993 177.07 210.79 176.3 213.03 176.3C215.036 176.3 216.506 176.953 217.44 178.26C218.42 179.52 218.91 181.62 218.91 184.56V195.76H210.51V209.13ZM212.54 181.06C211.746 181.06 211.21 181.387 210.93 182.04C210.65 182.693 210.51 183.72 210.51 185.12V194.78H214.71V186.87C214.71 184.49 214.546 182.927 214.22 182.18C213.893 181.433 213.333 181.06 212.54 181.06ZM246.15 177L246.85 219H241.81L242.72 191.56H241.6L237.19 219H235.65L230.4 191.56H229.42L231.31 219H226.34L227.04 177H231.38L236.91 206.89H237.68L242.37 177H246.15ZM276.663 197.72C277.549 198.373 278.156 199.61 278.483 201.43C278.856 203.203 279.043 205.443 279.043 208.15V211.51C279.043 214.45 278.576 216.55 277.643 217.81C276.709 219.07 275.263 219.7 273.303 219.7C271.249 219.7 269.686 218.603 268.613 216.41C267.539 214.217 267.073 211.417 267.213 208.01L267.423 202.34H268.403L268.613 207.8C268.753 212.56 269.569 214.94 271.063 214.94C272.043 214.94 272.789 214.543 273.303 213.75C273.863 212.957 274.143 211.417 274.143 209.13V204.65C274.143 200.683 272.719 198.7 269.873 198.7H268.613V197.3H269.873C271.086 197.3 272.043 196.857 272.743 195.97C273.489 195.037 273.863 193.73 273.863 192.05V185.12C273.863 183.767 273.629 182.763 273.163 182.11C272.696 181.41 271.856 181.06 270.643 181.06C268.869 181.06 267.983 181.76 267.983 183.16C267.983 184.28 268.286 185.61 268.893 187.15C269.499 188.643 270.689 190.627 272.463 193.1H267.633C267.306 191.513 267.049 189.763 266.863 187.85C266.723 185.937 266.653 184.35 266.653 183.09C266.653 178.563 268.449 176.3 272.043 176.3C274.096 176.3 275.729 177.07 276.943 178.61C278.156 180.103 278.763 182.507 278.763 185.82V187.85C278.763 193.637 276.779 196.88 272.813 197.58L272.883 198.14L276.663 197.72ZM298.804 219H293.904V181.55H288.934L289.074 210.04C289.074 214.193 289.027 217.18 288.934 219H284.034V213.96C285.061 213.213 285.784 211.79 286.204 209.69C286.624 207.59 286.881 204.277 286.974 199.75C287.114 195.177 287.184 187.593 287.184 177H298.804V219ZM318.5 217.39C317.1 218.93 315.28 219.7 313.04 219.7C310.753 219.7 309.05 219.07 307.93 217.81C306.81 216.55 306.25 214.45 306.25 211.51V185.75C306.25 182.53 306.95 180.15 308.35 178.61C309.796 177.07 311.64 176.3 313.88 176.3C316.166 176.3 317.87 176.93 318.99 178.19C320.11 179.45 320.67 181.55 320.67 184.49V210.25C320.67 213.47 319.946 215.85 318.5 217.39ZM315 182.25C314.533 181.457 313.88 181.06 313.04 181.06C312.293 181.06 311.78 181.387 311.5 182.04C311.266 182.693 311.15 183.697 311.15 185.05V209.13C311.15 211.417 311.383 212.957 311.85 213.75C312.316 214.543 312.993 214.94 313.88 214.94C314.626 214.94 315.116 214.613 315.35 213.96C315.63 213.307 315.77 212.303 315.77 210.95V186.87C315.77 184.583 315.513 183.043 315 182.25ZM353.561 214.45H355.661V225.79H354.261L351.951 219H342.431L340.121 225.79H338.721V214.45H340.191C340.704 213.33 341.077 211.603 341.311 209.27C341.591 206.937 341.754 203.413 341.801 198.7C341.894 193.94 341.941 186.707 341.941 177H353.561V214.45ZM348.661 214.45V181.55H343.691C343.691 191.257 343.644 198.397 343.551 202.97C343.504 207.543 343.364 211.37 343.131 214.45H348.661ZM373.248 217.39C371.848 218.93 370.028 219.7 367.788 219.7C365.501 219.7 363.798 219.07 362.678 217.81C361.558 216.55 360.998 214.45 360.998 211.51V185.75C360.998 182.53 361.698 180.15 363.098 178.61C364.545 177.07 366.388 176.3 368.628 176.3C370.915 176.3 372.618 176.93 373.738 178.19C374.858 179.45 375.418 181.55 375.418 184.49V210.25C375.418 213.47 374.695 215.85 373.248 217.39ZM369.748 182.25C369.281 181.457 368.628 181.06 367.788 181.06C367.041 181.06 366.528 181.387 366.248 182.04C366.015 182.693 365.898 183.697 365.898 185.05V209.13C365.898 211.417 366.131 212.957 366.598 213.75C367.065 214.543 367.741 214.94 368.628 214.94C369.375 214.94 369.865 214.613 370.098 213.96C370.378 213.307 370.518 212.303 370.518 210.95V186.87C370.518 184.583 370.261 183.043 369.748 182.25ZM393.266 176.3C394.573 176.3 395.623 176.813 396.416 177.84C397.21 178.867 397.606 180.243 397.606 181.97V210.25C397.606 213.47 396.883 215.85 395.436 217.39C394.036 218.93 392.216 219.7 389.976 219.7C387.736 219.7 385.986 218.953 384.726 217.46C383.466 215.967 382.836 213.75 382.836 210.81V184.21C382.836 181.41 383.396 178.89 384.516 176.65C385.636 174.41 387.106 172.567 388.926 171.12C390.746 169.627 392.683 168.577 394.736 167.97L397.466 167.2V174.34L390.746 173.92C389.393 173.873 388.46 174.037 387.946 174.41C387.48 174.783 387.2 175.53 387.106 176.65L386.616 184.91L387.316 185.05C387.69 181.83 388.39 179.567 389.416 178.26C390.49 176.953 391.773 176.3 393.266 176.3ZM392.706 184.7C392.706 182.273 392.1 181.06 390.886 181.06C390.373 181.06 389.86 181.55 389.346 182.53C388.88 183.51 388.483 184.863 388.156 186.59C387.876 188.317 387.736 190.207 387.736 192.26V209.2C387.736 211.487 387.97 213.027 388.436 213.82C388.903 214.613 389.58 215.01 390.466 215.01C391.96 215.01 392.706 213.68 392.706 211.02V184.7ZM419.954 181.97V207.8C419.954 211.953 419.417 214.987 418.344 216.9C417.317 218.767 415.684 219.7 413.444 219.7C411.904 219.7 410.294 218.93 408.614 217.39L408.194 217.81L409.944 219.63V228.1H405.044V177H409.874V177.77L408.264 188.41L408.964 188.55C409.617 183.743 410.481 180.5 411.554 178.82C412.627 177.14 413.934 176.3 415.474 176.3C416.781 176.3 417.854 176.813 418.694 177.84C419.534 178.867 419.954 180.243 419.954 181.97ZM414.914 208.22V184.7C414.914 182.273 414.307 181.06 413.094 181.06C412.581 181.06 412.067 181.55 411.554 182.53C411.087 183.51 410.691 184.863 410.364 186.59C410.084 188.317 409.944 190.207 409.944 192.26V213.82C410.877 214.753 411.881 215.22 412.954 215.22C413.654 215.22 414.144 214.777 414.424 213.89C414.751 212.957 414.914 211.067 414.914 208.22ZM439.624 217.39C438.224 218.93 436.404 219.7 434.164 219.7C431.878 219.7 430.174 219.07 429.054 217.81C427.934 216.55 427.374 214.45 427.374 211.51V185.75C427.374 182.53 428.074 180.15 429.474 178.61C430.921 177.07 432.764 176.3 435.004 176.3C437.291 176.3 438.994 176.93 440.114 178.19C441.234 179.45 441.794 181.55 441.794 184.49V210.25C441.794 213.47 441.071 215.85 439.624 217.39ZM436.124 182.25C435.658 181.457 435.004 181.06 434.164 181.06C433.418 181.06 432.904 181.387 432.624 182.04C432.391 182.693 432.274 183.697 432.274 185.05V209.13C432.274 211.417 432.508 212.957 432.974 213.75C433.441 214.543 434.118 214.94 435.004 214.94C435.751 214.94 436.241 214.613 436.474 213.96C436.754 213.307 436.894 212.303 436.894 210.95V186.87C436.894 184.583 436.638 183.043 436.124 182.25ZM469.023 177L469.723 219H464.683L465.593 191.56H464.473L460.063 219H458.523L453.273 191.56H452.293L454.183 219H449.213L449.913 177H454.253L459.783 206.89H460.553L465.243 177H469.023Z" fill="white"/>
</svg>
