<svg width="187" height="187" viewBox="0 0 187 187" fill="none" xmlns="http://www.w3.org/2000/svg">
<circle cx="93.1822" cy="93.7985" r="50.3886" transform="rotate(89.5479 93.1822 93.7985)" stroke="white" stroke-width="4"/>
<circle cx="93.4879" cy="93.4878" r="25.578" transform="rotate(89.5479 93.4879 93.4878)" fill="#0500FF"/>
<ellipse cx="21.9948" cy="94.0519" rx="6.47153" ry="6.47154" transform="rotate(89.5479 21.9948 94.0519)" fill="white"/>
<ellipse cx="92.9186" cy="21.3786" rx="6.47154" ry="6.47153" transform="rotate(89.5479 92.9186 21.3786)" fill="white"/>
<circle cx="94.0568" cy="165.597" r="6.47153" transform="rotate(89.5479 94.0568 165.597)" fill="white"/>
<ellipse cx="141.358" cy="145.5" rx="6.47154" ry="6.47154" transform="rotate(89.5479 141.358 145.5)" fill="white"/>
<ellipse cx="40.6779" cy="40.2814" rx="6.47154" ry="6.47154" transform="rotate(89.5479 40.6779 40.2814)" fill="white"/>
<circle cx="140.521" cy="39.4936" r="6.47154" transform="rotate(89.5479 140.521 39.4936)" fill="white"/>
<circle cx="41.5143" cy="146.288" r="6.47154" transform="rotate(89.5479 41.5143 146.288)" fill="white"/>
<ellipse cx="28.3771" cy="121.738" rx="6.47154" ry="6.47153" transform="rotate(89.5479 28.3771 121.738)" fill="white"/>
<ellipse cx="66.2741" cy="159.653" rx="6.47153" ry="6.47154" transform="rotate(89.5479 66.2741 159.653)" fill="white"/>
<ellipse cx="119.894" cy="159.229" rx="6.47153" ry="6.47154" transform="rotate(89.5479 119.894 159.229)" fill="white"/>
<ellipse cx="157.804" cy="120.716" rx="6.47154" ry="6.47154" transform="rotate(89.5479 157.804 120.716)" fill="white"/>
<ellipse cx="157.332" cy="60.9335" rx="6.47154" ry="6.47154" transform="rotate(89.5479 157.332 60.9335)" fill="white"/>
<circle cx="118.848" cy="26.7211" r="6.47154" transform="rotate(89.5479 118.848 26.7211)" fill="white"/>
<circle cx="65.2282" cy="27.1442" r="6.47154" transform="rotate(89.5479 65.2282 27.1442)" fill="white"/>
<ellipse cx="27.9054" cy="61.9548" rx="6.47154" ry="6.47153" transform="rotate(89.5479 27.9054 61.9548)" fill="white"/>
<ellipse cx="164.364" cy="92.9284" rx="6.47153" ry="6.47154" transform="rotate(89.5479 164.364 92.9284)" fill="white"/>
</svg>
