<svg width="394" height="386" viewBox="0 0 394 386" fill="none" xmlns="http://www.w3.org/2000/svg">
<path d="M342.234 217.383C351.425 190.101 392.109 220.45 391.867 189.782C391.629 159.585 346.064 177.987 342.045 165.724C335.4 145.451 385.336 135.288 373.158 115.472C360.981 95.6562 332.434 129.471 318.706 115.902C303.243 100.617 356.165 87.2421 334.745 66.6209C309.263 42.0874 295.747 89.5354 278.864 78.7112C260.084 66.6707 313.124 41.7734 284.479 27.4314C255.834 13.0893 257.107 64.6716 235.608 57.4894C213.268 50.0261 250.477 6.26224 220.792 2.45443C199.926 -0.222121 208.536 50.0009 196.064 50.0993" stroke="white" stroke-width="4"/>
<path d="M52.1013 219.44C46.8892 203.39 2.7319 223.523 2.48976 192.854C2.25135 162.658 48.1009 180.338 51.9263 168.014C58.2508 147.638 8.16053 138.265 20.0236 118.259C31.8867 98.2532 60.9635 131.613 74.4756 117.829C89.6962 102.302 36.5698 89.7641 57.6609 68.8074C82.7534 43.8748 97.0159 91.1036 113.726 80.0143C132.314 67.6789 78.8875 43.6218 107.303 28.8295C135.718 14.0372 135.259 65.6331 156.642 58.1125C178.861 50.2976 140.966 7.12638 170.587 2.85056C191.409 -0.154952 183.592 50.1977 196.064 50.0992" stroke="white" stroke-width="4"/>
<path d="M342.234 217.382C334.881 239.135 387.543 237.776 371.777 266.198C356.012 294.62 333.124 253.572 319.667 267.363C304.508 282.898 357.422 295.445 336.416 316.413C311.425 341.359 297.218 294.103 280.575 305.198C262.062 317.539 315.275 341.612 286.975 356.411C258.674 371.211 259.129 319.586 237.832 327.11C215.701 334.929 252.641 374.674 223.944 382.403C189.145 391.774 220.731 334.508 198.31 334.684" stroke="white" stroke-width="4"/>
<path d="M52.1013 219.44C58.7207 239.725 9.54209 249.887 21.6714 269.715C33.8007 289.542 62.2319 255.71 75.9055 269.287C91.3078 284.581 38.5982 297.961 59.9324 318.595C85.3142 343.143 98.7737 295.669 115.589 306.5C134.295 318.548 81.4682 343.457 109.999 357.808C138.53 372.159 137.26 320.548 158.673 327.735C180.924 335.203 144.616 375.526 173.432 382.801C208.374 391.623 175.889 334.861 198.31 334.684" stroke="white" stroke-width="4"/>
<path d="M196.593 71.0891C129.706 71.617 75.8905 126.64 76.4222 194.014C76.9539 261.388 131.631 315.555 198.518 315.027C265.406 314.499 319.221 259.476 318.689 192.102C318.158 124.728 263.481 70.5613 196.593 71.0891Z" stroke="white" stroke-width="4"/>
<path d="M196.553 112.049C152.334 112.398 116.749 148.775 117.1 193.327C117.452 237.879 153.607 273.69 197.826 273.341C242.045 272.992 277.63 236.615 277.279 192.063C276.927 147.511 240.772 111.7 196.553 112.049Z" stroke="#0500FF" stroke-width="4"/>
<ellipse cx="35.8387" cy="35.5972" rx="35.8387" ry="35.5972" transform="matrix(-0.00789114 -0.999969 -0.999969 0.00789114 233.068 228.252)" fill="#0500FF"/>
<ellipse cx="297.547" cy="192.554" rx="7.83092" ry="7.8088" transform="rotate(89.5479 297.547 192.554)" fill="#0500FF"/>
<ellipse cx="96.2742" cy="194.142" rx="7.83092" ry="7.80881" transform="rotate(89.5479 96.2742 194.142)" fill="#0500FF"/>
<ellipse cx="197.047" cy="91.4763" rx="7.8309" ry="7.80879" transform="rotate(89.5479 197.047 91.4763)" fill="#0500FF"/>
<ellipse cx="198.64" cy="293.319" rx="7.83091" ry="7.80879" transform="rotate(89.5479 198.64 293.319)" fill="#0500FF"/>
<ellipse cx="123.159" cy="263.731" rx="7.83091" ry="7.80879" transform="rotate(89.5479 123.159 263.731)" fill="#0500FF"/>
<ellipse cx="122.058" cy="124.138" rx="7.8309" ry="7.80879" transform="rotate(89.5479 122.058 124.138)" fill="#0500FF"/>
<ellipse cx="266.854" cy="117.336" rx="7.83092" ry="7.80879" transform="rotate(89.5479 266.854 117.336)" fill="#0500FF"/>
<ellipse cx="234.727" cy="98.7248" rx="7.8309" ry="7.80879" transform="rotate(89.5479 234.727 98.7248)" fill="#0500FF"/>
<ellipse cx="289.71" cy="152.999" rx="7.83091" ry="7.8088" transform="rotate(89.5479 289.71 152.999)" fill="#0500FF"/>
<ellipse cx="290.335" cy="232.227" rx="7.83091" ry="7.8088" transform="rotate(89.5479 290.335 232.227)" fill="#0500FF"/>
<ellipse cx="236.186" cy="283.59" rx="7.83091" ry="7.80879" transform="rotate(89.5479 236.186 283.59)" fill="#0500FF"/>
<ellipse cx="155.301" cy="284.228" rx="7.83091" ry="7.80879" transform="rotate(89.5479 155.301 284.228)" fill="#0500FF"/>
<ellipse cx="104.111" cy="233.697" rx="7.83091" ry="7.80879" transform="rotate(89.5479 104.111 233.697)" fill="#0500FF"/>
<ellipse cx="103.486" cy="154.469" rx="7.83091" ry="7.80879" transform="rotate(89.5479 103.486 154.469)" fill="#0500FF"/>
<ellipse cx="153.842" cy="99.3632" rx="7.8309" ry="7.80879" transform="rotate(89.5479 153.842 99.3632)" fill="#0500FF"/>
<ellipse cx="268" cy="262.588" rx="7.83091" ry="7.80879" transform="rotate(89.5479 268 262.588)" fill="#0500FF"/>
</svg>
