<svg width="572" height="800" viewBox="0 0 572 800" fill="none" xmlns="http://www.w3.org/2000/svg">
<rect width="572" height="800" rx="7" fill="#0500FF"/>
<path d="M47.414 84V56.46H61.49V84H58.906V58.398H49.998V84H47.414ZM65.7634 90.46V64.348H68.2454V65.98C68.6534 65.4813 69.1634 65.0393 69.7754 64.654C70.3874 64.246 71.1354 64.042 72.0194 64.042C72.9714 64.042 73.7307 64.2687 74.2974 64.722C74.8867 65.1527 75.34 65.742 75.6574 66.49C75.9747 67.238 76.19 68.0767 76.3034 69.006C76.4167 69.9353 76.4734 70.8873 76.4734 71.862V76.01C76.4734 77.6873 76.3374 79.1493 76.0654 80.396C75.7934 81.62 75.306 82.5833 74.6034 83.286C73.9234 83.966 72.9714 84.306 71.7474 84.306C70.954 84.306 70.2627 84.102 69.6734 83.694C69.1067 83.286 68.6307 82.8667 68.2454 82.436V90.46H65.7634ZM71.3734 82.334C72.1214 82.334 72.6767 82.096 73.0394 81.62C73.4247 81.144 73.674 80.4413 73.7874 79.512C73.9234 78.56 73.9914 77.4153 73.9914 76.078V71.862C73.9914 70.5927 73.9234 69.5273 73.7874 68.666C73.674 67.782 73.4247 67.1133 73.0394 66.66C72.654 66.2067 72.076 65.98 71.3054 65.98C70.6707 65.98 70.0814 66.15 69.5374 66.49C69.016 66.83 68.5854 67.17 68.2454 67.51V80.906C68.608 81.2913 69.05 81.6313 69.5714 81.926C70.1154 82.198 70.716 82.334 71.3734 82.334ZM84.8031 84.306C83.4658 84.306 82.4118 84.0227 81.6411 83.456C80.8931 82.8667 80.3604 82.028 80.0431 80.94C79.7258 79.8293 79.5671 78.4807 79.5671 76.894V71.454C79.5671 69.8673 79.7258 68.53 80.0431 67.442C80.3604 66.3313 80.8931 65.4927 81.6411 64.926C82.4118 64.3367 83.4658 64.042 84.8031 64.042C86.1858 64.042 87.2511 64.3367 87.9991 64.926C88.7471 65.4927 89.2798 66.3313 89.5971 67.442C89.9144 68.53 90.0731 69.8673 90.0731 71.454V76.894C90.0731 78.4807 89.9144 79.8293 89.5971 80.94C89.2798 82.028 88.7471 82.8667 87.9991 83.456C87.2511 84.0227 86.1858 84.306 84.8031 84.306ZM84.8031 82.436C85.6644 82.436 86.2878 82.2093 86.6731 81.756C87.0811 81.3027 87.3304 80.668 87.4211 79.852C87.5118 79.0133 87.5571 78.0727 87.5571 77.03V71.318C87.5571 70.2527 87.5118 69.3233 87.4211 68.53C87.3304 67.714 87.0811 67.0793 86.6731 66.626C86.2878 66.15 85.6644 65.912 84.8031 65.912C83.9418 65.912 83.3184 66.15 82.9331 66.626C82.5478 67.0793 82.3098 67.714 82.2191 68.53C82.1284 69.3233 82.0831 70.2527 82.0831 71.318V77.03C82.0831 78.0727 82.1284 79.0133 82.2191 79.852C82.3098 80.668 82.5478 81.3027 82.9331 81.756C83.3184 82.2093 83.9418 82.436 84.8031 82.436ZM93.5212 84V64.348H98.2812C99.5732 64.348 100.571 64.5747 101.273 65.028C101.999 65.4813 102.52 66.0707 102.837 66.796C103.155 67.4987 103.313 68.258 103.313 69.074C103.313 69.958 103.143 70.808 102.803 71.624C102.463 72.4173 101.795 72.984 100.797 73.324C101.568 73.528 102.157 73.8907 102.565 74.412C102.996 74.9107 103.302 75.5 103.483 76.18C103.665 76.86 103.755 77.574 103.755 78.322C103.755 79.4327 103.608 80.4187 103.313 81.28C103.019 82.1413 102.497 82.81 101.749 83.286C101.001 83.762 99.9359 84 98.5532 84H93.5212ZM95.9692 82.096H98.1112C98.8819 82.096 99.4939 81.9487 99.9472 81.654C100.423 81.3593 100.763 80.9287 100.967 80.362C101.194 79.7727 101.307 79.0587 101.307 78.22C101.307 77.1773 101.171 76.3953 100.899 75.874C100.65 75.33 100.299 74.956 99.8452 74.752C99.4145 74.548 98.8932 74.446 98.2812 74.446H95.9692V82.096ZM95.9692 72.644H98.4512C99.2219 72.644 99.8452 72.3607 100.321 71.794C100.797 71.2273 101.035 70.4 101.035 69.312C101.035 68.292 100.775 67.5327 100.253 67.034C99.7545 66.5127 99.0065 66.252 98.0092 66.252H95.9692V72.644ZM111.631 84.306C110.294 84.306 109.24 84.0227 108.469 83.456C107.721 82.8667 107.189 82.028 106.871 80.94C106.554 79.8293 106.395 78.4807 106.395 76.894V71.454C106.395 69.8673 106.554 68.53 106.871 67.442C107.189 66.3313 107.721 65.4927 108.469 64.926C109.24 64.3367 110.294 64.042 111.631 64.042C113.014 64.042 114.079 64.3367 114.827 64.926C115.575 65.4927 116.108 66.3313 116.425 67.442C116.743 68.53 116.901 69.8673 116.901 71.454V76.894C116.901 78.4807 116.743 79.8293 116.425 80.94C116.108 82.028 115.575 82.8667 114.827 83.456C114.079 84.0227 113.014 84.306 111.631 84.306ZM111.631 82.436C112.493 82.436 113.116 82.2093 113.501 81.756C113.909 81.3027 114.159 80.668 114.249 79.852C114.34 79.0133 114.385 78.0727 114.385 77.03V71.318C114.385 70.2527 114.34 69.3233 114.249 68.53C114.159 67.714 113.909 67.0793 113.501 66.626C113.116 66.15 112.493 65.912 111.631 65.912C110.77 65.912 110.147 66.15 109.761 66.626C109.376 67.0793 109.138 67.714 109.047 68.53C108.957 69.3233 108.911 70.2527 108.911 71.318V77.03C108.911 78.0727 108.957 79.0133 109.047 79.852C109.138 80.668 109.376 81.3027 109.761 81.756C110.147 82.2093 110.77 82.436 111.631 82.436ZM118.686 88.726V82.3C119.275 81.9147 119.796 81.4273 120.25 80.838C120.703 80.226 121.1 79.4213 121.44 78.424C121.78 77.4267 122.063 76.1573 122.29 74.616C122.516 73.0747 122.686 71.182 122.8 68.938L123.106 64.348H131.3V82.198H133.272V88.726H131.402L131.198 84H120.794L120.556 88.726H118.686ZM121.27 82.198H128.886V66.184H125.112L124.806 69.448C124.67 71.6013 124.511 73.4147 124.33 74.888C124.148 76.3613 123.922 77.574 123.65 78.526C123.378 79.478 123.038 80.2487 122.63 80.838C122.244 81.4047 121.791 81.858 121.27 82.198ZM136.22 84V64.348H138.328V79.478L144.89 64.348H146.896V84H144.788V68.904L138.294 84H136.22ZM150.561 84L150.731 64.348H152.601L157.191 77.846L161.781 64.348H163.719L163.889 84H161.747L161.713 70.196L157.599 81.96H156.817L152.737 70.264L152.703 84H150.561ZM179.366 84.306C177.825 84.306 176.68 83.966 175.932 83.286C175.184 82.606 174.686 81.688 174.436 80.532C174.21 79.3533 174.096 78.0273 174.096 76.554V71.964C174.096 70.1507 174.244 68.666 174.538 67.51C174.833 66.3313 175.354 65.4587 176.102 64.892C176.873 64.3253 177.961 64.042 179.366 64.042C180.749 64.042 181.803 64.3027 182.528 64.824C183.254 65.3453 183.741 66.082 183.99 67.034C184.24 67.986 184.364 69.0853 184.364 70.332V71.284H182.052V70.332C182.052 69.176 181.962 68.2807 181.78 67.646C181.622 67.0113 181.338 66.5693 180.93 66.32C180.545 66.048 180.024 65.912 179.366 65.912C178.596 65.912 178.006 66.0933 177.598 66.456C177.19 66.8187 176.918 67.4193 176.782 68.258C176.646 69.074 176.578 70.1733 176.578 71.556V77.064C176.578 79.036 176.771 80.43 177.156 81.246C177.542 82.0393 178.29 82.436 179.4 82.436C180.171 82.436 180.749 82.266 181.134 81.926C181.52 81.5633 181.769 81.0307 181.882 80.328C181.996 79.6253 182.052 78.7527 182.052 77.71V76.622H184.364V77.574C184.364 78.8887 184.24 80.056 183.99 81.076C183.764 82.0733 183.288 82.8667 182.562 83.456C181.837 84.0227 180.772 84.306 179.366 84.306ZM187.549 84L187.719 64.348H189.589L194.179 77.846L198.769 64.348H200.707L200.877 84H198.735L198.701 70.196L194.587 81.96H193.805L189.725 70.264L189.691 84H187.549ZM209.381 84.306C208.044 84.306 206.99 84.0227 206.219 83.456C205.471 82.8667 204.939 82.028 204.621 80.94C204.304 79.8293 204.145 78.4807 204.145 76.894V71.454C204.145 69.8673 204.304 68.53 204.621 67.442C204.939 66.3313 205.471 65.4927 206.219 64.926C206.99 64.3367 208.044 64.042 209.381 64.042C210.764 64.042 211.829 64.3367 212.577 64.926C213.325 65.4927 213.858 66.3313 214.175 67.442C214.493 68.53 214.651 69.8673 214.651 71.454V76.894C214.651 78.4807 214.493 79.8293 214.175 80.94C213.858 82.028 213.325 82.8667 212.577 83.456C211.829 84.0227 210.764 84.306 209.381 84.306ZM209.381 82.436C210.243 82.436 210.866 82.2093 211.251 81.756C211.659 81.3027 211.909 80.668 211.999 79.852C212.09 79.0133 212.135 78.0727 212.135 77.03V71.318C212.135 70.2527 212.09 69.3233 211.999 68.53C211.909 67.714 211.659 67.0793 211.251 66.626C210.866 66.15 210.243 65.912 209.381 65.912C208.52 65.912 207.897 66.15 207.511 66.626C207.126 67.0793 206.888 67.714 206.797 68.53C206.707 69.3233 206.661 70.2527 206.661 71.318V77.03C206.661 78.0727 206.707 79.0133 206.797 79.852C206.888 80.668 207.126 81.3027 207.511 81.756C207.897 82.2093 208.52 82.436 209.381 82.436ZM220.451 84V66.252H216.201V64.348H227.115V66.252H222.933V84H220.451ZM229.256 90.46V64.348H231.738V65.98C232.146 65.4813 232.656 65.0393 233.268 64.654C233.88 64.246 234.628 64.042 235.512 64.042C236.464 64.042 237.223 64.2687 237.79 64.722C238.379 65.1527 238.832 65.742 239.15 66.49C239.467 67.238 239.682 68.0767 239.796 69.006C239.909 69.9353 239.966 70.8873 239.966 71.862V76.01C239.966 77.6873 239.83 79.1493 239.558 80.396C239.286 81.62 238.798 82.5833 238.096 83.286C237.416 83.966 236.464 84.306 235.24 84.306C234.446 84.306 233.755 84.102 233.166 83.694C232.599 83.286 232.123 82.8667 231.738 82.436V90.46H229.256ZM234.866 82.334C235.614 82.334 236.169 82.096 236.532 81.62C236.917 81.144 237.166 80.4413 237.28 79.512C237.416 78.56 237.484 77.4153 237.484 76.078V71.862C237.484 70.5927 237.416 69.5273 237.28 68.666C237.166 67.782 236.917 67.1133 236.532 66.66C236.146 66.2067 235.568 65.98 234.798 65.98C234.163 65.98 233.574 66.15 233.03 66.49C232.508 66.83 232.078 67.17 231.738 67.51V80.906C232.1 81.2913 232.542 81.6313 233.064 81.926C233.608 82.198 234.208 82.334 234.866 82.334ZM250.373 84V64.348H252.855V72.916H258.975V64.348H261.491V84H258.975V74.786H252.855V84H250.373ZM270.211 84.306C268.987 84.306 267.978 84.068 267.185 83.592C266.414 83.0933 265.836 82.2773 265.451 81.144C265.088 80.0107 264.907 78.5033 264.907 76.622V71.658C264.907 69.7087 265.1 68.19 265.485 67.102C265.87 65.9913 266.46 65.2093 267.253 64.756C268.046 64.28 269.044 64.042 270.245 64.042C271.628 64.042 272.682 64.3367 273.407 64.926C274.132 65.5153 274.631 66.4107 274.903 67.612C275.198 68.7907 275.345 70.3093 275.345 72.168V73.936H267.389V77.37C267.389 78.6393 267.48 79.648 267.661 80.396C267.865 81.1213 268.171 81.6427 268.579 81.96C269.01 82.2773 269.554 82.436 270.211 82.436C270.71 82.436 271.163 82.3453 271.571 82.164C271.979 81.96 272.296 81.586 272.523 81.042C272.772 80.4753 272.897 79.682 272.897 78.662V77.302H275.311V78.39C275.311 80.1807 274.937 81.62 274.189 82.708C273.464 83.7733 272.138 84.306 270.211 84.306ZM267.389 72.508H272.897V70.876C272.897 69.8333 272.84 68.9493 272.727 68.224C272.614 67.476 272.364 66.9093 271.979 66.524C271.616 66.116 271.027 65.912 270.211 65.912C269.531 65.912 268.976 66.0593 268.545 66.354C268.137 66.6487 267.842 67.1813 267.661 67.952C267.48 68.7 267.389 69.7767 267.389 71.182V72.508ZM278.695 84V64.348H283.455C284.747 64.348 285.744 64.5747 286.447 65.028C287.172 65.4813 287.694 66.0707 288.011 66.796C288.328 67.4987 288.487 68.258 288.487 69.074C288.487 69.958 288.317 70.808 287.977 71.624C287.637 72.4173 286.968 72.984 285.971 73.324C286.742 73.528 287.331 73.8907 287.739 74.412C288.17 74.9107 288.476 75.5 288.657 76.18C288.838 76.86 288.929 77.574 288.929 78.322C288.929 79.4327 288.782 80.4187 288.487 81.28C288.192 82.1413 287.671 82.81 286.923 83.286C286.175 83.762 285.11 84 283.727 84H278.695ZM281.143 82.096H283.285C284.056 82.096 284.668 81.9487 285.121 81.654C285.597 81.3593 285.937 80.9287 286.141 80.362C286.368 79.7727 286.481 79.0587 286.481 78.22C286.481 77.1773 286.345 76.3953 286.073 75.874C285.824 75.33 285.472 74.956 285.019 74.752C284.588 74.548 284.067 74.446 283.455 74.446H281.143V82.096ZM281.143 72.644H283.625C284.396 72.644 285.019 72.3607 285.495 71.794C285.971 71.2273 286.209 70.4 286.209 69.312C286.209 68.292 285.948 67.5327 285.427 67.034C284.928 66.5127 284.18 66.252 283.183 66.252H281.143V72.644ZM296.873 84.306C295.649 84.306 294.64 84.068 293.847 83.592C293.076 83.0933 292.498 82.2773 292.113 81.144C291.75 80.0107 291.569 78.5033 291.569 76.622V71.658C291.569 69.7087 291.762 68.19 292.147 67.102C292.532 65.9913 293.122 65.2093 293.915 64.756C294.708 64.28 295.706 64.042 296.907 64.042C298.29 64.042 299.344 64.3367 300.069 64.926C300.794 65.5153 301.293 66.4107 301.565 67.612C301.86 68.7907 302.007 70.3093 302.007 72.168V73.936H294.051V77.37C294.051 78.6393 294.142 79.648 294.323 80.396C294.527 81.1213 294.833 81.6427 295.241 81.96C295.672 82.2773 296.216 82.436 296.873 82.436C297.372 82.436 297.825 82.3453 298.233 82.164C298.641 81.96 298.958 81.586 299.185 81.042C299.434 80.4753 299.559 79.682 299.559 78.662V77.302H301.973V78.39C301.973 80.1807 301.599 81.62 300.851 82.708C300.126 83.7733 298.8 84.306 296.873 84.306ZM294.051 72.508H299.559V70.876C299.559 69.8333 299.502 68.9493 299.389 68.224C299.276 67.476 299.026 66.9093 298.641 66.524C298.278 66.116 297.689 65.912 296.873 65.912C296.193 65.912 295.638 66.0593 295.207 66.354C294.799 66.6487 294.504 67.1813 294.323 67.952C294.142 68.7 294.051 69.7767 294.051 71.182V72.508ZM310.253 84.306C308.712 84.306 307.567 83.966 306.819 83.286C306.071 82.606 305.572 81.688 305.323 80.532C305.096 79.3533 304.983 78.0273 304.983 76.554V71.964C304.983 70.1507 305.13 68.666 305.425 67.51C305.72 66.3313 306.241 65.4587 306.989 64.892C307.76 64.3253 308.848 64.042 310.253 64.042C311.636 64.042 312.69 64.3027 313.415 64.824C314.14 65.3453 314.628 66.082 314.877 67.034C315.126 67.986 315.251 69.0853 315.251 70.332V71.284H312.939V70.332C312.939 69.176 312.848 68.2807 312.667 67.646C312.508 67.0113 312.225 66.5693 311.817 66.32C311.432 66.048 310.91 65.912 310.253 65.912C309.482 65.912 308.893 66.0933 308.485 66.456C308.077 66.8187 307.805 67.4193 307.669 68.258C307.533 69.074 307.465 70.1733 307.465 71.556V77.064C307.465 79.036 307.658 80.43 308.043 81.246C308.428 82.0393 309.176 82.436 310.287 82.436C311.058 82.436 311.636 82.266 312.021 81.926C312.406 81.5633 312.656 81.0307 312.769 80.328C312.882 79.6253 312.939 78.7527 312.939 77.71V76.622H315.251V77.574C315.251 78.8887 315.126 80.056 314.877 81.076C314.65 82.0733 314.174 82.8667 313.449 83.456C312.724 84.0227 311.658 84.306 310.253 84.306ZM321.156 84V66.252H316.906V64.348H327.82V66.252H323.638V84H321.156ZM330.267 87.944L329.723 86.856C330.335 86.516 330.754 86.1193 330.981 85.666C331.23 85.2353 331.355 84.68 331.355 84H329.893V80.294H332.647V83.728C332.647 84.8387 332.465 85.7113 332.103 86.346C331.74 86.9807 331.128 87.5133 330.267 87.944ZM45.136 134L50.678 123.936L45.408 114.348H47.822L52.752 123.766H53.058V114.348H55.132V123.766H55.438L60.334 114.348H62.714L57.478 123.936L62.986 134H60.674L55.438 124.242H55.132V134H53.058V124.242H52.718L47.482 134H45.136ZM63.4689 138.726V132.3C64.0582 131.915 64.5796 131.427 65.0329 130.838C65.4862 130.226 65.8829 129.421 66.2229 128.424C66.5629 127.427 66.8462 126.157 67.0729 124.616C67.2996 123.075 67.4696 121.182 67.5829 118.938L67.8889 114.348H76.0829V132.198H78.0549V138.726H76.1849L75.9809 134H65.5769L65.3389 138.726H63.4689ZM66.0529 132.198H73.6689V116.184H69.8949L69.5889 119.448C69.4529 121.601 69.2942 123.415 69.1129 124.888C68.9316 126.361 68.7049 127.574 68.4329 128.526C68.1609 129.478 67.8209 130.249 67.4129 130.838C67.0276 131.405 66.5742 131.858 66.0529 132.198ZM85.9336 134.306C84.7096 134.306 83.7009 134.068 82.9076 133.592C82.1369 133.093 81.5589 132.277 81.1736 131.144C80.8109 130.011 80.6296 128.503 80.6296 126.622V121.658C80.6296 119.709 80.8223 118.19 81.2076 117.102C81.5929 115.991 82.1823 115.209 82.9756 114.756C83.7689 114.28 84.7663 114.042 85.9676 114.042C87.3503 114.042 88.4043 114.337 89.1296 114.926C89.8549 115.515 90.3536 116.411 90.6256 117.612C90.9203 118.791 91.0676 120.309 91.0676 122.168V123.936H83.1116V127.37C83.1116 128.639 83.2023 129.648 83.3836 130.396C83.5876 131.121 83.8936 131.643 84.3016 131.96C84.7323 132.277 85.2763 132.436 85.9336 132.436C86.4323 132.436 86.8856 132.345 87.2936 132.164C87.7016 131.96 88.0189 131.586 88.2456 131.042C88.4949 130.475 88.6196 129.682 88.6196 128.662V127.302H91.0336V128.39C91.0336 130.181 90.6596 131.62 89.9116 132.708C89.1863 133.773 87.8603 134.306 85.9336 134.306ZM83.1116 122.508H88.6196V120.876C88.6196 119.833 88.5629 118.949 88.4496 118.224C88.3363 117.476 88.0869 116.909 87.7016 116.524C87.3389 116.116 86.7496 115.912 85.9336 115.912C85.2536 115.912 84.6983 116.059 84.2676 116.354C83.8596 116.649 83.5649 117.181 83.3836 117.952C83.2023 118.7 83.1116 119.777 83.1116 121.182V122.508ZM87.3956 109.486V106.46H89.9456V109.486H87.3956ZM81.7856 109.486V106.46H84.3356V109.486H81.7856ZM94.2817 134L94.4517 114.348H96.3217L100.912 127.846L105.502 114.348H107.44L107.61 134H105.468L105.434 120.196L101.32 131.96H100.538L96.4577 120.264L96.4237 134H94.2817ZM123.087 134.306C121.546 134.306 120.401 133.966 119.653 133.286C118.905 132.606 118.406 131.688 118.157 130.532C117.93 129.353 117.817 128.027 117.817 126.554V121.964C117.817 120.151 117.964 118.666 118.259 117.51C118.554 116.331 119.075 115.459 119.823 114.892C120.594 114.325 121.682 114.042 123.087 114.042C124.47 114.042 125.524 114.303 126.249 114.824C126.974 115.345 127.462 116.082 127.711 117.034C127.96 117.986 128.085 119.085 128.085 120.332V121.284H125.773V120.332C125.773 119.176 125.682 118.281 125.501 117.646C125.342 117.011 125.059 116.569 124.651 116.32C124.266 116.048 123.744 115.912 123.087 115.912C122.316 115.912 121.727 116.093 121.319 116.456C120.911 116.819 120.639 117.419 120.503 118.258C120.367 119.074 120.299 120.173 120.299 121.556V127.064C120.299 129.036 120.492 130.43 120.877 131.246C121.262 132.039 122.01 132.436 123.121 132.436C123.892 132.436 124.47 132.266 124.855 131.926C125.24 131.563 125.49 131.031 125.603 130.328C125.716 129.625 125.773 128.753 125.773 127.71V126.622H128.085V127.574C128.085 128.889 127.96 130.056 127.711 131.076C127.484 132.073 127.008 132.867 126.283 133.456C125.558 134.023 124.492 134.306 123.087 134.306ZM130.862 138.896V136.958C131.995 136.958 132.845 136.867 133.412 136.686C134.001 136.527 134.387 136.289 134.568 135.972C134.772 135.677 134.874 135.326 134.874 134.918C134.874 134.555 134.806 134.079 134.67 133.49C134.534 132.901 134.387 132.289 134.228 131.654L130.182 114.348H132.664L136.064 131.076L139.362 114.348H141.878L137.118 135.394C136.937 136.233 136.608 136.901 136.132 137.4C135.679 137.921 135.067 138.295 134.296 138.522C133.548 138.771 132.619 138.896 131.508 138.896H130.862ZM142.587 134L148.129 123.936L142.859 114.348H145.273L150.203 123.766H150.509V114.348H152.583V123.766H152.889L157.785 114.348H160.165L154.929 123.936L160.437 134H158.125L152.889 124.242H152.583V134H150.509V124.242H150.169L144.933 134H142.587ZM165.718 134.306C164.925 134.306 164.233 134.113 163.644 133.728C163.055 133.32 162.59 132.787 162.25 132.13C161.933 131.45 161.774 130.713 161.774 129.92C161.774 128.923 161.91 128.073 162.182 127.37C162.477 126.667 162.93 126.044 163.542 125.5C164.177 124.933 164.993 124.389 165.99 123.868C167.01 123.324 168.245 122.723 169.696 122.066V120.672C169.696 119.471 169.617 118.53 169.458 117.85C169.322 117.147 169.073 116.649 168.71 116.354C168.37 116.059 167.883 115.912 167.248 115.912C166.727 115.912 166.262 116.014 165.854 116.218C165.446 116.422 165.117 116.773 164.868 117.272C164.619 117.748 164.494 118.417 164.494 119.278V119.958L162.046 119.924C162.069 117.929 162.488 116.456 163.304 115.504C164.143 114.529 165.503 114.042 167.384 114.042C169.152 114.042 170.387 114.575 171.09 115.64C171.815 116.683 172.178 118.315 172.178 120.536V130.09C172.178 130.43 172.189 130.872 172.212 131.416C172.235 131.937 172.257 132.436 172.28 132.912C172.303 133.388 172.325 133.751 172.348 134H170.138C170.093 133.569 170.025 133.093 169.934 132.572C169.843 132.028 169.787 131.597 169.764 131.28C169.492 132.073 169.005 132.776 168.302 133.388C167.622 134 166.761 134.306 165.718 134.306ZM166.5 132.198C166.999 132.198 167.452 132.073 167.86 131.824C168.268 131.575 168.631 131.28 168.948 130.94C169.265 130.577 169.515 130.215 169.696 129.852V123.732C168.721 124.231 167.883 124.684 167.18 125.092C166.5 125.5 165.945 125.897 165.514 126.282C165.083 126.667 164.766 127.109 164.562 127.608C164.358 128.084 164.256 128.651 164.256 129.308C164.256 130.351 164.483 131.099 164.936 131.552C165.389 131.983 165.911 132.198 166.5 132.198ZM175.832 134V114.348H178.314V122.916H184.434V114.348H186.95V134H184.434V124.786H178.314V134H175.832ZM195.602 134.306C194.265 134.306 193.211 134.023 192.44 133.456C191.692 132.867 191.159 132.028 190.842 130.94C190.525 129.829 190.366 128.481 190.366 126.894V121.454C190.366 119.867 190.525 118.53 190.842 117.442C191.159 116.331 191.692 115.493 192.44 114.926C193.211 114.337 194.265 114.042 195.602 114.042C196.985 114.042 198.05 114.337 198.798 114.926C199.546 115.493 200.079 116.331 200.396 117.442C200.713 118.53 200.872 119.867 200.872 121.454V126.894C200.872 128.481 200.713 129.829 200.396 130.94C200.079 132.028 199.546 132.867 198.798 133.456C198.05 134.023 196.985 134.306 195.602 134.306ZM195.602 132.436C196.463 132.436 197.087 132.209 197.472 131.756C197.88 131.303 198.129 130.668 198.22 129.852C198.311 129.013 198.356 128.073 198.356 127.03V121.318C198.356 120.253 198.311 119.323 198.22 118.53C198.129 117.714 197.88 117.079 197.472 116.626C197.087 116.15 196.463 115.912 195.602 115.912C194.741 115.912 194.117 116.15 193.732 116.626C193.347 117.079 193.109 117.714 193.018 118.53C192.927 119.323 192.882 120.253 192.882 121.318V127.03C192.882 128.073 192.927 129.013 193.018 129.852C193.109 130.668 193.347 131.303 193.732 131.756C194.117 132.209 194.741 132.436 195.602 132.436ZM204.32 134V114.348H211.562V116.218H206.802V134H204.32ZM218.545 134.306C217.208 134.306 216.154 134.023 215.383 133.456C214.635 132.867 214.103 132.028 213.785 130.94C213.468 129.829 213.309 128.481 213.309 126.894V121.454C213.309 119.867 213.468 118.53 213.785 117.442C214.103 116.331 214.635 115.493 215.383 114.926C216.154 114.337 217.208 114.042 218.545 114.042C219.928 114.042 220.993 114.337 221.741 114.926C222.489 115.493 223.022 116.331 223.339 117.442C223.657 118.53 223.815 119.867 223.815 121.454V126.894C223.815 128.481 223.657 129.829 223.339 130.94C223.022 132.028 222.489 132.867 221.741 133.456C220.993 134.023 219.928 134.306 218.545 134.306ZM218.545 132.436C219.407 132.436 220.03 132.209 220.415 131.756C220.823 131.303 221.073 130.668 221.163 129.852C221.254 129.013 221.299 128.073 221.299 127.03V121.318C221.299 120.253 221.254 119.323 221.163 118.53C221.073 117.714 220.823 117.079 220.415 116.626C220.03 116.15 219.407 115.912 218.545 115.912C217.684 115.912 217.061 116.15 216.675 116.626C216.29 117.079 216.052 117.714 215.961 118.53C215.871 119.323 215.825 120.253 215.825 121.318V127.03C215.825 128.073 215.871 129.013 215.961 129.852C216.052 130.668 216.29 131.303 216.675 131.756C217.061 132.209 217.684 132.436 218.545 132.436Z" fill="white"/>
<path d="M53.772 610.34C52.14 610.34 50.848 609.989 49.896 609.286C48.944 608.583 48.264 607.62 47.856 606.396C47.448 605.172 47.244 603.778 47.244 602.214V590.246C47.244 588.659 47.448 587.265 47.856 586.064C48.2867 584.84 48.978 583.888 49.93 583.208C50.9047 582.528 52.1853 582.188 53.772 582.188C55.404 582.188 56.696 582.528 57.648 583.208C58.6227 583.888 59.314 584.84 59.722 586.064C60.1527 587.265 60.368 588.659 60.368 590.246V602.214C60.368 603.801 60.1527 605.206 59.722 606.43C59.314 607.654 58.634 608.617 57.682 609.32C56.73 610 55.4267 610.34 53.772 610.34ZM53.772 608.368C54.8373 608.368 55.6533 608.096 56.22 607.552C56.8093 607.008 57.2173 606.294 57.444 605.41C57.6933 604.503 57.818 603.506 57.818 602.418V590.076C57.818 588.965 57.6933 587.968 57.444 587.084C57.2173 586.177 56.8207 585.463 56.254 584.942C55.6873 584.421 54.86 584.16 53.772 584.16C52.7293 584.16 51.9133 584.421 51.324 584.942C50.7573 585.463 50.3493 586.177 50.1 587.084C49.8733 587.968 49.76 588.965 49.76 590.076V602.418C49.76 603.506 49.8733 604.503 50.1 605.41C50.3493 606.294 50.7687 607.008 51.358 607.552C51.9473 608.096 52.752 608.368 53.772 608.368ZM70.7585 610.306C69.2851 610.306 68.0951 610.023 67.1885 609.456C66.3045 608.889 65.6585 608.051 65.2505 606.94C64.8425 605.829 64.6385 604.481 64.6385 602.894H67.1205C67.1205 604.005 67.2338 604.968 67.4605 605.784C67.6871 606.6 68.0725 607.223 68.6165 607.654C69.1605 608.085 69.9085 608.3 70.8605 608.3C71.9031 608.3 72.6965 608.039 73.2405 607.518C73.7845 606.974 74.1585 606.181 74.3625 605.138C74.5665 604.095 74.6685 602.815 74.6685 601.296C74.6685 599.619 74.5438 598.281 74.2945 597.284C74.0678 596.287 73.6711 595.573 73.1045 595.142C72.5605 594.689 71.8238 594.462 70.8945 594.462C70.1918 594.462 69.5345 594.655 68.9225 595.04C68.3105 595.425 67.7778 595.992 67.3245 596.74H65.2505V582.46H75.9605L75.9265 584.806H67.4605L67.3245 594.36C67.7325 593.839 68.2765 593.408 68.9565 593.068C69.6591 592.705 70.5205 592.524 71.5405 592.524C72.9005 592.524 73.9885 592.864 74.8045 593.544C75.6431 594.201 76.2438 595.165 76.6065 596.434C76.9691 597.703 77.1505 599.222 77.1505 600.99C77.1505 602.463 77.0371 603.778 76.8105 604.934C76.5838 606.09 76.2098 607.076 75.6885 607.892C75.1898 608.685 74.5325 609.286 73.7165 609.694C72.9231 610.102 71.9371 610.306 70.7585 610.306ZM80.8076 610V606.26H83.4256V610H80.8076ZM93.6822 610.34C92.0502 610.34 90.7582 609.989 89.8062 609.286C88.8542 608.583 88.1742 607.62 87.7662 606.396C87.3582 605.172 87.1542 603.778 87.1542 602.214V590.246C87.1542 588.659 87.3582 587.265 87.7662 586.064C88.1968 584.84 88.8882 583.888 89.8402 583.208C90.8148 582.528 92.0955 582.188 93.6822 582.188C95.3142 582.188 96.6062 582.528 97.5582 583.208C98.5328 583.888 99.2242 584.84 99.6322 586.064C100.063 587.265 100.278 588.659 100.278 590.246V602.214C100.278 603.801 100.063 605.206 99.6322 606.43C99.2242 607.654 98.5442 608.617 97.5922 609.32C96.6402 610 95.3368 610.34 93.6822 610.34ZM93.6822 608.368C94.7475 608.368 95.5635 608.096 96.1302 607.552C96.7195 607.008 97.1275 606.294 97.3542 605.41C97.6035 604.503 97.7282 603.506 97.7282 602.418V590.076C97.7282 588.965 97.6035 587.968 97.3542 587.084C97.1275 586.177 96.7308 585.463 96.1642 584.942C95.5975 584.421 94.7702 584.16 93.6822 584.16C92.6395 584.16 91.8235 584.421 91.2342 584.942C90.6675 585.463 90.2595 586.177 90.0102 587.084C89.7835 587.968 89.6702 588.965 89.6702 590.076V602.418C89.6702 603.506 89.7835 604.503 90.0102 605.41C90.2595 606.294 90.6788 607.008 91.2682 607.552C91.8575 608.096 92.6622 608.368 93.6822 608.368ZM110.669 610.306C109.195 610.306 108.005 610.023 107.099 609.456C106.215 608.889 105.569 608.051 105.161 606.94C104.753 605.829 104.549 604.481 104.549 602.894H107.031C107.031 604.005 107.144 604.968 107.371 605.784C107.597 606.6 107.983 607.223 108.527 607.654C109.071 608.085 109.819 608.3 110.771 608.3C111.813 608.3 112.607 608.039 113.151 607.518C113.695 606.974 114.069 606.181 114.273 605.138C114.477 604.095 114.579 602.815 114.579 601.296C114.579 599.619 114.454 598.281 114.205 597.284C113.978 596.287 113.581 595.573 113.015 595.142C112.471 594.689 111.734 594.462 110.805 594.462C110.102 594.462 109.445 594.655 108.833 595.04C108.221 595.425 107.688 595.992 107.235 596.74H105.161V582.46H115.871L115.837 584.806H107.371L107.235 594.36C107.643 593.839 108.187 593.408 108.867 593.068C109.569 592.705 110.431 592.524 111.451 592.524C112.811 592.524 113.899 592.864 114.715 593.544C115.553 594.201 116.154 595.165 116.517 596.434C116.879 597.703 117.061 599.222 117.061 600.99C117.061 602.463 116.947 603.778 116.721 604.934C116.494 606.09 116.12 607.076 115.599 607.892C115.1 608.685 114.443 609.286 113.627 609.694C112.833 610.102 111.847 610.306 110.669 610.306ZM53.568 660.34C52.1853 660.34 51.0293 660.102 50.1 659.626C49.1707 659.15 48.468 658.436 47.992 657.484C47.5387 656.509 47.3007 655.308 47.278 653.88C47.278 653.857 47.278 653.778 47.278 653.642C47.278 653.506 47.278 653.427 47.278 653.404H49.726C49.726 655.149 50.0093 656.396 50.576 657.144C51.1427 657.892 52.1513 658.266 53.602 658.266C54.3727 658.266 55.03 658.085 55.574 657.722C56.1407 657.359 56.5713 656.747 56.866 655.886C57.1607 655.002 57.308 653.823 57.308 652.35V647.148C56.968 647.556 56.424 647.93 55.676 648.27C54.9507 648.61 54.0213 648.78 52.888 648.78C51.3693 648.78 50.1793 648.497 49.318 647.93C48.4567 647.341 47.8447 646.445 47.482 645.244C47.1193 644.02 46.938 642.456 46.938 640.552C46.938 638.852 47.1533 637.379 47.584 636.132C48.0373 634.885 48.74 633.922 49.692 633.242C50.6667 632.539 51.936 632.188 53.5 632.188C54.996 632.188 56.2087 632.539 57.138 633.242C58.0673 633.922 58.7473 634.908 59.178 636.2C59.6087 637.469 59.824 638.999 59.824 640.79V651.772C59.824 653.449 59.62 654.934 59.212 656.226C58.8267 657.518 58.1807 658.527 57.274 659.252C56.3673 659.977 55.132 660.34 53.568 660.34ZM53.466 646.842C54.4407 646.842 55.2453 646.672 55.88 646.332C56.5147 645.969 56.9907 645.607 57.308 645.244V640.518C57.308 639.022 57.172 637.821 56.9 636.914C56.6507 635.985 56.2427 635.316 55.676 634.908C55.1093 634.477 54.384 634.262 53.5 634.262C52.616 634.262 51.868 634.477 51.256 634.908C50.6667 635.316 50.2247 635.951 49.93 636.812C49.6353 637.673 49.488 638.761 49.488 640.076C49.488 641.572 49.5673 642.83 49.726 643.85C49.9073 644.847 50.2813 645.595 50.848 646.094C51.4147 646.593 52.2873 646.842 53.466 646.842ZM78.0507 660V651.806C77.62 651.874 77.1667 651.953 76.6907 652.044C76.2373 652.112 75.7387 652.146 75.1947 652.146C74.2653 652.146 73.4267 652.01 72.6787 651.738C71.9533 651.443 71.3753 650.967 70.9447 650.31C70.5367 649.653 70.3327 648.757 70.3327 647.624V640.348H72.8147V647.692C72.8147 648.553 73.0413 649.211 73.4947 649.664C73.9707 650.117 74.7073 650.344 75.7047 650.344C76.1807 650.344 76.5887 650.31 76.9287 650.242C77.2913 650.174 77.6653 650.106 78.0507 650.038V640.348H80.5667V660H78.0507ZM87.7903 660.306C86.997 660.306 86.3057 660.113 85.7163 659.728C85.127 659.32 84.6623 658.787 84.3223 658.13C84.005 657.45 83.8463 656.713 83.8463 655.92C83.8463 654.923 83.9823 654.073 84.2543 653.37C84.549 652.667 85.0023 652.044 85.6143 651.5C86.249 650.933 87.065 650.389 88.0623 649.868C89.0823 649.324 90.3177 648.723 91.7683 648.066V646.672C91.7683 645.471 91.689 644.53 91.5303 643.85C91.3943 643.147 91.145 642.649 90.7823 642.354C90.4423 642.059 89.955 641.912 89.3203 641.912C88.799 641.912 88.3343 642.014 87.9263 642.218C87.5183 642.422 87.1897 642.773 86.9403 643.272C86.691 643.748 86.5663 644.417 86.5663 645.278V645.958L84.1183 645.924C84.141 643.929 84.5603 642.456 85.3763 641.504C86.215 640.529 87.575 640.042 89.4563 640.042C91.2243 640.042 92.4597 640.575 93.1623 641.64C93.8877 642.683 94.2503 644.315 94.2503 646.536V656.09C94.2503 656.43 94.2617 656.872 94.2843 657.416C94.307 657.937 94.3297 658.436 94.3523 658.912C94.375 659.388 94.3977 659.751 94.4203 660H92.2103C92.165 659.569 92.097 659.093 92.0063 658.572C91.9157 658.028 91.859 657.597 91.8363 657.28C91.5643 658.073 91.077 658.776 90.3743 659.388C89.6943 660 88.833 660.306 87.7903 660.306ZM88.5723 658.198C89.071 658.198 89.5243 658.073 89.9323 657.824C90.3403 657.575 90.703 657.28 91.0203 656.94C91.3377 656.577 91.587 656.215 91.7683 655.852V649.732C90.7937 650.231 89.955 650.684 89.2523 651.092C88.5723 651.5 88.017 651.897 87.5863 652.282C87.1557 652.667 86.8383 653.109 86.6343 653.608C86.4303 654.084 86.3283 654.651 86.3283 655.308C86.3283 656.351 86.555 657.099 87.0083 657.552C87.4617 657.983 87.983 658.198 88.5723 658.198ZM102.8 660.306C101.259 660.306 100.114 659.966 99.366 659.286C98.618 658.606 98.1193 657.688 97.87 656.532C97.6433 655.353 97.53 654.027 97.53 652.554V647.964C97.53 646.151 97.6773 644.666 97.972 643.51C98.2667 642.331 98.788 641.459 99.536 640.892C100.307 640.325 101.395 640.042 102.8 640.042C104.183 640.042 105.237 640.303 105.962 640.824C106.687 641.345 107.175 642.082 107.424 643.034C107.673 643.986 107.798 645.085 107.798 646.332V647.284H105.486V646.332C105.486 645.176 105.395 644.281 105.214 643.646C105.055 643.011 104.772 642.569 104.364 642.32C103.979 642.048 103.457 641.912 102.8 641.912C102.029 641.912 101.44 642.093 101.032 642.456C100.624 642.819 100.352 643.419 100.216 644.258C100.08 645.074 100.012 646.173 100.012 647.556V653.064C100.012 655.036 100.205 656.43 100.59 657.246C100.975 658.039 101.723 658.436 102.834 658.436C103.605 658.436 104.183 658.266 104.568 657.926C104.953 657.563 105.203 657.031 105.316 656.328C105.429 655.625 105.486 654.753 105.486 653.71V652.622H107.798V653.574C107.798 654.889 107.673 656.056 107.424 657.076C107.197 658.073 106.721 658.867 105.996 659.456C105.271 660.023 104.205 660.306 102.8 660.306ZM115.981 660.306C114.644 660.306 113.59 660.023 112.819 659.456C112.071 658.867 111.538 658.028 111.221 656.94C110.904 655.829 110.745 654.481 110.745 652.894V647.454C110.745 645.867 110.904 644.53 111.221 643.442C111.538 642.331 112.071 641.493 112.819 640.926C113.59 640.337 114.644 640.042 115.981 640.042C117.364 640.042 118.429 640.337 119.177 640.926C119.925 641.493 120.458 642.331 120.775 643.442C121.092 644.53 121.251 645.867 121.251 647.454V652.894C121.251 654.481 121.092 655.829 120.775 656.94C120.458 658.028 119.925 658.867 119.177 659.456C118.429 660.023 117.364 660.306 115.981 660.306ZM115.981 658.436C116.842 658.436 117.466 658.209 117.851 657.756C118.259 657.303 118.508 656.668 118.599 655.852C118.69 655.013 118.735 654.073 118.735 653.03V647.318C118.735 646.253 118.69 645.323 118.599 644.53C118.508 643.714 118.259 643.079 117.851 642.626C117.466 642.15 116.842 641.912 115.981 641.912C115.12 641.912 114.496 642.15 114.111 642.626C113.726 643.079 113.488 643.714 113.397 644.53C113.306 645.323 113.261 646.253 113.261 647.318V653.03C113.261 654.073 113.306 655.013 113.397 655.852C113.488 656.668 113.726 657.303 114.111 657.756C114.496 658.209 115.12 658.436 115.981 658.436ZM124.699 660V640.348H129.459C130.751 640.348 131.748 640.575 132.451 641.028C133.176 641.481 133.698 642.071 134.015 642.796C134.332 643.499 134.491 644.258 134.491 645.074C134.491 645.958 134.321 646.808 133.981 647.624C133.641 648.417 132.972 648.984 131.975 649.324C132.746 649.528 133.335 649.891 133.743 650.412C134.174 650.911 134.48 651.5 134.661 652.18C134.842 652.86 134.933 653.574 134.933 654.322C134.933 655.433 134.786 656.419 134.491 657.28C134.196 658.141 133.675 658.81 132.927 659.286C132.179 659.762 131.114 660 129.731 660H124.699ZM127.147 658.096H129.289C130.06 658.096 130.672 657.949 131.125 657.654C131.601 657.359 131.941 656.929 132.145 656.362C132.372 655.773 132.485 655.059 132.485 654.22C132.485 653.177 132.349 652.395 132.077 651.874C131.828 651.33 131.476 650.956 131.023 650.752C130.592 650.548 130.071 650.446 129.459 650.446H127.147V658.096ZM127.147 648.644H129.629C130.4 648.644 131.023 648.361 131.499 647.794C131.975 647.227 132.213 646.4 132.213 645.312C132.213 644.292 131.952 643.533 131.431 643.034C130.932 642.513 130.184 642.252 129.187 642.252H127.147V648.644ZM138.253 663.944L137.709 662.856C138.321 662.516 138.74 662.119 138.967 661.666C139.216 661.235 139.341 660.68 139.341 660H137.879V656.294H140.633V659.728C140.633 660.839 140.452 661.711 140.089 662.346C139.726 662.981 139.114 663.513 138.253 663.944ZM166.06 660V651.942H157.764V649.426L165.584 632.46H168.508V649.698H171.67V651.942H168.508V660H166.06ZM160.28 649.698H166.06V635.758L160.28 649.698ZM181.267 660.34C179.885 660.34 178.729 660.102 177.799 659.626C176.87 659.15 176.167 658.436 175.691 657.484C175.238 656.509 175 655.308 174.977 653.88C174.977 653.857 174.977 653.778 174.977 653.642C174.977 653.506 174.977 653.427 174.977 653.404H177.425C177.425 655.149 177.709 656.396 178.275 657.144C178.842 657.892 179.851 658.266 181.301 658.266C182.072 658.266 182.729 658.085 183.273 657.722C183.84 657.359 184.271 656.747 184.565 655.886C184.86 655.002 185.007 653.823 185.007 652.35V647.148C184.667 647.556 184.123 647.93 183.375 648.27C182.65 648.61 181.721 648.78 180.587 648.78C179.069 648.78 177.879 648.497 177.017 647.93C176.156 647.341 175.544 646.445 175.181 645.244C174.819 644.02 174.637 642.456 174.637 640.552C174.637 638.852 174.853 637.379 175.283 636.132C175.737 634.885 176.439 633.922 177.391 633.242C178.366 632.539 179.635 632.188 181.199 632.188C182.695 632.188 183.908 632.539 184.837 633.242C185.767 633.922 186.447 634.908 186.877 636.2C187.308 637.469 187.523 638.999 187.523 640.79V651.772C187.523 653.449 187.319 654.934 186.911 656.226C186.526 657.518 185.88 658.527 184.973 659.252C184.067 659.977 182.831 660.34 181.267 660.34ZM181.165 646.842C182.14 646.842 182.945 646.672 183.579 646.332C184.214 645.969 184.69 645.607 185.007 645.244V640.518C185.007 639.022 184.871 637.821 184.599 636.914C184.35 635.985 183.942 635.316 183.375 634.908C182.809 634.477 182.083 634.262 181.199 634.262C180.315 634.262 179.567 634.477 178.955 634.908C178.366 635.316 177.924 635.951 177.629 636.812C177.335 637.673 177.187 638.761 177.187 640.076C177.187 641.572 177.267 642.83 177.425 643.85C177.607 644.847 177.981 645.595 178.547 646.094C179.114 646.593 179.987 646.842 181.165 646.842ZM198.44 660L198.61 640.348H200.48L205.07 653.846L209.66 640.348H211.598L211.768 660H209.626L209.592 646.196L205.478 657.96H204.696L200.616 646.264L200.582 660H198.44ZM215.41 660V640.348H217.518V655.478L224.08 640.348H226.086V660H223.978V644.904L217.484 660H215.41ZM229.886 660V640.348H232.368V648.916H238.488V640.348H241.004V660H238.488V650.786H232.368V660H229.886ZM244.251 664.896V662.958C245.384 662.958 246.234 662.867 246.801 662.686C247.39 662.527 247.775 662.289 247.957 661.972C248.161 661.677 248.263 661.326 248.263 660.918C248.263 660.555 248.195 660.079 248.059 659.49C247.923 658.901 247.775 658.289 247.617 657.654L243.571 640.348H246.053L249.453 657.076L252.751 640.348H255.267L250.507 661.394C250.325 662.233 249.997 662.901 249.521 663.4C249.067 663.921 248.455 664.295 247.685 664.522C246.937 664.771 246.007 664.896 244.897 664.896H244.251ZM260.328 660V642.252H256.078V640.348H266.992V642.252H262.81V660H260.328ZM46.36 714.896V712.958C47.4933 712.958 48.3433 712.867 48.91 712.686C49.4993 712.527 49.8847 712.289 50.066 711.972C50.27 711.677 50.372 711.326 50.372 710.918C50.372 710.555 50.304 710.079 50.168 709.49C50.032 708.901 49.8847 708.289 49.726 707.654L45.68 690.348H48.162L51.562 707.076L54.86 690.348H57.376L52.616 711.394C52.4347 712.233 52.106 712.901 51.63 713.4C51.1767 713.921 50.5647 714.295 49.794 714.522C49.046 714.771 48.1167 714.896 47.006 714.896H46.36ZM57.4599 710.17V708.266C58.1173 708.243 58.6499 708.107 59.0579 707.858C59.4886 707.609 59.8286 707.167 60.0779 706.532C60.3499 705.875 60.5653 704.945 60.7239 703.744C60.9053 702.543 61.0639 701.001 61.1999 699.12L61.8119 690.348H70.7879V710H68.3059V692.252H63.9879L63.5119 699.12C63.3533 701.341 63.1606 703.166 62.9339 704.594C62.7073 706.022 62.3786 707.144 61.9479 707.96C61.5399 708.776 60.9959 709.354 60.3159 709.694C59.6586 710.011 58.8313 710.17 57.8339 710.17H57.4599ZM74.6982 710V706.26H77.3162V710H74.6982ZM86.2842 710.034V708.062C86.9416 708.039 87.4969 707.971 87.9502 707.858C88.4036 707.722 88.7776 707.439 89.0722 707.008C89.3896 706.577 89.6502 705.875 89.8542 704.9C90.0809 703.925 90.2849 702.588 90.4662 700.888C90.6702 699.188 90.8742 697.012 91.0782 694.36L91.8942 682.46H102.604V710H99.9862V684.432H94.2062L93.5602 694.36C93.3562 696.967 93.1522 699.188 92.9482 701.024C92.7669 702.837 92.5289 704.345 92.2342 705.546C91.9396 706.725 91.5429 707.654 91.0442 708.334C90.5682 708.991 89.9449 709.445 89.1742 709.694C88.4036 709.943 87.4402 710.057 86.2842 710.034ZM111.832 710.306C110.608 710.306 109.599 710.068 108.806 709.592C108.035 709.093 107.457 708.277 107.072 707.144C106.709 706.011 106.528 704.503 106.528 702.622V697.658C106.528 695.709 106.721 694.19 107.106 693.102C107.491 691.991 108.081 691.209 108.874 690.756C109.667 690.28 110.665 690.042 111.866 690.042C113.249 690.042 114.303 690.337 115.028 690.926C115.753 691.515 116.252 692.411 116.524 693.612C116.819 694.791 116.966 696.309 116.966 698.168V699.936H109.01V703.37C109.01 704.639 109.101 705.648 109.282 706.396C109.486 707.121 109.792 707.643 110.2 707.96C110.631 708.277 111.175 708.436 111.832 708.436C112.331 708.436 112.784 708.345 113.192 708.164C113.6 707.96 113.917 707.586 114.144 707.042C114.393 706.475 114.518 705.682 114.518 704.662V703.302H116.932V704.39C116.932 706.181 116.558 707.62 115.81 708.708C115.085 709.773 113.759 710.306 111.832 710.306ZM109.01 698.508H114.518V696.876C114.518 695.833 114.461 694.949 114.348 694.224C114.235 693.476 113.985 692.909 113.6 692.524C113.237 692.116 112.648 691.912 111.832 691.912C111.152 691.912 110.597 692.059 110.166 692.354C109.758 692.649 109.463 693.181 109.282 693.952C109.101 694.7 109.01 695.777 109.01 697.182V698.508ZM125.212 710.306C123.671 710.306 122.526 709.966 121.778 709.286C121.03 708.606 120.531 707.688 120.282 706.532C120.055 705.353 119.942 704.027 119.942 702.554V697.964C119.942 696.151 120.089 694.666 120.384 693.51C120.679 692.331 121.2 691.459 121.948 690.892C122.719 690.325 123.807 690.042 125.212 690.042C126.595 690.042 127.649 690.303 128.374 690.824C129.099 691.345 129.587 692.082 129.836 693.034C130.085 693.986 130.21 695.085 130.21 696.332V697.284H127.898V696.332C127.898 695.176 127.807 694.281 127.626 693.646C127.467 693.011 127.184 692.569 126.776 692.32C126.391 692.048 125.869 691.912 125.212 691.912C124.441 691.912 123.852 692.093 123.444 692.456C123.036 692.819 122.764 693.419 122.628 694.258C122.492 695.074 122.424 696.173 122.424 697.556V703.064C122.424 705.036 122.617 706.43 123.002 707.246C123.387 708.039 124.135 708.436 125.246 708.436C126.017 708.436 126.595 708.266 126.98 707.926C127.365 707.563 127.615 707.031 127.728 706.328C127.841 705.625 127.898 704.753 127.898 703.71V702.622H130.21V703.574C130.21 704.889 130.085 706.056 129.836 707.076C129.609 708.073 129.133 708.867 128.408 709.456C127.683 710.023 126.617 710.306 125.212 710.306ZM133.531 710V690.348H136.013V698.916H142.133V690.348H144.649V710H142.133V700.786H136.013V710H133.531ZM151.839 710.306C151.046 710.306 150.354 710.113 149.765 709.728C149.176 709.32 148.711 708.787 148.371 708.13C148.054 707.45 147.895 706.713 147.895 705.92C147.895 704.923 148.031 704.073 148.303 703.37C148.598 702.667 149.051 702.044 149.663 701.5C150.298 700.933 151.114 700.389 152.111 699.868C153.131 699.324 154.366 698.723 155.817 698.066V696.672C155.817 695.471 155.738 694.53 155.579 693.85C155.443 693.147 155.194 692.649 154.831 692.354C154.491 692.059 154.004 691.912 153.369 691.912C152.848 691.912 152.383 692.014 151.975 692.218C151.567 692.422 151.238 692.773 150.989 693.272C150.74 693.748 150.615 694.417 150.615 695.278V695.958L148.167 695.924C148.19 693.929 148.609 692.456 149.425 691.504C150.264 690.529 151.624 690.042 153.505 690.042C155.273 690.042 156.508 690.575 157.211 691.64C157.936 692.683 158.299 694.315 158.299 696.536V706.09C158.299 706.43 158.31 706.872 158.333 707.416C158.356 707.937 158.378 708.436 158.401 708.912C158.424 709.388 158.446 709.751 158.469 710H156.259C156.214 709.569 156.146 709.093 156.055 708.572C155.964 708.028 155.908 707.597 155.885 707.28C155.613 708.073 155.126 708.776 154.423 709.388C153.743 710 152.882 710.306 151.839 710.306ZM152.621 708.198C153.12 708.198 153.573 708.073 153.981 707.824C154.389 707.575 154.752 707.28 155.069 706.94C155.386 706.577 155.636 706.215 155.817 705.852V699.732C154.842 700.231 154.004 700.684 153.301 701.092C152.621 701.5 152.066 701.897 151.635 702.282C151.204 702.667 150.887 703.109 150.683 703.608C150.479 704.084 150.377 704.651 150.377 705.308C150.377 706.351 150.604 707.099 151.057 707.552C151.51 707.983 152.032 708.198 152.621 708.198ZM160.593 710L164.469 701.5C163.766 701.205 163.211 700.786 162.803 700.242C162.395 699.675 162.1 699.041 161.919 698.338C161.76 697.613 161.681 696.876 161.681 696.128C161.681 695.312 161.771 694.553 161.953 693.85C162.157 693.125 162.497 692.513 162.973 692.014C163.449 691.493 164.117 691.085 164.979 690.79C165.863 690.495 166.985 690.348 168.345 690.348H171.847V710H169.365V702.044C168.843 702.044 168.367 702.044 167.937 702.044C167.529 702.021 167.143 701.987 166.781 701.942L163.279 710H160.593ZM168.481 700.514C168.503 700.514 168.617 700.514 168.821 700.514C169.025 700.514 169.206 700.514 169.365 700.514V691.878C169.138 691.878 168.9 691.878 168.651 691.878C168.401 691.878 168.265 691.878 168.243 691.878C167.041 691.878 166.135 692.059 165.523 692.422C164.911 692.785 164.491 693.283 164.265 693.918C164.061 694.53 163.959 695.267 163.959 696.128C163.959 697.601 164.287 698.701 164.945 699.426C165.625 700.129 166.803 700.491 168.481 700.514ZM182.605 710V690.348H193.111V710H190.629V692.286H185.087V710H182.605ZM201.745 710.306C200.407 710.306 199.353 710.023 198.583 709.456C197.835 708.867 197.302 708.028 196.985 706.94C196.667 705.829 196.509 704.481 196.509 702.894V697.454C196.509 695.867 196.667 694.53 196.985 693.442C197.302 692.331 197.835 691.493 198.583 690.926C199.353 690.337 200.407 690.042 201.745 690.042C203.127 690.042 204.193 690.337 204.941 690.926C205.689 691.493 206.221 692.331 206.539 693.442C206.856 694.53 207.015 695.867 207.015 697.454V702.894C207.015 704.481 206.856 705.829 206.539 706.94C206.221 708.028 205.689 708.867 204.941 709.456C204.193 710.023 203.127 710.306 201.745 710.306ZM201.745 708.436C202.606 708.436 203.229 708.209 203.615 707.756C204.023 707.303 204.272 706.668 204.363 705.852C204.453 705.013 204.499 704.073 204.499 703.03V697.318C204.499 696.253 204.453 695.323 204.363 694.53C204.272 693.714 204.023 693.079 203.615 692.626C203.229 692.15 202.606 691.912 201.745 691.912C200.883 691.912 200.26 692.15 199.875 692.626C199.489 693.079 199.251 693.714 199.161 694.53C199.07 695.323 199.025 696.253 199.025 697.318V703.03C199.025 704.073 199.07 705.013 199.161 705.852C199.251 706.668 199.489 707.303 199.875 707.756C200.26 708.209 200.883 708.436 201.745 708.436ZM208.7 710.17V708.266C209.358 708.243 209.89 708.107 210.298 707.858C210.729 707.609 211.069 707.167 211.318 706.532C211.59 705.875 211.806 704.945 211.964 703.744C212.146 702.543 212.304 701.001 212.44 699.12L213.052 690.348H222.028V710H219.546V692.252H215.228L214.752 699.12C214.594 701.341 214.401 703.166 214.174 704.594C213.948 706.022 213.619 707.144 213.188 707.96C212.78 708.776 212.236 709.354 211.556 709.694C210.899 710.011 210.072 710.17 209.074 710.17H208.7ZM224.442 710L228.318 701.5C227.616 701.205 227.06 700.786 226.652 700.242C226.244 699.675 225.95 699.041 225.768 698.338C225.61 697.613 225.53 696.876 225.53 696.128C225.53 695.312 225.621 694.553 225.802 693.85C226.006 693.125 226.346 692.513 226.822 692.014C227.298 691.493 227.967 691.085 228.828 690.79C229.712 690.495 230.834 690.348 232.194 690.348H235.696V710H233.214V702.044C232.693 702.044 232.217 702.044 231.786 702.044C231.378 702.021 230.993 701.987 230.63 701.942L227.128 710H224.442ZM232.33 700.514C232.353 700.514 232.466 700.514 232.67 700.514C232.874 700.514 233.056 700.514 233.214 700.514V691.878C232.988 691.878 232.75 691.878 232.5 691.878C232.251 691.878 232.115 691.878 232.092 691.878C230.891 691.878 229.984 692.059 229.372 692.422C228.76 692.785 228.341 693.283 228.114 693.918C227.91 694.53 227.808 695.267 227.808 696.128C227.808 697.601 228.137 698.701 228.794 699.426C229.474 700.129 230.653 700.491 232.33 700.514ZM239.515 710V690.348H241.997V698.916H248.117V690.348H250.633V710H248.117V700.786H241.997V710H239.515ZM257.824 710.306C257.03 710.306 256.339 710.113 255.75 709.728C255.16 709.32 254.696 708.787 254.356 708.13C254.038 707.45 253.88 706.713 253.88 705.92C253.88 704.923 254.016 704.073 254.288 703.37C254.582 702.667 255.036 702.044 255.648 701.5C256.282 700.933 257.098 700.389 258.096 699.868C259.116 699.324 260.351 698.723 261.802 698.066V696.672C261.802 695.471 261.722 694.53 261.564 693.85C261.428 693.147 261.178 692.649 260.816 692.354C260.476 692.059 259.988 691.912 259.354 691.912C258.832 691.912 258.368 692.014 257.96 692.218C257.552 692.422 257.223 692.773 256.974 693.272C256.724 693.748 256.6 694.417 256.6 695.278V695.958L254.152 695.924C254.174 693.929 254.594 692.456 255.41 691.504C256.248 690.529 257.608 690.042 259.49 690.042C261.258 690.042 262.493 690.575 263.196 691.64C263.921 692.683 264.284 694.315 264.284 696.536V706.09C264.284 706.43 264.295 706.872 264.318 707.416C264.34 707.937 264.363 708.436 264.386 708.912C264.408 709.388 264.431 709.751 264.454 710H262.244C262.198 709.569 262.13 709.093 262.04 708.572C261.949 708.028 261.892 707.597 261.87 707.28C261.598 708.073 261.11 708.776 260.408 709.388C259.728 710 258.866 710.306 257.824 710.306ZM258.606 708.198C259.104 708.198 259.558 708.073 259.966 707.824C260.374 707.575 260.736 707.28 261.054 706.94C261.371 706.577 261.62 706.215 261.802 705.852V699.732C260.827 700.231 259.988 700.684 259.286 701.092C258.606 701.5 258.05 701.897 257.62 702.282C257.189 702.667 256.872 703.109 256.668 703.608C256.464 704.084 256.362 704.651 256.362 705.308C256.362 706.351 256.588 707.099 257.042 707.552C257.495 707.983 258.016 708.198 258.606 708.198ZM268.243 713.944L267.699 712.856C268.311 712.516 268.731 712.119 268.957 711.666C269.207 711.235 269.331 710.68 269.331 710H267.869V706.294H270.623V709.728C270.623 710.839 270.442 711.711 270.079 712.346C269.717 712.981 269.105 713.513 268.243 713.944ZM45.34 764.726V758.3C45.9293 757.915 46.4507 757.427 46.904 756.838C47.3573 756.226 47.754 755.421 48.094 754.424C48.434 753.427 48.7173 752.157 48.944 750.616C49.1707 749.075 49.3407 747.182 49.454 744.938L49.76 740.348H57.954V758.198H59.926V764.726H58.056L57.852 760H47.448L47.21 764.726H45.34ZM47.924 758.198H55.54V742.184H51.766L51.46 745.448C51.324 747.601 51.1653 749.415 50.984 750.888C50.8027 752.361 50.576 753.574 50.304 754.526C50.032 755.478 49.692 756.249 49.284 756.838C48.8987 757.405 48.4453 757.858 47.924 758.198ZM67.3715 760.306C66.0341 760.306 64.9801 760.023 64.2095 759.456C63.4615 758.867 62.9288 758.028 62.6115 756.94C62.2941 755.829 62.1355 754.481 62.1355 752.894V747.454C62.1355 745.867 62.2941 744.53 62.6115 743.442C62.9288 742.331 63.4615 741.493 64.2095 740.926C64.9801 740.337 66.0341 740.042 67.3715 740.042C68.7541 740.042 69.8195 740.337 70.5675 740.926C71.3155 741.493 71.8481 742.331 72.1655 743.442C72.4828 744.53 72.6415 745.867 72.6415 747.454V752.894C72.6415 754.481 72.4828 755.829 72.1655 756.94C71.8481 758.028 71.3155 758.867 70.5675 759.456C69.8195 760.023 68.7541 760.306 67.3715 760.306ZM67.3715 758.436C68.2328 758.436 68.8561 758.209 69.2415 757.756C69.6495 757.303 69.8988 756.668 69.9895 755.852C70.0801 755.013 70.1255 754.073 70.1255 753.03V747.318C70.1255 746.253 70.0801 745.323 69.9895 744.53C69.8988 743.714 69.6495 743.079 69.2415 742.626C68.8561 742.15 68.2328 741.912 67.3715 741.912C66.5101 741.912 65.8868 742.15 65.5015 742.626C65.1161 743.079 64.8781 743.714 64.7875 744.53C64.6968 745.323 64.6515 746.253 64.6515 747.318V753.03C64.6515 754.073 64.6968 755.013 64.7875 755.852C64.8781 756.668 65.1161 757.303 65.5015 757.756C65.8868 758.209 66.5101 758.436 67.3715 758.436ZM75.9535 760L76.1235 740.348H77.9935L82.5835 753.846L87.1735 740.348H89.1115L89.2815 760H87.1395L87.1055 746.196L82.9915 757.96H82.2095L78.1295 746.264L78.0955 760H75.9535ZM99.863 760V740.348H102.345V748.916H108.465V740.348H110.981V760H108.465V750.786H102.345V760H99.863ZM118.171 760.306C117.378 760.306 116.687 760.113 116.097 759.728C115.508 759.32 115.043 758.787 114.703 758.13C114.386 757.45 114.227 756.713 114.227 755.92C114.227 754.923 114.363 754.073 114.635 753.37C114.93 752.667 115.383 752.044 115.995 751.5C116.63 750.933 117.446 750.389 118.443 749.868C119.463 749.324 120.699 748.723 122.149 748.066V746.672C122.149 745.471 122.07 744.53 121.911 743.85C121.775 743.147 121.526 742.649 121.163 742.354C120.823 742.059 120.336 741.912 119.701 741.912C119.18 741.912 118.715 742.014 118.307 742.218C117.899 742.422 117.571 742.773 117.321 743.272C117.072 743.748 116.947 744.417 116.947 745.278V745.958L114.499 745.924C114.522 743.929 114.941 742.456 115.757 741.504C116.596 740.529 117.956 740.042 119.837 740.042C121.605 740.042 122.841 740.575 123.543 741.64C124.269 742.683 124.631 744.315 124.631 746.536V756.09C124.631 756.43 124.643 756.872 124.665 757.416C124.688 757.937 124.711 758.436 124.733 758.912C124.756 759.388 124.779 759.751 124.801 760H122.591C122.546 759.569 122.478 759.093 122.387 758.572C122.297 758.028 122.24 757.597 122.217 757.28C121.945 758.073 121.458 758.776 120.755 759.388C120.075 760 119.214 760.306 118.171 760.306ZM118.953 758.198C119.452 758.198 119.905 758.073 120.313 757.824C120.721 757.575 121.084 757.28 121.401 756.94C121.719 756.577 121.968 756.215 122.149 755.852V749.732C121.175 750.231 120.336 750.684 119.633 751.092C118.953 751.5 118.398 751.897 117.967 752.282C117.537 752.667 117.219 753.109 117.015 753.608C116.811 754.084 116.709 754.651 116.709 755.308C116.709 756.351 116.936 757.099 117.389 757.552C117.843 757.983 118.364 758.198 118.953 758.198ZM135.224 760V740.348H137.706V749.018H139.1L143.588 740.348H146.172L141.378 749.834L146.308 760H143.724L139.1 750.548H137.706V760H135.224ZM147.862 764.896V762.958C148.995 762.958 149.845 762.867 150.412 762.686C151.001 762.527 151.387 762.289 151.568 761.972C151.772 761.677 151.874 761.326 151.874 760.918C151.874 760.555 151.806 760.079 151.67 759.49C151.534 758.901 151.387 758.289 151.228 757.654L147.182 740.348H149.664L153.064 757.076L156.362 740.348H158.878L154.118 761.394C153.937 762.233 153.608 762.901 153.132 763.4C152.679 763.921 152.067 764.295 151.296 764.522C150.548 764.771 149.619 764.896 148.508 764.896H147.862ZM161.355 766.46V740.348H163.837V741.98C164.245 741.481 164.755 741.039 165.367 740.654C165.979 740.246 166.727 740.042 167.611 740.042C168.563 740.042 169.323 740.269 169.889 740.722C170.479 741.153 170.932 741.742 171.249 742.49C171.567 743.238 171.782 744.077 171.895 745.006C172.009 745.935 172.065 746.887 172.065 747.862V752.01C172.065 753.687 171.929 755.149 171.657 756.396C171.385 757.62 170.898 758.583 170.195 759.286C169.515 759.966 168.563 760.306 167.339 760.306C166.546 760.306 165.855 760.102 165.265 759.694C164.699 759.286 164.223 758.867 163.837 758.436V766.46H161.355ZM166.965 758.334C167.713 758.334 168.269 758.096 168.631 757.62C169.017 757.144 169.266 756.441 169.379 755.512C169.515 754.56 169.583 753.415 169.583 752.078V747.862C169.583 746.593 169.515 745.527 169.379 744.666C169.266 743.782 169.017 743.113 168.631 742.66C168.246 742.207 167.668 741.98 166.897 741.98C166.263 741.98 165.673 742.15 165.129 742.49C164.608 742.83 164.177 743.17 163.837 743.51V756.906C164.2 757.291 164.642 757.631 165.163 757.926C165.707 758.198 166.308 758.334 166.965 758.334ZM175.533 760V740.348H178.015V748.338C178.06 748.338 178.174 748.338 178.355 748.338C178.536 748.338 178.718 748.338 178.899 748.338C179.103 748.338 179.205 748.338 179.205 748.338C180.542 748.338 181.642 748.485 182.503 748.78C183.364 749.052 184.044 749.449 184.543 749.97C185.042 750.469 185.393 751.081 185.597 751.806C185.801 752.509 185.903 753.302 185.903 754.186C185.903 755.025 185.801 755.807 185.597 756.532C185.393 757.235 185.03 757.847 184.509 758.368C184.01 758.867 183.308 759.263 182.401 759.558C181.517 759.853 180.384 760 179.001 760H175.533ZM178.015 758.436H179.001C180.27 758.436 181.234 758.266 181.891 757.926C182.548 757.563 183.002 757.076 183.251 756.464C183.5 755.829 183.625 755.07 183.625 754.186C183.625 753.347 183.512 752.611 183.285 751.976C183.058 751.341 182.628 750.843 181.993 750.48C181.358 750.095 180.395 749.902 179.103 749.902C179.08 749.902 178.944 749.902 178.695 749.902C178.468 749.902 178.242 749.902 178.015 749.902V758.436ZM188.748 760V740.348H190.856V755.478L197.418 740.348H199.424V760H197.316V744.904L190.822 760H188.748ZM201.864 760L206.522 749.732L202.102 740.348H204.55L207.916 747.556L211.146 740.348H213.662L209.072 750.004L213.73 760H211.35L207.678 752.282L204.244 760H201.864ZM223.08 760V740.348H225.562V748.916H231.682V740.348H234.198V760H231.682V750.786H225.562V760H223.08ZM242.85 760.306C241.513 760.306 240.459 760.023 239.688 759.456C238.94 758.867 238.407 758.028 238.09 756.94C237.773 755.829 237.614 754.481 237.614 752.894V747.454C237.614 745.867 237.773 744.53 238.09 743.442C238.407 742.331 238.94 741.493 239.688 740.926C240.459 740.337 241.513 740.042 242.85 740.042C244.233 740.042 245.298 740.337 246.046 740.926C246.794 741.493 247.327 742.331 247.644 743.442C247.961 744.53 248.12 745.867 248.12 747.454V752.894C248.12 754.481 247.961 755.829 247.644 756.94C247.327 758.028 246.794 758.867 246.046 759.456C245.298 760.023 244.233 760.306 242.85 760.306ZM242.85 758.436C243.711 758.436 244.335 758.209 244.72 757.756C245.128 757.303 245.377 756.668 245.468 755.852C245.559 755.013 245.604 754.073 245.604 753.03V747.318C245.604 746.253 245.559 745.323 245.468 744.53C245.377 743.714 245.128 743.079 244.72 742.626C244.335 742.15 243.711 741.912 242.85 741.912C241.989 741.912 241.365 742.15 240.98 742.626C240.595 743.079 240.357 743.714 240.266 744.53C240.175 745.323 240.13 746.253 240.13 747.318V753.03C240.13 754.073 240.175 755.013 240.266 755.852C240.357 756.668 240.595 757.303 240.98 757.756C241.365 758.209 241.989 758.436 242.85 758.436ZM249.7 760L255.242 749.936L249.972 740.348H252.386L257.316 749.766H257.622V740.348H259.696V749.766H260.002L264.898 740.348H267.278L262.042 749.936L267.55 760H265.238L260.002 750.242H259.696V760H257.622V750.242H257.282L252.046 760H249.7ZM269.597 760V740.348H272.079V749.018H273.473L277.961 740.348H280.545L275.751 749.834L280.681 760H278.097L273.473 750.548H272.079V760H269.597ZM286.179 760.306C285.386 760.306 284.694 760.113 284.105 759.728C283.516 759.32 283.051 758.787 282.711 758.13C282.394 757.45 282.235 756.713 282.235 755.92C282.235 754.923 282.371 754.073 282.643 753.37C282.938 752.667 283.391 752.044 284.003 751.5C284.638 750.933 285.454 750.389 286.451 749.868C287.471 749.324 288.706 748.723 290.157 748.066V746.672C290.157 745.471 290.078 744.53 289.919 743.85C289.783 743.147 289.534 742.649 289.171 742.354C288.831 742.059 288.344 741.912 287.709 741.912C287.188 741.912 286.723 742.014 286.315 742.218C285.907 742.422 285.578 742.773 285.329 743.272C285.08 743.748 284.955 744.417 284.955 745.278V745.958L282.507 745.924C282.53 743.929 282.949 742.456 283.765 741.504C284.604 740.529 285.964 740.042 287.845 740.042C289.613 740.042 290.848 740.575 291.551 741.64C292.276 742.683 292.639 744.315 292.639 746.536V756.09C292.639 756.43 292.65 756.872 292.673 757.416C292.696 757.937 292.718 758.436 292.741 758.912C292.764 759.388 292.786 759.751 292.809 760H290.599C290.554 759.569 290.486 759.093 290.395 758.572C290.304 758.028 290.248 757.597 290.225 757.28C289.953 758.073 289.466 758.776 288.763 759.388C288.083 760 287.222 760.306 286.179 760.306ZM286.961 758.198C287.46 758.198 287.913 758.073 288.321 757.824C288.729 757.575 289.092 757.28 289.409 756.94C289.726 756.577 289.976 756.215 290.157 755.852V749.732C289.182 750.231 288.344 750.684 287.641 751.092C286.961 751.5 286.406 751.897 285.975 752.282C285.544 752.667 285.227 753.109 285.023 753.608C284.819 754.084 284.717 754.651 284.717 755.308C284.717 756.351 284.944 757.099 285.397 757.552C285.85 757.983 286.372 758.198 286.961 758.198ZM294.933 760L299.591 749.732L295.171 740.348H297.619L300.985 747.556L304.215 740.348H306.731L302.141 750.004L306.799 760H304.419L300.747 752.282L297.313 760H294.933Z" fill="white"/>
<path d="M57.46 197.02V177H62.36V219H57.46V198.42H52.35V219H47.45V177H52.35V197.02H57.46ZM74.6805 209.13C74.6805 211.417 75.0072 212.957 75.6605 213.75C76.3605 214.543 77.2939 214.94 78.4605 214.94C80.4205 214.94 81.4705 212.56 81.6105 207.8L81.8205 199.61H82.8005L83.0105 208.01C83.1039 211.463 82.5672 214.287 81.4005 216.48C80.2339 218.627 78.5072 219.7 76.2205 219.7C74.0272 219.7 72.3939 219.07 71.3205 217.81C70.2939 216.55 69.7805 214.45 69.7805 211.51V185.82C69.7805 182.553 70.4572 180.15 71.8105 178.61C73.1639 177.07 74.9605 176.3 77.2005 176.3C79.2072 176.3 80.6772 176.953 81.6105 178.26C82.5905 179.52 83.0805 181.62 83.0805 184.56V195.76H74.6805V209.13ZM76.7105 181.06C75.9172 181.06 75.3805 181.387 75.1005 182.04C74.8205 182.693 74.6805 183.72 74.6805 185.12V194.78H78.8805V186.87C78.8805 184.49 78.7172 182.927 78.3905 182.18C78.0639 181.433 77.5039 181.06 76.7105 181.06ZM103.251 214.45H105.351V225.79H103.951L101.641 219H92.1215L89.8115 225.79H88.4115V214.45H89.8815C90.3948 213.33 90.7682 211.603 91.0015 209.27C91.2815 206.937 91.4448 203.413 91.4915 198.7C91.5848 193.94 91.6315 186.707 91.6315 177H103.251V214.45ZM98.3515 214.45V181.55H93.3815C93.3815 191.257 93.3348 198.397 93.2415 202.97C93.1948 207.543 93.0548 211.37 92.8215 214.45H98.3515ZM115.589 209.13C115.589 211.417 115.915 212.957 116.569 213.75C117.269 214.543 118.202 214.94 119.369 214.94C121.329 214.94 122.379 212.56 122.519 207.8L122.729 199.61H123.709L123.919 208.01C124.012 211.463 123.475 214.287 122.309 216.48C121.142 218.627 119.415 219.7 117.129 219.7C114.935 219.7 113.302 219.07 112.229 217.81C111.202 216.55 110.689 214.45 110.689 211.51V185.82C110.689 182.553 111.365 180.15 112.719 178.61C114.072 177.07 115.869 176.3 118.109 176.3C120.115 176.3 121.585 176.953 122.519 178.26C123.499 179.52 123.989 181.62 123.989 184.56V195.76H115.589V209.13ZM117.619 181.06C116.825 181.06 116.289 181.387 116.009 182.04C115.729 182.693 115.589 183.72 115.589 185.12V194.78H119.789V186.87C119.789 184.49 119.625 182.927 119.299 182.18C118.972 181.433 118.412 181.06 117.619 181.06ZM144.09 219H139.19V181.55H134.22L134.36 210.04C134.36 214.193 134.313 217.18 134.22 219H129.32V213.96C130.346 213.213 131.07 211.79 131.49 209.69C131.91 207.59 132.166 204.277 132.26 199.75C132.4 195.177 132.47 187.593 132.47 177H144.09V219ZM166.655 219H161.755V202.2C159.142 202.2 157.695 203.227 157.415 205.28L155.455 219H150.485L153.705 202.06H158.325L158.395 201.29C153.822 200.73 151.535 197.883 151.535 192.75V185.82C151.535 182.693 152.282 180.453 153.775 179.1C155.315 177.7 157.625 177 160.705 177H166.655V219ZM156.435 194.85C156.435 198.397 157.765 200.17 160.425 200.17H161.755V181.76H161.195C159.422 181.76 158.185 182.18 157.485 183.02C156.785 183.813 156.435 185.33 156.435 187.57V194.85ZM199.593 177V181.55H194.623V219H189.723V181.55H184.683V177H199.593ZM219.84 181.97V207.8C219.84 211.953 219.304 214.987 218.23 216.9C217.204 218.767 215.57 219.7 213.33 219.7C211.79 219.7 210.18 218.93 208.5 217.39L208.08 217.81L209.83 219.63V228.1H204.93V177H209.76V177.77L208.15 188.41L208.85 188.55C209.504 183.743 210.367 180.5 211.44 178.82C212.514 177.14 213.82 176.3 215.36 176.3C216.667 176.3 217.74 176.813 218.58 177.84C219.42 178.867 219.84 180.243 219.84 181.97ZM214.8 208.22V184.7C214.8 182.273 214.194 181.06 212.98 181.06C212.467 181.06 211.954 181.55 211.44 182.53C210.974 183.51 210.577 184.863 210.25 186.59C209.97 188.317 209.83 190.207 209.83 192.26V213.82C210.764 214.753 211.767 215.22 212.84 215.22C213.54 215.22 214.03 214.777 214.31 213.89C214.637 212.957 214.8 211.067 214.8 208.22ZM233.631 218.79C232.978 219.397 232.161 219.7 231.181 219.7C228.474 219.7 227.121 218.043 227.121 214.73V209.9C227.121 208.22 227.378 206.773 227.891 205.56C228.404 204.347 229.128 203.227 230.061 202.2C230.994 201.173 232.418 199.773 234.331 198L235.591 196.81V183.86C235.591 182.74 235.404 181.993 235.031 181.62C234.658 181.247 233.888 181.06 232.721 181.06C230.994 181.06 229.804 181.41 229.151 182.11C228.498 182.763 228.171 183.743 228.171 185.05C228.171 186.59 228.638 188.177 229.571 189.81C230.504 191.443 232.348 193.637 235.101 196.39H228.381C227.168 193.497 226.561 189.973 226.561 185.82C226.561 184.327 226.911 182.857 227.611 181.41C228.311 179.917 229.268 178.703 230.481 177.77C231.694 176.79 233.001 176.3 234.401 176.3C236.408 176.3 237.924 176.813 238.951 177.84C239.978 178.82 240.491 180.22 240.491 182.04V210.74C240.491 212.467 240.608 213.61 240.841 214.17C241.121 214.683 241.494 214.94 241.961 214.94C242.334 214.94 242.614 214.753 242.801 214.38C242.988 214.007 243.104 213.283 243.151 212.21L243.361 199.96H244.341L244.551 211.93C244.598 214.403 244.341 216.317 243.781 217.67C243.221 219.023 242.171 219.7 240.631 219.7C239.371 219.7 238.461 219.233 237.901 218.3C237.341 217.32 237.061 215.523 237.061 212.91C237.061 212.163 237.154 210.437 237.341 207.73L236.641 207.59C236.314 210.95 235.894 213.517 235.381 215.29C234.868 217.017 234.284 218.183 233.631 218.79ZM232.021 212.91C232.021 214.03 232.418 214.59 233.211 214.59C233.958 214.59 234.541 213.633 234.961 211.72C235.381 209.76 235.591 207.147 235.591 203.88V198.28C234.144 199.68 233.188 200.917 232.721 201.99C232.254 203.017 232.021 204.323 232.021 205.91V212.91ZM263.316 214.45H265.416V225.79H264.016L261.706 219H252.186L249.876 225.79H248.476V214.45H249.946C250.459 213.33 250.832 211.603 251.066 209.27C251.346 206.937 251.509 203.413 251.556 198.7C251.649 193.94 251.696 186.707 251.696 177H263.316V214.45ZM258.416 214.45V181.55H253.446C253.446 191.257 253.399 198.397 253.306 202.97C253.259 207.543 253.119 211.37 252.886 214.45H258.416ZM286.153 177V219H281.183L281.603 201.78L282.583 185.61H281.533L275.723 219H270.753V177H275.793L275.303 194.22L274.323 210.39H275.303L281.183 177H286.153ZM308.136 177V214.45H310.236V225.79H308.836L306.526 219H293.576V177H298.476V214.45H303.236V177H308.136ZM330.937 177V219H325.967L326.387 201.78L327.367 185.61H326.317L320.507 219H315.537V177H320.577L320.087 194.22L319.107 210.39H320.087L325.967 177H330.937ZM346.13 174.48C343.797 174.48 342 173.967 340.74 172.94C339.527 171.913 338.92 170.467 338.92 168.6V167.9H343.82L343.68 168.6C343.54 169.347 343.47 170.023 343.47 170.63C343.47 172.543 344.287 173.5 345.92 173.5C347.553 173.5 348.37 172.543 348.37 170.63C348.37 170.023 348.3 169.347 348.16 168.6L348.02 167.9H352.92V168.6C352.92 170.467 352.337 171.913 351.17 172.94C350.003 173.967 348.323 174.48 346.13 174.48ZM353.76 177V219H348.79L349.21 201.78L350.19 185.61H349.14L343.33 219H338.36V177H343.4L342.91 194.22L341.93 210.39H342.91L348.79 177H353.76Z" fill="white"/>
</svg>
