<svg width="572" height="800" viewBox="0 0 572 800" fill="none" xmlns="http://www.w3.org/2000/svg">
<rect width="572" height="800" rx="7" fill="#0500FF"/>
<path d="M50.814 84V58.466H45.612V56.46H58.464V58.466H53.398V84H50.814ZM65.8441 84.306C64.5068 84.306 63.4528 84.0227 62.6821 83.456C61.9341 82.8667 61.4015 82.028 61.0841 80.94C60.7668 79.8293 60.6081 78.4807 60.6081 76.894V71.454C60.6081 69.8673 60.7668 68.53 61.0841 67.442C61.4015 66.3313 61.9341 65.4927 62.6821 64.926C63.4528 64.3367 64.5068 64.042 65.8441 64.042C67.2268 64.042 68.2921 64.3367 69.0401 64.926C69.7881 65.4927 70.3208 66.3313 70.6381 67.442C70.9555 68.53 71.1141 69.8673 71.1141 71.454V76.894C71.1141 78.4807 70.9555 79.8293 70.6381 80.94C70.3208 82.028 69.7881 82.8667 69.0401 83.456C68.2921 84.0227 67.2268 84.306 65.8441 84.306ZM65.8441 82.436C66.7055 82.436 67.3288 82.2093 67.7141 81.756C68.1221 81.3027 68.3715 80.668 68.4621 79.852C68.5528 79.0133 68.5981 78.0727 68.5981 77.03V71.318C68.5981 70.2527 68.5528 69.3233 68.4621 68.53C68.3715 67.714 68.1221 67.0793 67.7141 66.626C67.3288 66.15 66.7055 65.912 65.8441 65.912C64.9828 65.912 64.3595 66.15 63.9741 66.626C63.5888 67.0793 63.3508 67.714 63.2601 68.53C63.1695 69.3233 63.1241 70.2527 63.1241 71.318V77.03C63.1241 78.0727 63.1695 79.0133 63.2601 79.852C63.3508 80.668 63.5888 81.3027 63.9741 81.756C64.3595 82.2093 64.9828 82.436 65.8441 82.436ZM72.7998 84.17V82.266C73.4571 82.2433 73.9898 82.1073 74.3978 81.858C74.8284 81.6087 75.1684 81.1667 75.4178 80.532C75.6898 79.8747 75.9051 78.9453 76.0638 77.744C76.2451 76.5427 76.4038 75.0013 76.5398 73.12L77.1518 64.348H86.1278V84H83.6458V66.252H79.3278L78.8518 73.12C78.6931 75.3413 78.5004 77.166 78.2738 78.594C78.0471 80.022 77.7184 81.144 77.2878 81.96C76.8798 82.776 76.3358 83.354 75.6558 83.694C74.9984 84.0113 74.1711 84.17 73.1738 84.17H72.7998ZM89.902 84V64.348H92.384V73.018H93.778L98.266 64.348H100.85L96.056 73.834L100.986 84H98.402L93.778 74.548H92.384V84H89.902ZM102.54 88.896V86.958C103.673 86.958 104.523 86.8673 105.09 86.686C105.679 86.5273 106.064 86.2893 106.246 85.972C106.45 85.6773 106.552 85.326 106.552 84.918C106.552 84.5553 106.484 84.0793 106.348 83.49C106.212 82.9007 106.064 82.2887 105.906 81.654L101.86 64.348H104.342L107.742 81.076L111.04 64.348H113.556L108.796 85.394C108.614 86.2327 108.286 86.9013 107.81 87.4C107.356 87.9213 106.744 88.2953 105.974 88.522C105.226 88.7713 104.296 88.896 103.186 88.896H102.54ZM120.963 84.306C119.739 84.306 118.73 84.068 117.937 83.592C117.166 83.0933 116.588 82.2773 116.203 81.144C115.84 80.0107 115.659 78.5033 115.659 76.622V71.658C115.659 69.7087 115.852 68.19 116.237 67.102C116.622 65.9913 117.212 65.2093 118.005 64.756C118.798 64.28 119.796 64.042 120.997 64.042C122.38 64.042 123.434 64.3367 124.159 64.926C124.884 65.5153 125.383 66.4107 125.655 67.612C125.95 68.7907 126.097 70.3093 126.097 72.168V73.936H118.141V77.37C118.141 78.6393 118.232 79.648 118.413 80.396C118.617 81.1213 118.923 81.6427 119.331 81.96C119.762 82.2773 120.306 82.436 120.963 82.436C121.462 82.436 121.915 82.3453 122.323 82.164C122.731 81.96 123.048 81.586 123.275 81.042C123.524 80.4753 123.649 79.682 123.649 78.662V77.302H126.063V78.39C126.063 80.1807 125.689 81.62 124.941 82.708C124.216 83.7733 122.89 84.306 120.963 84.306ZM118.141 72.508H123.649V70.876C123.649 69.8333 123.592 68.9493 123.479 68.224C123.366 67.476 123.116 66.9093 122.731 66.524C122.368 66.116 121.779 65.912 120.963 65.912C120.283 65.912 119.728 66.0593 119.297 66.354C118.889 66.6487 118.594 67.1813 118.413 67.952C118.232 68.7 118.141 69.7767 118.141 71.182V72.508ZM129.311 84L129.481 64.348H131.351L135.941 77.846L140.531 64.348H142.469L142.639 84H140.497L140.463 70.196L136.349 81.96H135.567L131.487 70.264L131.453 84H129.311ZM51.766 134.306C50.4287 134.306 49.3747 134.023 48.604 133.456C47.856 132.867 47.3233 132.028 47.006 130.94C46.6887 129.829 46.53 128.481 46.53 126.894V121.454C46.53 119.867 46.6887 118.53 47.006 117.442C47.3233 116.331 47.856 115.493 48.604 114.926C49.3747 114.337 50.4287 114.042 51.766 114.042C53.1487 114.042 54.214 114.337 54.962 114.926C55.71 115.493 56.2427 116.331 56.56 117.442C56.8773 118.53 57.036 119.867 57.036 121.454V126.894C57.036 128.481 56.8773 129.829 56.56 130.94C56.2427 132.028 55.71 132.867 54.962 133.456C54.214 134.023 53.1487 134.306 51.766 134.306ZM51.766 132.436C52.6273 132.436 53.2507 132.209 53.636 131.756C54.044 131.303 54.2933 130.668 54.384 129.852C54.4747 129.013 54.52 128.073 54.52 127.03V121.318C54.52 120.253 54.4747 119.323 54.384 118.53C54.2933 117.714 54.044 117.079 53.636 116.626C53.2507 116.15 52.6273 115.912 51.766 115.912C50.9047 115.912 50.2813 116.15 49.896 116.626C49.5107 117.079 49.2727 117.714 49.182 118.53C49.0913 119.323 49.046 120.253 49.046 121.318V127.03C49.046 128.073 49.0913 129.013 49.182 129.852C49.2727 130.668 49.5107 131.303 49.896 131.756C50.2813 132.209 50.9047 132.436 51.766 132.436ZM70.0075 134V116.252H65.7575V114.348H76.6715V116.252H72.4895V134H70.0075ZM83.475 134.306C82.1377 134.306 81.0837 134.023 80.313 133.456C79.565 132.867 79.0323 132.028 78.715 130.94C78.3977 129.829 78.239 128.481 78.239 126.894V121.454C78.239 119.867 78.3977 118.53 78.715 117.442C79.0323 116.331 79.565 115.493 80.313 114.926C81.0837 114.337 82.1377 114.042 83.475 114.042C84.8577 114.042 85.923 114.337 86.671 114.926C87.419 115.493 87.9517 116.331 88.269 117.442C88.5863 118.53 88.745 119.867 88.745 121.454V126.894C88.745 128.481 88.5863 129.829 88.269 130.94C87.9517 132.028 87.419 132.867 86.671 133.456C85.923 134.023 84.8577 134.306 83.475 134.306ZM83.475 132.436C84.3363 132.436 84.9597 132.209 85.345 131.756C85.753 131.303 86.0023 130.668 86.093 129.852C86.1837 129.013 86.229 128.073 86.229 127.03V121.318C86.229 120.253 86.1837 119.323 86.093 118.53C86.0023 117.714 85.753 117.079 85.345 116.626C84.9597 116.15 84.3363 115.912 83.475 115.912C82.6137 115.912 81.9903 116.15 81.605 116.626C81.2197 117.079 80.9817 117.714 80.891 118.53C80.8003 119.323 80.755 120.253 80.755 121.318V127.03C80.755 128.073 80.8003 129.013 80.891 129.852C80.9817 130.668 81.2197 131.303 81.605 131.756C81.9903 132.209 82.6137 132.436 83.475 132.436ZM92.0571 134L92.2271 114.348H94.0971L98.6871 127.846L103.277 114.348H105.215L105.385 134H103.243L103.209 120.196L99.0951 131.96H98.3131L94.2331 120.264L94.1991 134H92.0571ZM109.333 137.944L108.789 136.856C109.401 136.516 109.82 136.119 110.047 135.666C110.296 135.235 110.421 134.68 110.421 134H108.959V130.294H111.713V133.728C111.713 134.839 111.532 135.711 111.169 136.346C110.806 136.981 110.194 137.513 109.333 137.944ZM126.971 134.306C125.634 134.306 124.58 134.023 123.809 133.456C123.061 132.867 122.528 132.028 122.211 130.94C121.894 129.829 121.735 128.481 121.735 126.894V121.454C121.735 119.867 121.894 118.53 122.211 117.442C122.528 116.331 123.061 115.493 123.809 114.926C124.58 114.337 125.634 114.042 126.971 114.042C128.354 114.042 129.419 114.337 130.167 114.926C130.915 115.493 131.448 116.331 131.765 117.442C132.082 118.53 132.241 119.867 132.241 121.454V126.894C132.241 128.481 132.082 129.829 131.765 130.94C131.448 132.028 130.915 132.867 130.167 133.456C129.419 134.023 128.354 134.306 126.971 134.306ZM126.971 132.436C127.832 132.436 128.456 132.209 128.841 131.756C129.249 131.303 129.498 130.668 129.589 129.852C129.68 129.013 129.725 128.073 129.725 127.03V121.318C129.725 120.253 129.68 119.323 129.589 118.53C129.498 117.714 129.249 117.079 128.841 116.626C128.456 116.15 127.832 115.912 126.971 115.912C126.11 115.912 125.486 116.15 125.101 116.626C124.716 117.079 124.478 117.714 124.387 118.53C124.296 119.323 124.251 120.253 124.251 121.318V127.03C124.251 128.073 124.296 129.013 124.387 129.852C124.478 130.668 124.716 131.303 125.101 131.756C125.486 132.209 126.11 132.436 126.971 132.436ZM147.525 134.306C145.983 134.306 144.839 133.966 144.091 133.286C143.343 132.606 142.844 131.688 142.595 130.532C142.368 129.353 142.255 128.027 142.255 126.554V121.964C142.255 120.151 142.402 118.666 142.697 117.51C142.991 116.331 143.513 115.459 144.261 114.892C145.031 114.325 146.119 114.042 147.525 114.042C148.907 114.042 149.961 114.303 150.687 114.824C151.412 115.345 151.899 116.082 152.149 117.034C152.398 117.986 152.523 119.085 152.523 120.332V121.284H150.211V120.332C150.211 119.176 150.12 118.281 149.939 117.646C149.78 117.011 149.497 116.569 149.089 116.32C148.703 116.048 148.182 115.912 147.525 115.912C146.754 115.912 146.165 116.093 145.757 116.456C145.349 116.819 145.077 117.419 144.941 118.258C144.805 119.074 144.737 120.173 144.737 121.556V127.064C144.737 129.036 144.929 130.43 145.315 131.246C145.7 132.039 146.448 132.436 147.559 132.436C148.329 132.436 148.907 132.266 149.293 131.926C149.678 131.563 149.927 131.031 150.041 130.328C150.154 129.625 150.211 128.753 150.211 127.71V126.622H152.523V127.574C152.523 128.889 152.398 130.056 152.149 131.076C151.922 132.073 151.446 132.867 150.721 133.456C149.995 134.023 148.93 134.306 147.525 134.306ZM160.773 134.306C159.549 134.306 158.541 134.068 157.747 133.592C156.977 133.093 156.399 132.277 156.013 131.144C155.651 130.011 155.469 128.503 155.469 126.622V121.658C155.469 119.709 155.662 118.19 156.047 117.102C156.433 115.991 157.022 115.209 157.815 114.756C158.609 114.28 159.606 114.042 160.807 114.042C162.19 114.042 163.244 114.337 163.969 114.926C164.695 115.515 165.193 116.411 165.465 117.612C165.76 118.791 165.907 120.309 165.907 122.168V123.936H157.951V127.37C157.951 128.639 158.042 129.648 158.223 130.396C158.427 131.121 158.733 131.643 159.141 131.96C159.572 132.277 160.116 132.436 160.773 132.436C161.272 132.436 161.725 132.345 162.133 132.164C162.541 131.96 162.859 131.586 163.085 131.042C163.335 130.475 163.459 129.682 163.459 128.662V127.302H165.873V128.39C165.873 130.181 165.499 131.62 164.751 132.708C164.026 133.773 162.7 134.306 160.773 134.306ZM157.951 122.508H163.459V120.876C163.459 119.833 163.403 118.949 163.289 118.224C163.176 117.476 162.927 116.909 162.541 116.524C162.179 116.116 161.589 115.912 160.773 115.912C160.093 115.912 159.538 116.059 159.107 116.354C158.699 116.649 158.405 117.181 158.223 117.952C158.042 118.7 157.951 119.777 157.951 121.182V122.508ZM162.235 109.486V106.46H164.785V109.486H162.235ZM156.625 109.486V106.46H159.175V109.486H156.625ZM169.122 134L169.292 114.348H171.162L175.752 127.846L180.342 114.348H182.28L182.45 134H180.308L180.274 120.196L176.16 131.96H175.378L171.298 120.264L171.264 134H169.122Z" fill="white"/>
<path d="M53.772 610.34C52.14 610.34 50.848 609.989 49.896 609.286C48.944 608.583 48.264 607.62 47.856 606.396C47.448 605.172 47.244 603.778 47.244 602.214V590.246C47.244 588.659 47.448 587.265 47.856 586.064C48.2867 584.84 48.978 583.888 49.93 583.208C50.9047 582.528 52.1853 582.188 53.772 582.188C55.404 582.188 56.696 582.528 57.648 583.208C58.6227 583.888 59.314 584.84 59.722 586.064C60.1527 587.265 60.368 588.659 60.368 590.246V602.214C60.368 603.801 60.1527 605.206 59.722 606.43C59.314 607.654 58.634 608.617 57.682 609.32C56.73 610 55.4267 610.34 53.772 610.34ZM53.772 608.368C54.8373 608.368 55.6533 608.096 56.22 607.552C56.8093 607.008 57.2173 606.294 57.444 605.41C57.6933 604.503 57.818 603.506 57.818 602.418V590.076C57.818 588.965 57.6933 587.968 57.444 587.084C57.2173 586.177 56.8207 585.463 56.254 584.942C55.6873 584.421 54.86 584.16 53.772 584.16C52.7293 584.16 51.9133 584.421 51.324 584.942C50.7573 585.463 50.3493 586.177 50.1 587.084C49.8733 587.968 49.76 588.965 49.76 590.076V602.418C49.76 603.506 49.8733 604.503 50.1 605.41C50.3493 606.294 50.7687 607.008 51.358 607.552C51.9473 608.096 52.752 608.368 53.772 608.368ZM70.6565 610.34C69.2285 610.34 68.0611 610.068 67.1545 609.524C66.2478 608.957 65.5791 608.175 65.1485 607.178C64.7405 606.181 64.5365 605.002 64.5365 603.642V602.962H66.9505C66.9505 603.007 66.9505 603.098 66.9505 603.234C66.9505 603.37 66.9505 603.472 66.9505 603.54C66.9731 604.515 67.0978 605.365 67.3245 606.09C67.5511 606.793 67.9365 607.337 68.4805 607.722C69.0245 608.107 69.7498 608.3 70.6565 608.3C71.5178 608.3 72.2431 608.119 72.8325 607.756C73.4445 607.371 73.8978 606.747 74.1925 605.886C74.5098 605.025 74.6685 603.903 74.6685 602.52C74.6685 600.82 74.3625 599.437 73.7505 598.372C73.1385 597.284 72.0731 596.717 70.5545 596.672C70.5091 596.672 70.3958 596.672 70.2145 596.672C70.0331 596.672 69.9198 596.672 69.8745 596.672V594.292C69.9198 594.292 70.0331 594.292 70.2145 594.292C70.3958 594.292 70.5091 594.292 70.5545 594.292C72.0278 594.292 73.0818 593.884 73.7165 593.068C74.3511 592.229 74.6685 590.892 74.6685 589.056C74.6685 587.628 74.3965 586.461 73.8525 585.554C73.3311 584.647 72.3565 584.194 70.9285 584.194C69.5458 584.194 68.5371 584.591 67.9025 585.384C67.2905 586.155 66.9731 587.356 66.9505 588.988C66.9505 589.033 66.9505 589.113 66.9505 589.226C66.9505 589.317 66.9505 589.396 66.9505 589.464H64.5365V588.818C64.5365 587.458 64.7405 586.291 65.1485 585.316C65.5791 584.319 66.2705 583.548 67.2225 583.004C68.1745 582.46 69.3985 582.188 70.8945 582.188C72.3451 582.188 73.5351 582.483 74.4645 583.072C75.3938 583.661 76.0851 584.477 76.5385 585.52C76.9918 586.54 77.2185 587.719 77.2185 589.056C77.2185 590.983 76.8445 592.479 76.0965 593.544C75.3711 594.587 74.4305 595.244 73.2745 595.516C73.9545 595.697 74.5891 596.06 75.1785 596.604C75.7905 597.148 76.2778 597.907 76.6405 598.882C77.0258 599.834 77.2185 601.035 77.2185 602.486C77.2185 604.027 76.9918 605.399 76.5385 606.6C76.1078 607.779 75.4165 608.697 74.4645 609.354C73.5125 610.011 72.2431 610.34 70.6565 610.34ZM81.0068 610V606.26H83.6248V610H81.0068ZM93.8814 610.34C92.2494 610.34 90.9574 609.989 90.0054 609.286C89.0534 608.583 88.3734 607.62 87.9654 606.396C87.5574 605.172 87.3534 603.778 87.3534 602.214V590.246C87.3534 588.659 87.5574 587.265 87.9654 586.064C88.396 584.84 89.0874 583.888 90.0394 583.208C91.014 582.528 92.2947 582.188 93.8814 582.188C95.5134 582.188 96.8054 582.528 97.7574 583.208C98.732 583.888 99.4234 584.84 99.8314 586.064C100.262 587.265 100.477 588.659 100.477 590.246V602.214C100.477 603.801 100.262 605.206 99.8314 606.43C99.4234 607.654 98.7434 608.617 97.7914 609.32C96.8394 610 95.536 610.34 93.8814 610.34ZM93.8814 608.368C94.9467 608.368 95.7627 608.096 96.3294 607.552C96.9187 607.008 97.3267 606.294 97.5534 605.41C97.8027 604.503 97.9274 603.506 97.9274 602.418V590.076C97.9274 588.965 97.8027 587.968 97.5534 587.084C97.3267 586.177 96.93 585.463 96.3634 584.942C95.7967 584.421 94.9694 584.16 93.8814 584.16C92.8387 584.16 92.0227 584.421 91.4334 584.942C90.8667 585.463 90.4587 586.177 90.2094 587.084C89.9827 587.968 89.8694 588.965 89.8694 590.076V602.418C89.8694 603.506 89.9827 604.503 90.2094 605.41C90.4587 606.294 90.878 607.008 91.4674 607.552C92.0567 608.096 92.8614 608.368 93.8814 608.368ZM110.766 610.34C109.338 610.34 108.17 610.068 107.264 609.524C106.357 608.957 105.688 608.175 105.258 607.178C104.85 606.181 104.646 605.002 104.646 603.642V602.962H107.06C107.06 603.007 107.06 603.098 107.06 603.234C107.06 603.37 107.06 603.472 107.06 603.54C107.082 604.515 107.207 605.365 107.434 606.09C107.66 606.793 108.046 607.337 108.59 607.722C109.134 608.107 109.859 608.3 110.766 608.3C111.627 608.3 112.352 608.119 112.942 607.756C113.554 607.371 114.007 606.747 114.302 605.886C114.619 605.025 114.778 603.903 114.778 602.52C114.778 600.82 114.472 599.437 113.86 598.372C113.248 597.284 112.182 596.717 110.664 596.672C110.618 596.672 110.505 596.672 110.324 596.672C110.142 596.672 110.029 596.672 109.984 596.672V594.292C110.029 594.292 110.142 594.292 110.324 594.292C110.505 594.292 110.618 594.292 110.664 594.292C112.137 594.292 113.191 593.884 113.826 593.068C114.46 592.229 114.778 590.892 114.778 589.056C114.778 587.628 114.506 586.461 113.962 585.554C113.44 584.647 112.466 584.194 111.038 584.194C109.655 584.194 108.646 584.591 108.012 585.384C107.4 586.155 107.082 587.356 107.06 588.988C107.06 589.033 107.06 589.113 107.06 589.226C107.06 589.317 107.06 589.396 107.06 589.464H104.646V588.818C104.646 587.458 104.85 586.291 105.258 585.316C105.688 584.319 106.38 583.548 107.332 583.004C108.284 582.46 109.508 582.188 111.004 582.188C112.454 582.188 113.644 582.483 114.574 583.072C115.503 583.661 116.194 584.477 116.648 585.52C117.101 586.54 117.328 587.719 117.328 589.056C117.328 590.983 116.954 592.479 116.206 593.544C115.48 594.587 114.54 595.244 113.384 595.516C114.064 595.697 114.698 596.06 115.288 596.604C115.9 597.148 116.387 597.907 116.75 598.882C117.135 599.834 117.328 601.035 117.328 602.486C117.328 604.027 117.101 605.399 116.648 606.6C116.217 607.779 115.526 608.697 114.574 609.354C113.622 610.011 112.352 610.34 110.766 610.34ZM53.568 660.34C52.1853 660.34 51.0293 660.102 50.1 659.626C49.1707 659.15 48.468 658.436 47.992 657.484C47.5387 656.509 47.3007 655.308 47.278 653.88C47.278 653.857 47.278 653.778 47.278 653.642C47.278 653.506 47.278 653.427 47.278 653.404H49.726C49.726 655.149 50.0093 656.396 50.576 657.144C51.1427 657.892 52.1513 658.266 53.602 658.266C54.3727 658.266 55.03 658.085 55.574 657.722C56.1407 657.359 56.5713 656.747 56.866 655.886C57.1607 655.002 57.308 653.823 57.308 652.35V647.148C56.968 647.556 56.424 647.93 55.676 648.27C54.9507 648.61 54.0213 648.78 52.888 648.78C51.3693 648.78 50.1793 648.497 49.318 647.93C48.4567 647.341 47.8447 646.445 47.482 645.244C47.1193 644.02 46.938 642.456 46.938 640.552C46.938 638.852 47.1533 637.379 47.584 636.132C48.0373 634.885 48.74 633.922 49.692 633.242C50.6667 632.539 51.936 632.188 53.5 632.188C54.996 632.188 56.2087 632.539 57.138 633.242C58.0673 633.922 58.7473 634.908 59.178 636.2C59.6087 637.469 59.824 638.999 59.824 640.79V651.772C59.824 653.449 59.62 654.934 59.212 656.226C58.8267 657.518 58.1807 658.527 57.274 659.252C56.3673 659.977 55.132 660.34 53.568 660.34ZM53.466 646.842C54.4407 646.842 55.2453 646.672 55.88 646.332C56.5147 645.969 56.9907 645.607 57.308 645.244V640.518C57.308 639.022 57.172 637.821 56.9 636.914C56.6507 635.985 56.2427 635.316 55.676 634.908C55.1093 634.477 54.384 634.262 53.5 634.262C52.616 634.262 51.868 634.477 51.256 634.908C50.6667 635.316 50.2247 635.951 49.93 636.812C49.6353 637.673 49.488 638.761 49.488 640.076C49.488 641.572 49.5673 642.83 49.726 643.85C49.9073 644.847 50.2813 645.595 50.848 646.094C51.4147 646.593 52.2873 646.842 53.466 646.842ZM78.0507 660V651.806C77.62 651.874 77.1667 651.953 76.6907 652.044C76.2373 652.112 75.7387 652.146 75.1947 652.146C74.2653 652.146 73.4267 652.01 72.6787 651.738C71.9533 651.443 71.3753 650.967 70.9447 650.31C70.5367 649.653 70.3327 648.757 70.3327 647.624V640.348H72.8147V647.692C72.8147 648.553 73.0413 649.211 73.4947 649.664C73.9707 650.117 74.7073 650.344 75.7047 650.344C76.1807 650.344 76.5887 650.31 76.9287 650.242C77.2913 650.174 77.6653 650.106 78.0507 650.038V640.348H80.5667V660H78.0507ZM87.7903 660.306C86.997 660.306 86.3057 660.113 85.7163 659.728C85.127 659.32 84.6623 658.787 84.3223 658.13C84.005 657.45 83.8463 656.713 83.8463 655.92C83.8463 654.923 83.9823 654.073 84.2543 653.37C84.549 652.667 85.0023 652.044 85.6143 651.5C86.249 650.933 87.065 650.389 88.0623 649.868C89.0823 649.324 90.3177 648.723 91.7683 648.066V646.672C91.7683 645.471 91.689 644.53 91.5303 643.85C91.3943 643.147 91.145 642.649 90.7823 642.354C90.4423 642.059 89.955 641.912 89.3203 641.912C88.799 641.912 88.3343 642.014 87.9263 642.218C87.5183 642.422 87.1897 642.773 86.9403 643.272C86.691 643.748 86.5663 644.417 86.5663 645.278V645.958L84.1183 645.924C84.141 643.929 84.5603 642.456 85.3763 641.504C86.215 640.529 87.575 640.042 89.4563 640.042C91.2243 640.042 92.4597 640.575 93.1623 641.64C93.8877 642.683 94.2503 644.315 94.2503 646.536V656.09C94.2503 656.43 94.2617 656.872 94.2843 657.416C94.307 657.937 94.3297 658.436 94.3523 658.912C94.375 659.388 94.3977 659.751 94.4203 660H92.2103C92.165 659.569 92.097 659.093 92.0063 658.572C91.9157 658.028 91.859 657.597 91.8363 657.28C91.5643 658.073 91.077 658.776 90.3743 659.388C89.6943 660 88.833 660.306 87.7903 660.306ZM88.5723 658.198C89.071 658.198 89.5243 658.073 89.9323 657.824C90.3403 657.575 90.703 657.28 91.0203 656.94C91.3377 656.577 91.587 656.215 91.7683 655.852V649.732C90.7937 650.231 89.955 650.684 89.2523 651.092C88.5723 651.5 88.017 651.897 87.5863 652.282C87.1557 652.667 86.8383 653.109 86.6343 653.608C86.4303 654.084 86.3283 654.651 86.3283 655.308C86.3283 656.351 86.555 657.099 87.0083 657.552C87.4617 657.983 87.983 658.198 88.5723 658.198ZM102.8 660.306C101.259 660.306 100.114 659.966 99.366 659.286C98.618 658.606 98.1193 657.688 97.87 656.532C97.6433 655.353 97.53 654.027 97.53 652.554V647.964C97.53 646.151 97.6773 644.666 97.972 643.51C98.2667 642.331 98.788 641.459 99.536 640.892C100.307 640.325 101.395 640.042 102.8 640.042C104.183 640.042 105.237 640.303 105.962 640.824C106.687 641.345 107.175 642.082 107.424 643.034C107.673 643.986 107.798 645.085 107.798 646.332V647.284H105.486V646.332C105.486 645.176 105.395 644.281 105.214 643.646C105.055 643.011 104.772 642.569 104.364 642.32C103.979 642.048 103.457 641.912 102.8 641.912C102.029 641.912 101.44 642.093 101.032 642.456C100.624 642.819 100.352 643.419 100.216 644.258C100.08 645.074 100.012 646.173 100.012 647.556V653.064C100.012 655.036 100.205 656.43 100.59 657.246C100.975 658.039 101.723 658.436 102.834 658.436C103.605 658.436 104.183 658.266 104.568 657.926C104.953 657.563 105.203 657.031 105.316 656.328C105.429 655.625 105.486 654.753 105.486 653.71V652.622H107.798V653.574C107.798 654.889 107.673 656.056 107.424 657.076C107.197 658.073 106.721 658.867 105.996 659.456C105.271 660.023 104.205 660.306 102.8 660.306ZM115.981 660.306C114.644 660.306 113.59 660.023 112.819 659.456C112.071 658.867 111.538 658.028 111.221 656.94C110.904 655.829 110.745 654.481 110.745 652.894V647.454C110.745 645.867 110.904 644.53 111.221 643.442C111.538 642.331 112.071 641.493 112.819 640.926C113.59 640.337 114.644 640.042 115.981 640.042C117.364 640.042 118.429 640.337 119.177 640.926C119.925 641.493 120.458 642.331 120.775 643.442C121.092 644.53 121.251 645.867 121.251 647.454V652.894C121.251 654.481 121.092 655.829 120.775 656.94C120.458 658.028 119.925 658.867 119.177 659.456C118.429 660.023 117.364 660.306 115.981 660.306ZM115.981 658.436C116.842 658.436 117.466 658.209 117.851 657.756C118.259 657.303 118.508 656.668 118.599 655.852C118.69 655.013 118.735 654.073 118.735 653.03V647.318C118.735 646.253 118.69 645.323 118.599 644.53C118.508 643.714 118.259 643.079 117.851 642.626C117.466 642.15 116.842 641.912 115.981 641.912C115.12 641.912 114.496 642.15 114.111 642.626C113.726 643.079 113.488 643.714 113.397 644.53C113.306 645.323 113.261 646.253 113.261 647.318V653.03C113.261 654.073 113.306 655.013 113.397 655.852C113.488 656.668 113.726 657.303 114.111 657.756C114.496 658.209 115.12 658.436 115.981 658.436ZM124.699 660V640.348H129.459C130.751 640.348 131.748 640.575 132.451 641.028C133.176 641.481 133.698 642.071 134.015 642.796C134.332 643.499 134.491 644.258 134.491 645.074C134.491 645.958 134.321 646.808 133.981 647.624C133.641 648.417 132.972 648.984 131.975 649.324C132.746 649.528 133.335 649.891 133.743 650.412C134.174 650.911 134.48 651.5 134.661 652.18C134.842 652.86 134.933 653.574 134.933 654.322C134.933 655.433 134.786 656.419 134.491 657.28C134.196 658.141 133.675 658.81 132.927 659.286C132.179 659.762 131.114 660 129.731 660H124.699ZM127.147 658.096H129.289C130.06 658.096 130.672 657.949 131.125 657.654C131.601 657.359 131.941 656.929 132.145 656.362C132.372 655.773 132.485 655.059 132.485 654.22C132.485 653.177 132.349 652.395 132.077 651.874C131.828 651.33 131.476 650.956 131.023 650.752C130.592 650.548 130.071 650.446 129.459 650.446H127.147V658.096ZM127.147 648.644H129.629C130.4 648.644 131.023 648.361 131.499 647.794C131.975 647.227 132.213 646.4 132.213 645.312C132.213 644.292 131.952 643.533 131.431 643.034C130.932 642.513 130.184 642.252 129.187 642.252H127.147V648.644ZM151.55 660.34C150.168 660.34 149.012 660.102 148.082 659.626C147.153 659.15 146.45 658.436 145.974 657.484C145.521 656.509 145.283 655.308 145.26 653.88C145.26 653.857 145.26 653.778 145.26 653.642C145.26 653.506 145.26 653.427 145.26 653.404H147.708C147.708 655.149 147.992 656.396 148.558 657.144C149.125 657.892 150.134 658.266 151.584 658.266C152.355 658.266 153.012 658.085 153.556 657.722C154.123 657.359 154.554 656.747 154.848 655.886C155.143 655.002 155.29 653.823 155.29 652.35V647.148C154.95 647.556 154.406 647.93 153.658 648.27C152.933 648.61 152.004 648.78 150.87 648.78C149.352 648.78 148.162 648.497 147.3 647.93C146.439 647.341 145.827 646.445 145.464 645.244C145.102 644.02 144.92 642.456 144.92 640.552C144.92 638.852 145.136 637.379 145.566 636.132C146.02 634.885 146.722 633.922 147.674 633.242C148.649 632.539 149.918 632.188 151.482 632.188C152.978 632.188 154.191 632.539 155.12 633.242C156.05 633.922 156.73 634.908 157.16 636.2C157.591 637.469 157.806 638.999 157.806 640.79V651.772C157.806 653.449 157.602 654.934 157.194 656.226C156.809 657.518 156.163 658.527 155.256 659.252C154.35 659.977 153.114 660.34 151.55 660.34ZM151.448 646.842C152.423 646.842 153.228 646.672 153.862 646.332C154.497 645.969 154.973 645.607 155.29 645.244V640.518C155.29 639.022 155.154 637.821 154.882 636.914C154.633 635.985 154.225 635.316 153.658 634.908C153.092 634.477 152.366 634.262 151.482 634.262C150.598 634.262 149.85 634.477 149.238 634.908C148.649 635.316 148.207 635.951 147.912 636.812C147.618 637.673 147.47 638.761 147.47 640.076C147.47 641.572 147.55 642.83 147.708 643.85C147.89 644.847 148.264 645.595 148.83 646.094C149.397 646.593 150.27 646.842 151.448 646.842ZM168.723 660L168.893 640.348H170.763L175.353 653.846L179.943 640.348H181.881L182.051 660H179.909L179.875 646.196L175.761 657.96H174.979L170.899 646.264L170.865 660H168.723ZM185.693 660V640.348H187.801V655.478L194.363 640.348H196.369V660H194.261V644.904L187.767 660H185.693ZM200.17 660V640.348H202.652V648.916H208.772V640.348H211.288V660H208.772V650.786H202.652V660H200.17ZM214.534 664.896V662.958C215.667 662.958 216.517 662.867 217.084 662.686C217.673 662.527 218.058 662.289 218.24 661.972C218.444 661.677 218.546 661.326 218.546 660.918C218.546 660.555 218.478 660.079 218.342 659.49C218.206 658.901 218.058 658.289 217.9 657.654L213.854 640.348H216.336L219.736 657.076L223.034 640.348H225.55L220.79 661.394C220.608 662.233 220.28 662.901 219.804 663.4C219.35 663.921 218.738 664.295 217.968 664.522C217.22 664.771 216.29 664.896 215.18 664.896H214.534ZM230.611 660V642.252H226.361V640.348H237.275V642.252H233.093V660H230.611ZM46.36 714.896V712.958C47.4933 712.958 48.3433 712.867 48.91 712.686C49.4993 712.527 49.8847 712.289 50.066 711.972C50.27 711.677 50.372 711.326 50.372 710.918C50.372 710.555 50.304 710.079 50.168 709.49C50.032 708.901 49.8847 708.289 49.726 707.654L45.68 690.348H48.162L51.562 707.076L54.86 690.348H57.376L52.616 711.394C52.4347 712.233 52.106 712.901 51.63 713.4C51.1767 713.921 50.5647 714.295 49.794 714.522C49.046 714.771 48.1167 714.896 47.006 714.896H46.36ZM57.4599 710.17V708.266C58.1173 708.243 58.6499 708.107 59.0579 707.858C59.4886 707.609 59.8286 707.167 60.0779 706.532C60.3499 705.875 60.5653 704.945 60.7239 703.744C60.9053 702.543 61.0639 701.001 61.1999 699.12L61.8119 690.348H70.7879V710H68.3059V692.252H63.9879L63.5119 699.12C63.3533 701.341 63.1606 703.166 62.9339 704.594C62.7073 706.022 62.3786 707.144 61.9479 707.96C61.5399 708.776 60.9959 709.354 60.3159 709.694C59.6586 710.011 58.8313 710.17 57.8339 710.17H57.4599ZM74.6982 710V706.26H77.3162V710H74.6982ZM86.2842 710.034V708.062C86.9416 708.039 87.4969 707.971 87.9502 707.858C88.4036 707.722 88.7776 707.439 89.0722 707.008C89.3896 706.577 89.6502 705.875 89.8542 704.9C90.0809 703.925 90.2849 702.588 90.4662 700.888C90.6702 699.188 90.8742 697.012 91.0782 694.36L91.8942 682.46H102.604V710H99.9862V684.432H94.2062L93.5602 694.36C93.3562 696.967 93.1522 699.188 92.9482 701.024C92.7669 702.837 92.5289 704.345 92.2342 705.546C91.9396 706.725 91.5429 707.654 91.0442 708.334C90.5682 708.991 89.9449 709.445 89.1742 709.694C88.4036 709.943 87.4402 710.057 86.2842 710.034ZM111.832 710.306C110.608 710.306 109.599 710.068 108.806 709.592C108.035 709.093 107.457 708.277 107.072 707.144C106.709 706.011 106.528 704.503 106.528 702.622V697.658C106.528 695.709 106.721 694.19 107.106 693.102C107.491 691.991 108.081 691.209 108.874 690.756C109.667 690.28 110.665 690.042 111.866 690.042C113.249 690.042 114.303 690.337 115.028 690.926C115.753 691.515 116.252 692.411 116.524 693.612C116.819 694.791 116.966 696.309 116.966 698.168V699.936H109.01V703.37C109.01 704.639 109.101 705.648 109.282 706.396C109.486 707.121 109.792 707.643 110.2 707.96C110.631 708.277 111.175 708.436 111.832 708.436C112.331 708.436 112.784 708.345 113.192 708.164C113.6 707.96 113.917 707.586 114.144 707.042C114.393 706.475 114.518 705.682 114.518 704.662V703.302H116.932V704.39C116.932 706.181 116.558 707.62 115.81 708.708C115.085 709.773 113.759 710.306 111.832 710.306ZM109.01 698.508H114.518V696.876C114.518 695.833 114.461 694.949 114.348 694.224C114.235 693.476 113.985 692.909 113.6 692.524C113.237 692.116 112.648 691.912 111.832 691.912C111.152 691.912 110.597 692.059 110.166 692.354C109.758 692.649 109.463 693.181 109.282 693.952C109.101 694.7 109.01 695.777 109.01 697.182V698.508ZM125.212 710.306C123.671 710.306 122.526 709.966 121.778 709.286C121.03 708.606 120.531 707.688 120.282 706.532C120.055 705.353 119.942 704.027 119.942 702.554V697.964C119.942 696.151 120.089 694.666 120.384 693.51C120.679 692.331 121.2 691.459 121.948 690.892C122.719 690.325 123.807 690.042 125.212 690.042C126.595 690.042 127.649 690.303 128.374 690.824C129.099 691.345 129.587 692.082 129.836 693.034C130.085 693.986 130.21 695.085 130.21 696.332V697.284H127.898V696.332C127.898 695.176 127.807 694.281 127.626 693.646C127.467 693.011 127.184 692.569 126.776 692.32C126.391 692.048 125.869 691.912 125.212 691.912C124.441 691.912 123.852 692.093 123.444 692.456C123.036 692.819 122.764 693.419 122.628 694.258C122.492 695.074 122.424 696.173 122.424 697.556V703.064C122.424 705.036 122.617 706.43 123.002 707.246C123.387 708.039 124.135 708.436 125.246 708.436C126.017 708.436 126.595 708.266 126.98 707.926C127.365 707.563 127.615 707.031 127.728 706.328C127.841 705.625 127.898 704.753 127.898 703.71V702.622H130.21V703.574C130.21 704.889 130.085 706.056 129.836 707.076C129.609 708.073 129.133 708.867 128.408 709.456C127.683 710.023 126.617 710.306 125.212 710.306ZM133.531 710V690.348H136.013V698.916H142.133V690.348H144.649V710H142.133V700.786H136.013V710H133.531ZM151.839 710.306C151.046 710.306 150.354 710.113 149.765 709.728C149.176 709.32 148.711 708.787 148.371 708.13C148.054 707.45 147.895 706.713 147.895 705.92C147.895 704.923 148.031 704.073 148.303 703.37C148.598 702.667 149.051 702.044 149.663 701.5C150.298 700.933 151.114 700.389 152.111 699.868C153.131 699.324 154.366 698.723 155.817 698.066V696.672C155.817 695.471 155.738 694.53 155.579 693.85C155.443 693.147 155.194 692.649 154.831 692.354C154.491 692.059 154.004 691.912 153.369 691.912C152.848 691.912 152.383 692.014 151.975 692.218C151.567 692.422 151.238 692.773 150.989 693.272C150.74 693.748 150.615 694.417 150.615 695.278V695.958L148.167 695.924C148.19 693.929 148.609 692.456 149.425 691.504C150.264 690.529 151.624 690.042 153.505 690.042C155.273 690.042 156.508 690.575 157.211 691.64C157.936 692.683 158.299 694.315 158.299 696.536V706.09C158.299 706.43 158.31 706.872 158.333 707.416C158.356 707.937 158.378 708.436 158.401 708.912C158.424 709.388 158.446 709.751 158.469 710H156.259C156.214 709.569 156.146 709.093 156.055 708.572C155.964 708.028 155.908 707.597 155.885 707.28C155.613 708.073 155.126 708.776 154.423 709.388C153.743 710 152.882 710.306 151.839 710.306ZM152.621 708.198C153.12 708.198 153.573 708.073 153.981 707.824C154.389 707.575 154.752 707.28 155.069 706.94C155.386 706.577 155.636 706.215 155.817 705.852V699.732C154.842 700.231 154.004 700.684 153.301 701.092C152.621 701.5 152.066 701.897 151.635 702.282C151.204 702.667 150.887 703.109 150.683 703.608C150.479 704.084 150.377 704.651 150.377 705.308C150.377 706.351 150.604 707.099 151.057 707.552C151.51 707.983 152.032 708.198 152.621 708.198ZM160.593 710L164.469 701.5C163.766 701.205 163.211 700.786 162.803 700.242C162.395 699.675 162.1 699.041 161.919 698.338C161.76 697.613 161.681 696.876 161.681 696.128C161.681 695.312 161.771 694.553 161.953 693.85C162.157 693.125 162.497 692.513 162.973 692.014C163.449 691.493 164.117 691.085 164.979 690.79C165.863 690.495 166.985 690.348 168.345 690.348H171.847V710H169.365V702.044C168.843 702.044 168.367 702.044 167.937 702.044C167.529 702.021 167.143 701.987 166.781 701.942L163.279 710H160.593ZM168.481 700.514C168.503 700.514 168.617 700.514 168.821 700.514C169.025 700.514 169.206 700.514 169.365 700.514V691.878C169.138 691.878 168.9 691.878 168.651 691.878C168.401 691.878 168.265 691.878 168.243 691.878C167.041 691.878 166.135 692.059 165.523 692.422C164.911 692.785 164.491 693.283 164.265 693.918C164.061 694.53 163.959 695.267 163.959 696.128C163.959 697.601 164.287 698.701 164.945 699.426C165.625 700.129 166.803 700.491 168.481 700.514ZM182.605 710V690.348H193.111V710H190.629V692.286H185.087V710H182.605ZM201.745 710.306C200.407 710.306 199.353 710.023 198.583 709.456C197.835 708.867 197.302 708.028 196.985 706.94C196.667 705.829 196.509 704.481 196.509 702.894V697.454C196.509 695.867 196.667 694.53 196.985 693.442C197.302 692.331 197.835 691.493 198.583 690.926C199.353 690.337 200.407 690.042 201.745 690.042C203.127 690.042 204.193 690.337 204.941 690.926C205.689 691.493 206.221 692.331 206.539 693.442C206.856 694.53 207.015 695.867 207.015 697.454V702.894C207.015 704.481 206.856 705.829 206.539 706.94C206.221 708.028 205.689 708.867 204.941 709.456C204.193 710.023 203.127 710.306 201.745 710.306ZM201.745 708.436C202.606 708.436 203.229 708.209 203.615 707.756C204.023 707.303 204.272 706.668 204.363 705.852C204.453 705.013 204.499 704.073 204.499 703.03V697.318C204.499 696.253 204.453 695.323 204.363 694.53C204.272 693.714 204.023 693.079 203.615 692.626C203.229 692.15 202.606 691.912 201.745 691.912C200.883 691.912 200.26 692.15 199.875 692.626C199.489 693.079 199.251 693.714 199.161 694.53C199.07 695.323 199.025 696.253 199.025 697.318V703.03C199.025 704.073 199.07 705.013 199.161 705.852C199.251 706.668 199.489 707.303 199.875 707.756C200.26 708.209 200.883 708.436 201.745 708.436ZM208.7 710.17V708.266C209.358 708.243 209.89 708.107 210.298 707.858C210.729 707.609 211.069 707.167 211.318 706.532C211.59 705.875 211.806 704.945 211.964 703.744C212.146 702.543 212.304 701.001 212.44 699.12L213.052 690.348H222.028V710H219.546V692.252H215.228L214.752 699.12C214.594 701.341 214.401 703.166 214.174 704.594C213.948 706.022 213.619 707.144 213.188 707.96C212.78 708.776 212.236 709.354 211.556 709.694C210.899 710.011 210.072 710.17 209.074 710.17H208.7ZM224.442 710L228.318 701.5C227.616 701.205 227.06 700.786 226.652 700.242C226.244 699.675 225.95 699.041 225.768 698.338C225.61 697.613 225.53 696.876 225.53 696.128C225.53 695.312 225.621 694.553 225.802 693.85C226.006 693.125 226.346 692.513 226.822 692.014C227.298 691.493 227.967 691.085 228.828 690.79C229.712 690.495 230.834 690.348 232.194 690.348H235.696V710H233.214V702.044C232.693 702.044 232.217 702.044 231.786 702.044C231.378 702.021 230.993 701.987 230.63 701.942L227.128 710H224.442ZM232.33 700.514C232.353 700.514 232.466 700.514 232.67 700.514C232.874 700.514 233.056 700.514 233.214 700.514V691.878C232.988 691.878 232.75 691.878 232.5 691.878C232.251 691.878 232.115 691.878 232.092 691.878C230.891 691.878 229.984 692.059 229.372 692.422C228.76 692.785 228.341 693.283 228.114 693.918C227.91 694.53 227.808 695.267 227.808 696.128C227.808 697.601 228.137 698.701 228.794 699.426C229.474 700.129 230.653 700.491 232.33 700.514ZM239.515 710V690.348H241.997V698.916H248.117V690.348H250.633V710H248.117V700.786H241.997V710H239.515ZM257.824 710.306C257.03 710.306 256.339 710.113 255.75 709.728C255.16 709.32 254.696 708.787 254.356 708.13C254.038 707.45 253.88 706.713 253.88 705.92C253.88 704.923 254.016 704.073 254.288 703.37C254.582 702.667 255.036 702.044 255.648 701.5C256.282 700.933 257.098 700.389 258.096 699.868C259.116 699.324 260.351 698.723 261.802 698.066V696.672C261.802 695.471 261.722 694.53 261.564 693.85C261.428 693.147 261.178 692.649 260.816 692.354C260.476 692.059 259.988 691.912 259.354 691.912C258.832 691.912 258.368 692.014 257.96 692.218C257.552 692.422 257.223 692.773 256.974 693.272C256.724 693.748 256.6 694.417 256.6 695.278V695.958L254.152 695.924C254.174 693.929 254.594 692.456 255.41 691.504C256.248 690.529 257.608 690.042 259.49 690.042C261.258 690.042 262.493 690.575 263.196 691.64C263.921 692.683 264.284 694.315 264.284 696.536V706.09C264.284 706.43 264.295 706.872 264.318 707.416C264.34 707.937 264.363 708.436 264.386 708.912C264.408 709.388 264.431 709.751 264.454 710H262.244C262.198 709.569 262.13 709.093 262.04 708.572C261.949 708.028 261.892 707.597 261.87 707.28C261.598 708.073 261.11 708.776 260.408 709.388C259.728 710 258.866 710.306 257.824 710.306ZM258.606 708.198C259.104 708.198 259.558 708.073 259.966 707.824C260.374 707.575 260.736 707.28 261.054 706.94C261.371 706.577 261.62 706.215 261.802 705.852V699.732C260.827 700.231 259.988 700.684 259.286 701.092C258.606 701.5 258.05 701.897 257.62 702.282C257.189 702.667 256.872 703.109 256.668 703.608C256.464 704.084 256.362 704.651 256.362 705.308C256.362 706.351 256.588 707.099 257.042 707.552C257.495 707.983 258.016 708.198 258.606 708.198ZM268.243 713.944L267.699 712.856C268.311 712.516 268.731 712.119 268.957 711.666C269.207 711.235 269.331 710.68 269.331 710H267.869V706.294H270.623V709.728C270.623 710.839 270.442 711.711 270.079 712.346C269.717 712.981 269.105 713.513 268.243 713.944ZM45.34 764.726V758.3C45.9293 757.915 46.4507 757.427 46.904 756.838C47.3573 756.226 47.754 755.421 48.094 754.424C48.434 753.427 48.7173 752.157 48.944 750.616C49.1707 749.075 49.3407 747.182 49.454 744.938L49.76 740.348H57.954V758.198H59.926V764.726H58.056L57.852 760H47.448L47.21 764.726H45.34ZM47.924 758.198H55.54V742.184H51.766L51.46 745.448C51.324 747.601 51.1653 749.415 50.984 750.888C50.8027 752.361 50.576 753.574 50.304 754.526C50.032 755.478 49.692 756.249 49.284 756.838C48.8987 757.405 48.4453 757.858 47.924 758.198ZM67.3715 760.306C66.0341 760.306 64.9801 760.023 64.2095 759.456C63.4615 758.867 62.9288 758.028 62.6115 756.94C62.2941 755.829 62.1355 754.481 62.1355 752.894V747.454C62.1355 745.867 62.2941 744.53 62.6115 743.442C62.9288 742.331 63.4615 741.493 64.2095 740.926C64.9801 740.337 66.0341 740.042 67.3715 740.042C68.7541 740.042 69.8195 740.337 70.5675 740.926C71.3155 741.493 71.8481 742.331 72.1655 743.442C72.4828 744.53 72.6415 745.867 72.6415 747.454V752.894C72.6415 754.481 72.4828 755.829 72.1655 756.94C71.8481 758.028 71.3155 758.867 70.5675 759.456C69.8195 760.023 68.7541 760.306 67.3715 760.306ZM67.3715 758.436C68.2328 758.436 68.8561 758.209 69.2415 757.756C69.6495 757.303 69.8988 756.668 69.9895 755.852C70.0801 755.013 70.1255 754.073 70.1255 753.03V747.318C70.1255 746.253 70.0801 745.323 69.9895 744.53C69.8988 743.714 69.6495 743.079 69.2415 742.626C68.8561 742.15 68.2328 741.912 67.3715 741.912C66.5101 741.912 65.8868 742.15 65.5015 742.626C65.1161 743.079 64.8781 743.714 64.7875 744.53C64.6968 745.323 64.6515 746.253 64.6515 747.318V753.03C64.6515 754.073 64.6968 755.013 64.7875 755.852C64.8781 756.668 65.1161 757.303 65.5015 757.756C65.8868 758.209 66.5101 758.436 67.3715 758.436ZM75.9535 760L76.1235 740.348H77.9935L82.5835 753.846L87.1735 740.348H89.1115L89.2815 760H87.1395L87.1055 746.196L82.9915 757.96H82.2095L78.1295 746.264L78.0955 760H75.9535ZM99.863 760V740.348H102.345V748.916H108.465V740.348H110.981V760H108.465V750.786H102.345V760H99.863ZM118.171 760.306C117.378 760.306 116.687 760.113 116.097 759.728C115.508 759.32 115.043 758.787 114.703 758.13C114.386 757.45 114.227 756.713 114.227 755.92C114.227 754.923 114.363 754.073 114.635 753.37C114.93 752.667 115.383 752.044 115.995 751.5C116.63 750.933 117.446 750.389 118.443 749.868C119.463 749.324 120.699 748.723 122.149 748.066V746.672C122.149 745.471 122.07 744.53 121.911 743.85C121.775 743.147 121.526 742.649 121.163 742.354C120.823 742.059 120.336 741.912 119.701 741.912C119.18 741.912 118.715 742.014 118.307 742.218C117.899 742.422 117.571 742.773 117.321 743.272C117.072 743.748 116.947 744.417 116.947 745.278V745.958L114.499 745.924C114.522 743.929 114.941 742.456 115.757 741.504C116.596 740.529 117.956 740.042 119.837 740.042C121.605 740.042 122.841 740.575 123.543 741.64C124.269 742.683 124.631 744.315 124.631 746.536V756.09C124.631 756.43 124.643 756.872 124.665 757.416C124.688 757.937 124.711 758.436 124.733 758.912C124.756 759.388 124.779 759.751 124.801 760H122.591C122.546 759.569 122.478 759.093 122.387 758.572C122.297 758.028 122.24 757.597 122.217 757.28C121.945 758.073 121.458 758.776 120.755 759.388C120.075 760 119.214 760.306 118.171 760.306ZM118.953 758.198C119.452 758.198 119.905 758.073 120.313 757.824C120.721 757.575 121.084 757.28 121.401 756.94C121.719 756.577 121.968 756.215 122.149 755.852V749.732C121.175 750.231 120.336 750.684 119.633 751.092C118.953 751.5 118.398 751.897 117.967 752.282C117.537 752.667 117.219 753.109 117.015 753.608C116.811 754.084 116.709 754.651 116.709 755.308C116.709 756.351 116.936 757.099 117.389 757.552C117.843 757.983 118.364 758.198 118.953 758.198ZM135.224 760V740.348H137.706V749.018H139.1L143.588 740.348H146.172L141.378 749.834L146.308 760H143.724L139.1 750.548H137.706V760H135.224ZM147.862 764.896V762.958C148.995 762.958 149.845 762.867 150.412 762.686C151.001 762.527 151.387 762.289 151.568 761.972C151.772 761.677 151.874 761.326 151.874 760.918C151.874 760.555 151.806 760.079 151.67 759.49C151.534 758.901 151.387 758.289 151.228 757.654L147.182 740.348H149.664L153.064 757.076L156.362 740.348H158.878L154.118 761.394C153.937 762.233 153.608 762.901 153.132 763.4C152.679 763.921 152.067 764.295 151.296 764.522C150.548 764.771 149.619 764.896 148.508 764.896H147.862ZM161.355 766.46V740.348H163.837V741.98C164.245 741.481 164.755 741.039 165.367 740.654C165.979 740.246 166.727 740.042 167.611 740.042C168.563 740.042 169.323 740.269 169.889 740.722C170.479 741.153 170.932 741.742 171.249 742.49C171.567 743.238 171.782 744.077 171.895 745.006C172.009 745.935 172.065 746.887 172.065 747.862V752.01C172.065 753.687 171.929 755.149 171.657 756.396C171.385 757.62 170.898 758.583 170.195 759.286C169.515 759.966 168.563 760.306 167.339 760.306C166.546 760.306 165.855 760.102 165.265 759.694C164.699 759.286 164.223 758.867 163.837 758.436V766.46H161.355ZM166.965 758.334C167.713 758.334 168.269 758.096 168.631 757.62C169.017 757.144 169.266 756.441 169.379 755.512C169.515 754.56 169.583 753.415 169.583 752.078V747.862C169.583 746.593 169.515 745.527 169.379 744.666C169.266 743.782 169.017 743.113 168.631 742.66C168.246 742.207 167.668 741.98 166.897 741.98C166.263 741.98 165.673 742.15 165.129 742.49C164.608 742.83 164.177 743.17 163.837 743.51V756.906C164.2 757.291 164.642 757.631 165.163 757.926C165.707 758.198 166.308 758.334 166.965 758.334ZM175.533 760V740.348H178.015V748.338C178.06 748.338 178.174 748.338 178.355 748.338C178.536 748.338 178.718 748.338 178.899 748.338C179.103 748.338 179.205 748.338 179.205 748.338C180.542 748.338 181.642 748.485 182.503 748.78C183.364 749.052 184.044 749.449 184.543 749.97C185.042 750.469 185.393 751.081 185.597 751.806C185.801 752.509 185.903 753.302 185.903 754.186C185.903 755.025 185.801 755.807 185.597 756.532C185.393 757.235 185.03 757.847 184.509 758.368C184.01 758.867 183.308 759.263 182.401 759.558C181.517 759.853 180.384 760 179.001 760H175.533ZM178.015 758.436H179.001C180.27 758.436 181.234 758.266 181.891 757.926C182.548 757.563 183.002 757.076 183.251 756.464C183.5 755.829 183.625 755.07 183.625 754.186C183.625 753.347 183.512 752.611 183.285 751.976C183.058 751.341 182.628 750.843 181.993 750.48C181.358 750.095 180.395 749.902 179.103 749.902C179.08 749.902 178.944 749.902 178.695 749.902C178.468 749.902 178.242 749.902 178.015 749.902V758.436ZM188.748 760V740.348H190.856V755.478L197.418 740.348H199.424V760H197.316V744.904L190.822 760H188.748ZM201.864 760L206.522 749.732L202.102 740.348H204.55L207.916 747.556L211.146 740.348H213.662L209.072 750.004L213.73 760H211.35L207.678 752.282L204.244 760H201.864ZM223.08 760V740.348H225.562V748.916H231.682V740.348H234.198V760H231.682V750.786H225.562V760H223.08ZM242.85 760.306C241.513 760.306 240.459 760.023 239.688 759.456C238.94 758.867 238.407 758.028 238.09 756.94C237.773 755.829 237.614 754.481 237.614 752.894V747.454C237.614 745.867 237.773 744.53 238.09 743.442C238.407 742.331 238.94 741.493 239.688 740.926C240.459 740.337 241.513 740.042 242.85 740.042C244.233 740.042 245.298 740.337 246.046 740.926C246.794 741.493 247.327 742.331 247.644 743.442C247.961 744.53 248.12 745.867 248.12 747.454V752.894C248.12 754.481 247.961 755.829 247.644 756.94C247.327 758.028 246.794 758.867 246.046 759.456C245.298 760.023 244.233 760.306 242.85 760.306ZM242.85 758.436C243.711 758.436 244.335 758.209 244.72 757.756C245.128 757.303 245.377 756.668 245.468 755.852C245.559 755.013 245.604 754.073 245.604 753.03V747.318C245.604 746.253 245.559 745.323 245.468 744.53C245.377 743.714 245.128 743.079 244.72 742.626C244.335 742.15 243.711 741.912 242.85 741.912C241.989 741.912 241.365 742.15 240.98 742.626C240.595 743.079 240.357 743.714 240.266 744.53C240.175 745.323 240.13 746.253 240.13 747.318V753.03C240.13 754.073 240.175 755.013 240.266 755.852C240.357 756.668 240.595 757.303 240.98 757.756C241.365 758.209 241.989 758.436 242.85 758.436ZM249.7 760L255.242 749.936L249.972 740.348H252.386L257.316 749.766H257.622V740.348H259.696V749.766H260.002L264.898 740.348H267.278L262.042 749.936L267.55 760H265.238L260.002 750.242H259.696V760H257.622V750.242H257.282L252.046 760H249.7ZM269.597 760V740.348H272.079V749.018H273.473L277.961 740.348H280.545L275.751 749.834L280.681 760H278.097L273.473 750.548H272.079V760H269.597ZM286.179 760.306C285.386 760.306 284.694 760.113 284.105 759.728C283.516 759.32 283.051 758.787 282.711 758.13C282.394 757.45 282.235 756.713 282.235 755.92C282.235 754.923 282.371 754.073 282.643 753.37C282.938 752.667 283.391 752.044 284.003 751.5C284.638 750.933 285.454 750.389 286.451 749.868C287.471 749.324 288.706 748.723 290.157 748.066V746.672C290.157 745.471 290.078 744.53 289.919 743.85C289.783 743.147 289.534 742.649 289.171 742.354C288.831 742.059 288.344 741.912 287.709 741.912C287.188 741.912 286.723 742.014 286.315 742.218C285.907 742.422 285.578 742.773 285.329 743.272C285.08 743.748 284.955 744.417 284.955 745.278V745.958L282.507 745.924C282.53 743.929 282.949 742.456 283.765 741.504C284.604 740.529 285.964 740.042 287.845 740.042C289.613 740.042 290.848 740.575 291.551 741.64C292.276 742.683 292.639 744.315 292.639 746.536V756.09C292.639 756.43 292.65 756.872 292.673 757.416C292.696 757.937 292.718 758.436 292.741 758.912C292.764 759.388 292.786 759.751 292.809 760H290.599C290.554 759.569 290.486 759.093 290.395 758.572C290.304 758.028 290.248 757.597 290.225 757.28C289.953 758.073 289.466 758.776 288.763 759.388C288.083 760 287.222 760.306 286.179 760.306ZM286.961 758.198C287.46 758.198 287.913 758.073 288.321 757.824C288.729 757.575 289.092 757.28 289.409 756.94C289.726 756.577 289.976 756.215 290.157 755.852V749.732C289.182 750.231 288.344 750.684 287.641 751.092C286.961 751.5 286.406 751.897 285.975 752.282C285.544 752.667 285.227 753.109 285.023 753.608C284.819 754.084 284.717 754.651 284.717 755.308C284.717 756.351 284.944 757.099 285.397 757.552C285.85 757.983 286.372 758.198 286.961 758.198ZM294.933 760L299.591 749.732L295.171 740.348H297.619L300.985 747.556L304.215 740.348H306.731L302.141 750.004L306.799 760H304.419L300.747 752.282L297.313 760H294.933Z" fill="white"/>
<path d="M57.46 197.02V177H62.36V219H57.46V198.42H52.35V219H47.45V177H52.35V197.02H57.46ZM74.6805 209.13C74.6805 211.417 75.0072 212.957 75.6605 213.75C76.3605 214.543 77.2939 214.94 78.4605 214.94C80.4205 214.94 81.4705 212.56 81.6105 207.8L81.8205 199.61H82.8005L83.0105 208.01C83.1039 211.463 82.5672 214.287 81.4005 216.48C80.2339 218.627 78.5072 219.7 76.2205 219.7C74.0272 219.7 72.3939 219.07 71.3205 217.81C70.2939 216.55 69.7805 214.45 69.7805 211.51V185.82C69.7805 182.553 70.4572 180.15 71.8105 178.61C73.1639 177.07 74.9605 176.3 77.2005 176.3C79.2072 176.3 80.6772 176.953 81.6105 178.26C82.5905 179.52 83.0805 181.62 83.0805 184.56V195.76H74.6805V209.13ZM76.7105 181.06C75.9172 181.06 75.3805 181.387 75.1005 182.04C74.8205 182.693 74.6805 183.72 74.6805 185.12V194.78H78.8805V186.87C78.8805 184.49 78.7172 182.927 78.3905 182.18C78.0639 181.433 77.5039 181.06 76.7105 181.06ZM103.251 214.45H105.351V225.79H103.951L101.641 219H92.1215L89.8115 225.79H88.4115V214.45H89.8815C90.3948 213.33 90.7682 211.603 91.0015 209.27C91.2815 206.937 91.4448 203.413 91.4915 198.7C91.5848 193.94 91.6315 186.707 91.6315 177H103.251V214.45ZM98.3515 214.45V181.55H93.3815C93.3815 191.257 93.3348 198.397 93.2415 202.97C93.1948 207.543 93.0548 211.37 92.8215 214.45H98.3515ZM115.589 209.13C115.589 211.417 115.915 212.957 116.569 213.75C117.269 214.543 118.202 214.94 119.369 214.94C121.329 214.94 122.379 212.56 122.519 207.8L122.729 199.61H123.709L123.919 208.01C124.012 211.463 123.475 214.287 122.309 216.48C121.142 218.627 119.415 219.7 117.129 219.7C114.935 219.7 113.302 219.07 112.229 217.81C111.202 216.55 110.689 214.45 110.689 211.51V185.82C110.689 182.553 111.365 180.15 112.719 178.61C114.072 177.07 115.869 176.3 118.109 176.3C120.115 176.3 121.585 176.953 122.519 178.26C123.499 179.52 123.989 181.62 123.989 184.56V195.76H115.589V209.13ZM117.619 181.06C116.825 181.06 116.289 181.387 116.009 182.04C115.729 182.693 115.589 183.72 115.589 185.12V194.78H119.789V186.87C119.789 184.49 119.625 182.927 119.299 182.18C118.972 181.433 118.412 181.06 117.619 181.06ZM144.09 219H139.19V181.55H134.22L134.36 210.04C134.36 214.193 134.313 217.18 134.22 219H129.32V213.96C130.346 213.213 131.07 211.79 131.49 209.69C131.91 207.59 132.166 204.277 132.26 199.75C132.4 195.177 132.47 187.593 132.47 177H144.09V219ZM166.655 219H161.755V202.2C159.142 202.2 157.695 203.227 157.415 205.28L155.455 219H150.485L153.705 202.06H158.325L158.395 201.29C153.822 200.73 151.535 197.883 151.535 192.75V185.82C151.535 182.693 152.282 180.453 153.775 179.1C155.315 177.7 157.625 177 160.705 177H166.655V219ZM156.435 194.85C156.435 198.397 157.765 200.17 160.425 200.17H161.755V181.76H161.195C159.422 181.76 158.185 182.18 157.485 183.02C156.785 183.813 156.435 185.33 156.435 187.57V194.85ZM199.593 177V181.55H194.623V219H189.723V181.55H184.683V177H199.593ZM219.84 181.97V207.8C219.84 211.953 219.304 214.987 218.23 216.9C217.204 218.767 215.57 219.7 213.33 219.7C211.79 219.7 210.18 218.93 208.5 217.39L208.08 217.81L209.83 219.63V228.1H204.93V177H209.76V177.77L208.15 188.41L208.85 188.55C209.504 183.743 210.367 180.5 211.44 178.82C212.514 177.14 213.82 176.3 215.36 176.3C216.667 176.3 217.74 176.813 218.58 177.84C219.42 178.867 219.84 180.243 219.84 181.97ZM214.8 208.22V184.7C214.8 182.273 214.194 181.06 212.98 181.06C212.467 181.06 211.954 181.55 211.44 182.53C210.974 183.51 210.577 184.863 210.25 186.59C209.97 188.317 209.83 190.207 209.83 192.26V213.82C210.764 214.753 211.767 215.22 212.84 215.22C213.54 215.22 214.03 214.777 214.31 213.89C214.637 212.957 214.8 211.067 214.8 208.22ZM233.631 218.79C232.978 219.397 232.161 219.7 231.181 219.7C228.474 219.7 227.121 218.043 227.121 214.73V209.9C227.121 208.22 227.378 206.773 227.891 205.56C228.404 204.347 229.128 203.227 230.061 202.2C230.994 201.173 232.418 199.773 234.331 198L235.591 196.81V183.86C235.591 182.74 235.404 181.993 235.031 181.62C234.658 181.247 233.888 181.06 232.721 181.06C230.994 181.06 229.804 181.41 229.151 182.11C228.498 182.763 228.171 183.743 228.171 185.05C228.171 186.59 228.638 188.177 229.571 189.81C230.504 191.443 232.348 193.637 235.101 196.39H228.381C227.168 193.497 226.561 189.973 226.561 185.82C226.561 184.327 226.911 182.857 227.611 181.41C228.311 179.917 229.268 178.703 230.481 177.77C231.694 176.79 233.001 176.3 234.401 176.3C236.408 176.3 237.924 176.813 238.951 177.84C239.978 178.82 240.491 180.22 240.491 182.04V210.74C240.491 212.467 240.608 213.61 240.841 214.17C241.121 214.683 241.494 214.94 241.961 214.94C242.334 214.94 242.614 214.753 242.801 214.38C242.988 214.007 243.104 213.283 243.151 212.21L243.361 199.96H244.341L244.551 211.93C244.598 214.403 244.341 216.317 243.781 217.67C243.221 219.023 242.171 219.7 240.631 219.7C239.371 219.7 238.461 219.233 237.901 218.3C237.341 217.32 237.061 215.523 237.061 212.91C237.061 212.163 237.154 210.437 237.341 207.73L236.641 207.59C236.314 210.95 235.894 213.517 235.381 215.29C234.868 217.017 234.284 218.183 233.631 218.79ZM232.021 212.91C232.021 214.03 232.418 214.59 233.211 214.59C233.958 214.59 234.541 213.633 234.961 211.72C235.381 209.76 235.591 207.147 235.591 203.88V198.28C234.144 199.68 233.188 200.917 232.721 201.99C232.254 203.017 232.021 204.323 232.021 205.91V212.91ZM263.316 214.45H265.416V225.79H264.016L261.706 219H252.186L249.876 225.79H248.476V214.45H249.946C250.459 213.33 250.832 211.603 251.066 209.27C251.346 206.937 251.509 203.413 251.556 198.7C251.649 193.94 251.696 186.707 251.696 177H263.316V214.45ZM258.416 214.45V181.55H253.446C253.446 191.257 253.399 198.397 253.306 202.97C253.259 207.543 253.119 211.37 252.886 214.45H258.416ZM286.153 177V219H281.183L281.603 201.78L282.583 185.61H281.533L275.723 219H270.753V177H275.793L275.303 194.22L274.323 210.39H275.303L281.183 177H286.153ZM308.136 177V214.45H310.236V225.79H308.836L306.526 219H293.576V177H298.476V214.45H303.236V177H308.136ZM330.937 177V219H325.967L326.387 201.78L327.367 185.61H326.317L320.507 219H315.537V177H320.577L320.087 194.22L319.107 210.39H320.087L325.967 177H330.937ZM346.13 174.48C343.797 174.48 342 173.967 340.74 172.94C339.527 171.913 338.92 170.467 338.92 168.6V167.9H343.82L343.68 168.6C343.54 169.347 343.47 170.023 343.47 170.63C343.47 172.543 344.287 173.5 345.92 173.5C347.553 173.5 348.37 172.543 348.37 170.63C348.37 170.023 348.3 169.347 348.16 168.6L348.02 167.9H352.92V168.6C352.92 170.467 352.337 171.913 351.17 172.94C350.003 173.967 348.323 174.48 346.13 174.48ZM353.76 177V219H348.79L349.21 201.78L350.19 185.61H349.14L343.33 219H338.36V177H343.4L342.91 194.22L341.93 210.39H342.91L348.79 177H353.76Z" fill="white"/>
</svg>
