<svg width="572" height="800" viewBox="0 0 572 800" fill="none" xmlns="http://www.w3.org/2000/svg">
<rect width="572" height="800" rx="7" fill="#0500FF"/>
<path d="M47.414 75V47.46H53.33C54.5767 47.46 55.6307 47.6187 56.492 47.936C57.3533 48.2533 58.0447 48.718 58.566 49.33C59.0873 49.942 59.4613 50.6787 59.688 51.54C59.9373 52.3787 60.062 53.308 60.062 54.328C60.062 55.212 59.9487 56.0733 59.722 56.912C59.518 57.728 59.1667 58.4307 58.668 59.02C58.1693 59.5867 57.4667 59.9607 56.56 60.142C57.6253 60.4367 58.464 60.9467 59.076 61.672C59.688 62.3747 60.1073 63.202 60.334 64.154C60.5833 65.0833 60.708 66.0467 60.708 67.044C60.708 68.132 60.606 69.1633 60.402 70.138C60.2207 71.09 59.8807 71.9287 59.382 72.654C58.906 73.3793 58.2487 73.9573 57.41 74.388C56.5713 74.796 55.506 75 54.214 75H47.414ZM49.998 73.062H53.704C55.4947 73.062 56.6847 72.5747 57.274 71.6C57.886 70.6253 58.192 69.1067 58.192 67.044C58.192 65.9333 58.056 64.9473 57.784 64.086C57.512 63.2247 57.0473 62.556 56.39 62.08C55.7553 61.5813 54.8827 61.332 53.772 61.332H49.998V73.062ZM49.998 59.326H53.738C54.8033 59.326 55.6193 59.122 56.186 58.714C56.7527 58.2833 57.1493 57.7053 57.376 56.98C57.6027 56.232 57.716 55.348 57.716 54.328C57.716 53.2173 57.5573 52.2993 57.24 51.574C56.9453 50.8487 56.424 50.316 55.676 49.976C54.928 49.636 53.8513 49.466 52.446 49.466H49.998V59.326ZM63.9704 81.46V55.348H66.4524V56.98C66.8604 56.4813 67.3704 56.0393 67.9824 55.654C68.5944 55.246 69.3424 55.042 70.2264 55.042C71.1784 55.042 71.9377 55.2687 72.5044 55.722C73.0937 56.1527 73.5471 56.742 73.8644 57.49C74.1817 58.238 74.3971 59.0767 74.5104 60.006C74.6237 60.9353 74.6804 61.8873 74.6804 62.862V67.01C74.6804 68.6873 74.5444 70.1493 74.2724 71.396C74.0004 72.62 73.5131 73.5833 72.8104 74.286C72.1304 74.966 71.1784 75.306 69.9544 75.306C69.1611 75.306 68.4697 75.102 67.8804 74.694C67.3137 74.286 66.8377 73.8667 66.4524 73.436V81.46H63.9704ZM69.5804 73.334C70.3284 73.334 70.8837 73.096 71.2464 72.62C71.6317 72.144 71.8811 71.4413 71.9944 70.512C72.1304 69.56 72.1984 68.4153 72.1984 67.078V62.862C72.1984 61.5927 72.1304 60.5273 71.9944 59.666C71.8811 58.782 71.6317 58.1133 71.2464 57.66C70.8611 57.2067 70.2831 56.98 69.5124 56.98C68.8777 56.98 68.2884 57.15 67.7444 57.49C67.2231 57.83 66.7924 58.17 66.4524 58.51V71.906C66.8151 72.2913 67.2571 72.6313 67.7784 72.926C68.3224 73.198 68.9231 73.334 69.5804 73.334ZM77.6041 79.896V77.958C78.7375 77.958 79.5875 77.8673 80.1541 77.686C80.7435 77.5273 81.1288 77.2893 81.3101 76.972C81.5141 76.6773 81.6161 76.326 81.6161 75.918C81.6161 75.5553 81.5481 75.0793 81.4121 74.49C81.2761 73.9007 81.1288 73.2887 80.9701 72.654L76.9241 55.348H79.4061L82.8061 72.076L86.1041 55.348H88.6201L83.8601 76.394C83.6788 77.2327 83.3501 77.9013 82.8741 78.4C82.4208 78.9213 81.8088 79.2953 81.0381 79.522C80.2901 79.7713 79.3608 79.896 78.2501 79.896H77.6041ZM98.2714 75V66.806C97.8407 66.874 97.3874 66.9533 96.9114 67.044C96.458 67.112 95.9594 67.146 95.4154 67.146C94.486 67.146 93.6474 67.01 92.8994 66.738C92.174 66.4433 91.596 65.9673 91.1654 65.31C90.7574 64.6527 90.5534 63.7573 90.5534 62.624V55.348H93.0354V62.692C93.0354 63.5533 93.262 64.2107 93.7154 64.664C94.1914 65.1173 94.928 65.344 95.9254 65.344C96.4014 65.344 96.8094 65.31 97.1494 65.242C97.512 65.174 97.886 65.106 98.2714 65.038V55.348H100.787V75H98.2714ZM104.611 75V55.348H107.093V63.916H113.213V55.348H115.729V75H113.213V65.786H107.093V75H104.611ZM118.975 79.896V77.958C120.109 77.958 120.959 77.8673 121.525 77.686C122.115 77.5273 122.5 77.2893 122.681 76.972C122.885 76.6773 122.987 76.326 122.987 75.918C122.987 75.5553 122.919 75.0793 122.783 74.49C122.647 73.9007 122.5 73.2887 122.341 72.654L118.295 55.348H120.777L124.177 72.076L127.475 55.348H129.991L125.231 76.394C125.05 77.2327 124.721 77.9013 124.245 78.4C123.792 78.9213 123.18 79.2953 122.409 79.522C121.661 79.7713 120.732 79.896 119.621 79.896H118.975ZM142.328 75.306C141.036 75.306 140.039 75.0227 139.336 74.456C138.634 73.8667 138.135 73.028 137.84 71.94C137.568 70.8293 137.432 69.4807 137.432 67.894V66.092H134.712V75H132.468V55.348H134.712V64.426H137.432V62.454C137.432 60.8673 137.568 59.53 137.84 58.442C138.135 57.3313 138.634 56.4927 139.336 55.926C140.039 55.3367 141.036 55.042 142.328 55.042C143.62 55.042 144.618 55.3367 145.32 55.926C146.023 56.4927 146.51 57.3313 146.782 58.442C147.077 59.53 147.224 60.8673 147.224 62.454V67.894C147.224 69.4807 147.077 70.8293 146.782 71.94C146.51 73.028 146.023 73.8667 145.32 74.456C144.618 75.0227 143.62 75.306 142.328 75.306ZM142.328 73.436C143.144 73.436 143.734 73.2093 144.096 72.756C144.482 72.3027 144.72 71.668 144.81 70.852C144.924 70.0133 144.98 69.0727 144.98 68.03V62.318C144.98 61.2527 144.924 60.3233 144.81 59.53C144.72 58.714 144.482 58.0793 144.096 57.626C143.734 57.15 143.144 56.912 142.328 56.912C141.512 56.912 140.912 57.15 140.526 57.626C140.164 58.0793 139.926 58.714 139.812 59.53C139.722 60.3233 139.676 61.2527 139.676 62.318V68.03C139.676 69.0727 139.722 70.0133 139.812 70.852C139.926 71.668 140.164 72.3027 140.526 72.756C140.912 73.2093 141.512 73.436 142.328 73.436ZM157.636 75V55.348H160.118V64.018H161.512L166 55.348H168.584L163.79 64.834L168.72 75H166.136L161.512 65.548H160.118V75H157.636ZM170.818 81.46V55.348H173.3V56.98C173.708 56.4813 174.218 56.0393 174.83 55.654C175.442 55.246 176.19 55.042 177.074 55.042C178.026 55.042 178.785 55.2687 179.352 55.722C179.941 56.1527 180.395 56.742 180.712 57.49C181.029 58.238 181.245 59.0767 181.358 60.006C181.471 60.9353 181.528 61.8873 181.528 62.862V67.01C181.528 68.6873 181.392 70.1493 181.12 71.396C180.848 72.62 180.361 73.5833 179.658 74.286C178.978 74.966 178.026 75.306 176.802 75.306C176.009 75.306 175.317 75.102 174.728 74.694C174.161 74.286 173.685 73.8667 173.3 73.436V81.46H170.818ZM176.428 73.334C177.176 73.334 177.731 73.096 178.094 72.62C178.479 72.144 178.729 71.4413 178.842 70.512C178.978 69.56 179.046 68.4153 179.046 67.078V62.862C179.046 61.5927 178.978 60.5273 178.842 59.666C178.729 58.782 178.479 58.1133 178.094 57.66C177.709 57.2067 177.131 56.98 176.36 56.98C175.725 56.98 175.136 57.15 174.592 57.49C174.071 57.83 173.64 58.17 173.3 58.51V71.906C173.663 72.2913 174.105 72.6313 174.626 72.926C175.17 73.198 175.771 73.334 176.428 73.334ZM188.396 75.306C187.602 75.306 186.911 75.1133 186.322 74.728C185.732 74.32 185.268 73.7873 184.928 73.13C184.61 72.45 184.452 71.7133 184.452 70.92C184.452 69.9227 184.588 69.0727 184.86 68.37C185.154 67.6673 185.608 67.044 186.22 66.5C186.854 65.9333 187.67 65.3893 188.668 64.868C189.688 64.324 190.923 63.7233 192.374 63.066V61.672C192.374 60.4707 192.294 59.53 192.136 58.85C192 58.1473 191.75 57.6487 191.388 57.354C191.048 57.0593 190.56 56.912 189.926 56.912C189.404 56.912 188.94 57.014 188.532 57.218C188.124 57.422 187.795 57.7733 187.546 58.272C187.296 58.748 187.172 59.4167 187.172 60.278V60.958L184.724 60.924C184.746 58.9293 185.166 57.456 185.982 56.504C186.82 55.5293 188.18 55.042 190.062 55.042C191.83 55.042 193.065 55.5747 193.768 56.64C194.493 57.6827 194.856 59.3147 194.856 61.536V71.09C194.856 71.43 194.867 71.872 194.89 72.416C194.912 72.9373 194.935 73.436 194.958 73.912C194.98 74.388 195.003 74.7507 195.026 75H192.816C192.77 74.5693 192.702 74.0933 192.612 73.572C192.521 73.028 192.464 72.5973 192.442 72.28C192.17 73.0733 191.682 73.776 190.98 74.388C190.3 75 189.438 75.306 188.396 75.306ZM189.178 73.198C189.676 73.198 190.13 73.0733 190.538 72.824C190.946 72.5747 191.308 72.28 191.626 71.94C191.943 71.5773 192.192 71.2147 192.374 70.852V64.732C191.399 65.2307 190.56 65.684 189.858 66.092C189.178 66.5 188.622 66.8967 188.192 67.282C187.761 67.6673 187.444 68.1093 187.24 68.608C187.036 69.084 186.934 69.6507 186.934 70.308C186.934 71.3507 187.16 72.0987 187.614 72.552C188.067 72.9827 188.588 73.198 189.178 73.198ZM203.405 75.306C201.864 75.306 200.719 74.966 199.971 74.286C199.223 73.606 198.725 72.688 198.475 71.532C198.249 70.3533 198.135 69.0273 198.135 67.554V62.964C198.135 61.1507 198.283 59.666 198.577 58.51C198.872 57.3313 199.393 56.4587 200.141 55.892C200.912 55.3253 202 55.042 203.405 55.042C204.788 55.042 205.842 55.3027 206.567 55.824C207.293 56.3453 207.78 57.082 208.029 58.034C208.279 58.986 208.403 60.0853 208.403 61.332V62.284H206.091V61.332C206.091 60.176 206.001 59.2807 205.819 58.646C205.661 58.0113 205.377 57.5693 204.969 57.32C204.584 57.048 204.063 56.912 203.405 56.912C202.635 56.912 202.045 57.0933 201.637 57.456C201.229 57.8187 200.957 58.4193 200.821 59.258C200.685 60.074 200.617 61.1733 200.617 62.556V68.064C200.617 70.036 200.81 71.43 201.195 72.246C201.581 73.0393 202.329 73.436 203.439 73.436C204.21 73.436 204.788 73.266 205.173 72.926C205.559 72.5633 205.808 72.0307 205.921 71.328C206.035 70.6253 206.091 69.7527 206.091 68.71V67.622H208.403V68.574C208.403 69.8887 208.279 71.056 208.029 72.076C207.803 73.0733 207.327 73.8667 206.601 74.456C205.876 75.0227 204.811 75.306 203.405 75.306ZM211.724 75V55.348H213.832V70.478L220.394 55.348H222.4V75H220.292V59.904L213.798 75H211.724ZM226.065 75L226.235 55.348H228.105L232.695 68.846L237.285 55.348H239.223L239.393 75H237.251L237.217 61.196L233.103 72.96H232.321L228.241 61.264L228.207 75H226.065ZM249.974 75V55.348H252.082V70.478L258.644 55.348H260.65V75H258.542V59.904L252.048 75H249.974ZM271.39 81.46V55.348H273.872V56.98C274.28 56.4813 274.79 56.0393 275.402 55.654C276.014 55.246 276.762 55.042 277.646 55.042C278.598 55.042 279.358 55.2687 279.924 55.722C280.514 56.1527 280.967 56.742 281.284 57.49C281.602 58.238 281.817 59.0767 281.93 60.006C282.044 60.9353 282.1 61.8873 282.1 62.862V67.01C282.1 68.6873 281.964 70.1493 281.692 71.396C281.42 72.62 280.933 73.5833 280.23 74.286C279.55 74.966 278.598 75.306 277.374 75.306C276.581 75.306 275.89 75.102 275.3 74.694C274.734 74.286 274.258 73.8667 273.872 73.436V81.46H271.39ZM277 73.334C277.748 73.334 278.304 73.096 278.666 72.62C279.052 72.144 279.301 71.4413 279.414 70.512C279.55 69.56 279.618 68.4153 279.618 67.078V62.862C279.618 61.5927 279.55 60.5273 279.414 59.666C279.301 58.782 279.052 58.1133 278.666 57.66C278.281 57.2067 277.703 56.98 276.932 56.98C276.298 56.98 275.708 57.15 275.164 57.49C274.643 57.83 274.212 58.17 273.872 58.51V71.906C274.235 72.2913 274.677 72.6313 275.198 72.926C275.742 73.198 276.343 73.334 277 73.334ZM288.968 75.306C288.175 75.306 287.483 75.1133 286.894 74.728C286.305 74.32 285.84 73.7873 285.5 73.13C285.183 72.45 285.024 71.7133 285.024 70.92C285.024 69.9227 285.16 69.0727 285.432 68.37C285.727 67.6673 286.18 67.044 286.792 66.5C287.427 65.9333 288.243 65.3893 289.24 64.868C290.26 64.324 291.495 63.7233 292.946 63.066V61.672C292.946 60.4707 292.867 59.53 292.708 58.85C292.572 58.1473 292.323 57.6487 291.96 57.354C291.62 57.0593 291.133 56.912 290.498 56.912C289.977 56.912 289.512 57.014 289.104 57.218C288.696 57.422 288.367 57.7733 288.118 58.272C287.869 58.748 287.744 59.4167 287.744 60.278V60.958L285.296 60.924C285.319 58.9293 285.738 57.456 286.554 56.504C287.393 55.5293 288.753 55.042 290.634 55.042C292.402 55.042 293.637 55.5747 294.34 56.64C295.065 57.6827 295.428 59.3147 295.428 61.536V71.09C295.428 71.43 295.439 71.872 295.462 72.416C295.485 72.9373 295.507 73.436 295.53 73.912C295.553 74.388 295.575 74.7507 295.598 75H293.388C293.343 74.5693 293.275 74.0933 293.184 73.572C293.093 73.028 293.037 72.5973 293.014 72.28C292.742 73.0733 292.255 73.776 291.552 74.388C290.872 75 290.011 75.306 288.968 75.306ZM289.75 73.198C290.249 73.198 290.702 73.0733 291.11 72.824C291.518 72.5747 291.881 72.28 292.198 71.94C292.515 71.5773 292.765 71.2147 292.946 70.852V64.732C291.971 65.2307 291.133 65.684 290.43 66.092C289.75 66.5 289.195 66.8967 288.764 67.282C288.333 67.6673 288.016 68.1093 287.812 68.608C287.608 69.084 287.506 69.6507 287.506 70.308C287.506 71.3507 287.733 72.0987 288.186 72.552C288.639 72.9827 289.161 73.198 289.75 73.198ZM303.978 75.306C302.436 75.306 301.292 74.966 300.544 74.286C299.796 73.606 299.297 72.688 299.048 71.532C298.821 70.3533 298.708 69.0273 298.708 67.554V62.964C298.708 61.1507 298.855 59.666 299.15 58.51C299.444 57.3313 299.966 56.4587 300.714 55.892C301.484 55.3253 302.572 55.042 303.978 55.042C305.36 55.042 306.414 55.3027 307.14 55.824C307.865 56.3453 308.352 57.082 308.602 58.034C308.851 58.986 308.976 60.0853 308.976 61.332V62.284H306.664V61.332C306.664 60.176 306.573 59.2807 306.392 58.646C306.233 58.0113 305.95 57.5693 305.542 57.32C305.156 57.048 304.635 56.912 303.978 56.912C303.207 56.912 302.618 57.0933 302.21 57.456C301.802 57.8187 301.53 58.4193 301.394 59.258C301.258 60.074 301.19 61.1733 301.19 62.556V68.064C301.19 70.036 301.382 71.43 301.768 72.246C302.153 73.0393 302.901 73.436 304.012 73.436C304.782 73.436 305.36 73.266 305.746 72.926C306.131 72.5633 306.38 72.0307 306.494 71.328C306.607 70.6253 306.664 69.7527 306.664 68.71V67.622H308.976V68.574C308.976 69.8887 308.851 71.056 308.602 72.076C308.375 73.0733 307.899 73.8667 307.174 74.456C306.448 75.0227 305.383 75.306 303.978 75.306ZM312.297 75V55.348H322.803V75H320.321V57.286H314.779V75H312.297ZM326.574 75V55.348H328.682V70.478L335.244 55.348H337.25V75H335.142V59.904L328.648 75H326.574ZM345.946 75.306C344.405 75.306 343.26 74.966 342.512 74.286C341.764 73.606 341.266 72.688 341.016 71.532C340.79 70.3533 340.676 69.0273 340.676 67.554V62.964C340.676 61.1507 340.824 59.666 341.118 58.51C341.413 57.3313 341.934 56.4587 342.682 55.892C343.453 55.3253 344.541 55.042 345.946 55.042C347.329 55.042 348.383 55.3027 349.108 55.824C349.834 56.3453 350.321 57.082 350.57 58.034C350.82 58.986 350.944 60.0853 350.944 61.332V62.284H348.632V61.332C348.632 60.176 348.542 59.2807 348.36 58.646C348.202 58.0113 347.918 57.5693 347.51 57.32C347.125 57.048 346.604 56.912 345.946 56.912C345.176 56.912 344.586 57.0933 344.178 57.456C343.77 57.8187 343.498 58.4193 343.362 59.258C343.226 60.074 343.158 61.1733 343.158 62.556V68.064C343.158 70.036 343.351 71.43 343.736 72.246C344.122 73.0393 344.87 73.436 345.98 73.436C346.751 73.436 347.329 73.266 347.714 72.926C348.1 72.5633 348.349 72.0307 348.462 71.328C348.576 70.6253 348.632 69.7527 348.632 68.71V67.622H350.944V68.574C350.944 69.8887 350.82 71.056 350.57 72.076C350.344 73.0733 349.868 73.8667 349.142 74.456C348.417 75.0227 347.352 75.306 345.946 75.306ZM354.265 75V55.348H356.747V63.338C356.793 63.338 356.906 63.338 357.087 63.338C357.269 63.338 357.45 63.338 357.631 63.338C357.835 63.338 357.937 63.338 357.937 63.338C359.275 63.338 360.374 63.4853 361.235 63.78C362.097 64.052 362.777 64.4487 363.275 64.97C363.774 65.4913 364.125 66.1147 364.329 66.84C364.533 67.5427 364.635 68.3473 364.635 69.254C364.635 70.0927 364.533 70.8633 364.329 71.566C364.125 72.246 363.763 72.8467 363.241 73.368C362.743 73.8893 362.04 74.2973 361.133 74.592C360.249 74.864 359.116 75 357.733 75H354.265ZM356.747 73.436H357.733C359.003 73.436 359.966 73.266 360.623 72.926C361.281 72.586 361.734 72.0987 361.983 71.464C362.233 70.8293 362.357 70.0813 362.357 69.22C362.357 68.3813 362.244 67.6447 362.017 67.01C361.791 66.3753 361.36 65.8653 360.725 65.48C360.091 65.0947 359.127 64.902 357.835 64.902C357.813 64.902 357.677 64.902 357.427 64.902C357.201 64.902 356.974 64.902 356.747 64.902V73.436ZM367.117 75V55.348H369.599V75H367.117ZM373.424 75V55.348H378.184C379.476 55.348 380.473 55.5747 381.176 56.028C381.901 56.4813 382.422 57.0707 382.74 57.796C383.057 58.4987 383.216 59.258 383.216 60.074C383.216 60.958 383.046 61.808 382.706 62.624C382.366 63.4173 381.697 63.984 380.7 64.324C381.47 64.528 382.06 64.8907 382.468 65.412C382.898 65.9107 383.204 66.5 383.386 67.18C383.567 67.86 383.658 68.574 383.658 69.322C383.658 70.4327 383.51 71.4187 383.216 72.28C382.921 73.1413 382.4 73.81 381.652 74.286C380.904 74.762 379.838 75 378.456 75H373.424ZM375.872 73.096H378.014C378.784 73.096 379.396 72.9487 379.85 72.654C380.326 72.3593 380.666 71.9287 380.87 71.362C381.096 70.7727 381.21 70.0587 381.21 69.22C381.21 68.1773 381.074 67.3953 380.802 66.874C380.552 66.33 380.201 65.956 379.748 65.752C379.317 65.548 378.796 65.446 378.184 65.446H375.872V73.096ZM375.872 63.644H378.354C379.124 63.644 379.748 63.3607 380.224 62.794C380.7 62.2273 380.938 61.4 380.938 60.312C380.938 59.292 380.677 58.5327 380.156 58.034C379.657 57.5127 378.909 57.252 377.912 57.252H375.872V63.644ZM390.072 75.306C389.278 75.306 388.587 75.1133 387.998 74.728C387.408 74.32 386.944 73.7873 386.604 73.13C386.286 72.45 386.128 71.7133 386.128 70.92C386.128 69.9227 386.264 69.0727 386.536 68.37C386.83 67.6673 387.284 67.044 387.896 66.5C388.53 65.9333 389.346 65.3893 390.344 64.868C391.364 64.324 392.599 63.7233 394.05 63.066V61.672C394.05 60.4707 393.97 59.53 393.812 58.85C393.676 58.1473 393.426 57.6487 393.064 57.354C392.724 57.0593 392.236 56.912 391.602 56.912C391.08 56.912 390.616 57.014 390.208 57.218C389.8 57.422 389.471 57.7733 389.222 58.272C388.972 58.748 388.848 59.4167 388.848 60.278V60.958L386.4 60.924C386.422 58.9293 386.842 57.456 387.658 56.504C388.496 55.5293 389.856 55.042 391.738 55.042C393.506 55.042 394.741 55.5747 395.444 56.64C396.169 57.6827 396.532 59.3147 396.532 61.536V71.09C396.532 71.43 396.543 71.872 396.566 72.416C396.588 72.9373 396.611 73.436 396.634 73.912C396.656 74.388 396.679 74.7507 396.702 75H394.492C394.446 74.5693 394.378 74.0933 394.288 73.572C394.197 73.028 394.14 72.5973 394.118 72.28C393.846 73.0733 393.358 73.776 392.656 74.388C391.976 75 391.114 75.306 390.072 75.306ZM390.854 73.198C391.352 73.198 391.806 73.0733 392.214 72.824C392.622 72.5747 392.984 72.28 393.302 71.94C393.619 71.5773 393.868 71.2147 394.05 70.852V64.732C393.075 65.2307 392.236 65.684 391.534 66.092C390.854 66.5 390.298 66.8967 389.868 67.282C389.437 67.6673 389.12 68.1093 388.916 68.608C388.712 69.084 388.61 69.6507 388.61 70.308C388.61 71.3507 388.836 72.0987 389.29 72.552C389.743 72.9827 390.264 73.198 390.854 73.198ZM405.115 75.306C403.891 75.306 402.883 75.068 402.089 74.592C401.319 74.0933 400.741 73.2773 400.355 72.144C399.993 71.0107 399.811 69.5033 399.811 67.622V62.658C399.811 60.7087 400.004 59.19 400.389 58.102C400.775 56.9913 401.364 56.2093 402.157 55.756C402.951 55.28 403.948 55.042 405.149 55.042C406.532 55.042 407.586 55.3367 408.311 55.926C409.037 56.5153 409.535 57.4107 409.807 58.612C410.102 59.7907 410.249 61.3093 410.249 63.168V64.936H402.293V68.37C402.293 69.6393 402.384 70.648 402.565 71.396C402.769 72.1213 403.075 72.6427 403.483 72.96C403.914 73.2773 404.458 73.436 405.115 73.436C405.614 73.436 406.067 73.3453 406.475 73.164C406.883 72.96 407.201 72.586 407.427 72.042C407.677 71.4753 407.801 70.682 407.801 69.662V68.302H410.215V69.39C410.215 71.1807 409.841 72.62 409.093 73.708C408.368 74.7733 407.042 75.306 405.115 75.306ZM402.293 63.508H407.801V61.876C407.801 60.8333 407.745 59.9493 407.631 59.224C407.518 58.476 407.269 57.9093 406.883 57.524C406.521 57.116 405.931 56.912 405.115 56.912C404.435 56.912 403.88 57.0593 403.449 57.354C403.041 57.6487 402.747 58.1813 402.565 58.952C402.384 59.7 402.293 60.7767 402.293 62.182V63.508ZM413.463 75L413.633 55.348H415.503L420.093 68.846L424.683 55.348H426.621L426.791 75H424.649L424.615 61.196L420.501 72.96H419.719L415.639 61.264L415.605 75H413.463ZM46.904 125V105.348H49.012V120.478L55.574 105.348H57.58V125H55.472V109.904L48.978 125H46.904ZM65.6986 125.34C64.8826 125.34 64.1686 125.227 63.5566 125C62.9446 124.751 62.4346 124.377 62.0266 123.878C61.6186 123.379 61.3126 122.767 61.1086 122.042C60.9046 121.294 60.8026 120.444 60.8026 119.492H63.0126C63.0126 120.807 63.2279 121.815 63.6586 122.518C64.1119 123.198 64.8146 123.538 65.7666 123.538C66.4239 123.538 66.9452 123.379 67.3306 123.062C67.7159 122.722 67.9879 122.246 68.1466 121.634C68.3279 120.999 68.4186 120.263 68.4186 119.424C68.4186 118.563 68.2939 117.871 68.0446 117.35C67.7952 116.806 67.3646 116.398 66.7526 116.126C66.1406 115.854 65.3246 115.718 64.3046 115.718V113.882C65.9139 113.882 67.0019 113.599 67.5686 113.032C68.1352 112.443 68.4186 111.604 68.4186 110.516C68.4186 109.451 68.1919 108.589 67.7386 107.932C67.2852 107.252 66.6166 106.912 65.7326 106.912C64.8486 106.912 64.1459 107.195 63.6246 107.762C63.1032 108.306 62.8426 109.213 62.8426 110.482H60.6666C60.6666 109.213 60.8706 108.181 61.2786 107.388C61.6866 106.572 62.2759 105.983 63.0466 105.62C63.8172 105.235 64.7352 105.042 65.8006 105.042C66.9566 105.042 67.8859 105.291 68.5886 105.79C69.2912 106.289 69.8012 106.946 70.1186 107.762C70.4586 108.578 70.6286 109.451 70.6286 110.38C70.6286 111.332 70.4699 112.125 70.1526 112.76C69.8352 113.372 69.4159 113.837 68.8946 114.154C68.3959 114.471 67.8746 114.675 67.3306 114.766C67.8972 114.902 68.4299 115.14 68.9286 115.48C69.4499 115.797 69.8692 116.285 70.1866 116.942C70.5266 117.599 70.6966 118.517 70.6966 119.696C70.6966 121.487 70.2659 122.881 69.4046 123.878C68.5659 124.853 67.3306 125.34 65.6986 125.34ZM79.3753 125.306C78.4007 125.306 77.4827 125.079 76.6213 124.626C75.76 124.173 75.08 123.47 74.5813 122.518C74.0827 121.543 73.8333 120.297 73.8333 118.778V106.674C73.8333 104.974 73.9467 103.603 74.1733 102.56C74.4 101.495 74.7513 100.667 75.2273 100.078C75.726 99.4887 76.3267 99.0467 77.0293 98.752C77.7547 98.412 78.4913 98.174 79.2393 98.038C80.01 97.902 80.8033 97.7433 81.6193 97.562C82.458 97.3807 83.3307 97.0747 84.2373 96.644L84.6793 98.718C83.8407 99.126 83.002 99.4207 82.1633 99.602C81.3247 99.7607 80.5427 99.908 79.8173 100.044C79.1147 100.18 78.4687 100.407 77.8793 100.724C77.2673 101.064 76.8027 101.619 76.4853 102.39C76.1907 103.138 76.0433 104.249 76.0433 105.722V108.51C76.3153 108.215 76.7007 107.932 77.1993 107.66C77.7207 107.388 78.276 107.161 78.8653 106.98C79.4547 106.799 80.0213 106.708 80.5653 106.708C81.5173 106.708 82.3447 106.946 83.0473 107.422C83.75 107.898 84.2827 108.68 84.6453 109.768C85.0307 110.856 85.2233 112.341 85.2233 114.222V117.656C85.2233 119.696 84.974 121.26 84.4753 122.348C83.9993 123.436 83.3307 124.195 82.4693 124.626C81.608 125.057 80.5767 125.283 79.3753 125.306ZM79.5793 123.436C80.282 123.413 80.86 123.255 81.3133 122.96C81.7667 122.665 82.1067 122.155 82.3333 121.43C82.5827 120.682 82.7073 119.639 82.7073 118.302V113.576C82.7073 112.284 82.6167 111.275 82.4353 110.55C82.2767 109.802 82.0047 109.269 81.6193 108.952C81.234 108.635 80.7127 108.476 80.0553 108.476C79.67 108.476 79.2393 108.555 78.7633 108.714C78.31 108.85 77.8567 109.031 77.4033 109.258C76.9727 109.485 76.61 109.734 76.3153 110.006V118.846C76.3153 119.957 76.4513 120.852 76.7233 121.532C77.018 122.189 77.4033 122.677 77.8793 122.994C78.378 123.311 78.9447 123.459 79.5793 123.436ZM88.1627 129.896V127.958C89.2961 127.958 90.1461 127.867 90.7127 127.686C91.3021 127.527 91.6874 127.289 91.8687 126.972C92.0727 126.677 92.1747 126.326 92.1747 125.918C92.1747 125.555 92.1067 125.079 91.9707 124.49C91.8347 123.901 91.6874 123.289 91.5287 122.654L87.4827 105.348H89.9647L93.3647 122.076L96.6627 105.348H99.1787L94.4187 126.394C94.2374 127.233 93.9087 127.901 93.4327 128.4C92.9794 128.921 92.3674 129.295 91.5967 129.522C90.8487 129.771 89.9194 129.896 88.8087 129.896H88.1627ZM108.595 125V105.348H113.355C114.647 105.348 115.645 105.575 116.347 106.028C117.073 106.481 117.594 107.071 117.911 107.796C118.229 108.499 118.387 109.258 118.387 110.074C118.387 110.958 118.217 111.808 117.877 112.624C117.537 113.417 116.869 113.984 115.871 114.324C116.642 114.528 117.231 114.891 117.639 115.412C118.07 115.911 118.376 116.5 118.557 117.18C118.739 117.86 118.829 118.574 118.829 119.322C118.829 120.433 118.682 121.419 118.387 122.28C118.093 123.141 117.571 123.81 116.823 124.286C116.075 124.762 115.01 125 113.627 125H108.595ZM111.043 123.096H113.185C113.956 123.096 114.568 122.949 115.021 122.654C115.497 122.359 115.837 121.929 116.041 121.362C116.268 120.773 116.381 120.059 116.381 119.22C116.381 118.177 116.245 117.395 115.973 116.874C115.724 116.33 115.373 115.956 114.919 115.752C114.489 115.548 113.967 115.446 113.355 115.446H111.043V123.096ZM111.043 113.644H113.525C114.296 113.644 114.919 113.361 115.395 112.794C115.871 112.227 116.109 111.4 116.109 110.312C116.109 109.292 115.849 108.533 115.327 108.034C114.829 107.513 114.081 107.252 113.083 107.252H111.043V113.644ZM127.219 129.726V123.3C127.808 122.915 128.33 122.427 128.783 121.838C129.236 121.226 129.633 120.421 129.973 119.424C130.313 118.427 130.596 117.157 130.823 115.616C131.05 114.075 131.22 112.182 131.333 109.938L131.639 105.348H139.833V123.198H141.805V129.726H139.935L139.731 125H129.327L129.089 129.726H127.219ZM129.803 123.198H137.419V107.184H133.645L133.339 110.448C133.203 112.601 133.044 114.415 132.863 115.888C132.682 117.361 132.455 118.574 132.183 119.526C131.911 120.478 131.571 121.249 131.163 121.838C130.778 122.405 130.324 122.858 129.803 123.198ZM144.754 131.46V105.348H147.236V106.98C147.644 106.481 148.154 106.039 148.766 105.654C149.378 105.246 150.126 105.042 151.01 105.042C151.962 105.042 152.721 105.269 153.288 105.722C153.877 106.153 154.33 106.742 154.648 107.49C154.965 108.238 155.18 109.077 155.294 110.006C155.407 110.935 155.464 111.887 155.464 112.862V117.01C155.464 118.687 155.328 120.149 155.056 121.396C154.784 122.62 154.296 123.583 153.594 124.286C152.914 124.966 151.962 125.306 150.738 125.306C149.944 125.306 149.253 125.102 148.664 124.694C148.097 124.286 147.621 123.867 147.236 123.436V131.46H144.754ZM150.364 123.334C151.112 123.334 151.667 123.096 152.03 122.62C152.415 122.144 152.664 121.441 152.778 120.512C152.914 119.56 152.982 118.415 152.982 117.078V112.862C152.982 111.593 152.914 110.527 152.778 109.666C152.664 108.782 152.415 108.113 152.03 107.66C151.644 107.207 151.066 106.98 150.296 106.98C149.661 106.98 149.072 107.15 148.528 107.49C148.006 107.83 147.576 108.17 147.236 108.51V121.906C147.598 122.291 148.04 122.631 148.562 122.926C149.106 123.198 149.706 123.334 150.364 123.334ZM163.861 125.306C162.637 125.306 161.629 125.068 160.835 124.592C160.065 124.093 159.487 123.277 159.101 122.144C158.739 121.011 158.557 119.503 158.557 117.622V112.658C158.557 110.709 158.75 109.19 159.135 108.102C159.521 106.991 160.11 106.209 160.903 105.756C161.697 105.28 162.694 105.042 163.895 105.042C165.278 105.042 166.332 105.337 167.057 105.926C167.783 106.515 168.281 107.411 168.553 108.612C168.848 109.791 168.995 111.309 168.995 113.168V114.936H161.039V118.37C161.039 119.639 161.13 120.648 161.311 121.396C161.515 122.121 161.821 122.643 162.229 122.96C162.66 123.277 163.204 123.436 163.861 123.436C164.36 123.436 164.813 123.345 165.221 123.164C165.629 122.96 165.947 122.586 166.173 122.042C166.423 121.475 166.547 120.682 166.547 119.662V118.302H168.961V119.39C168.961 121.181 168.587 122.62 167.839 123.708C167.114 124.773 165.788 125.306 163.861 125.306ZM161.039 113.508H166.547V111.876C166.547 110.833 166.491 109.949 166.377 109.224C166.264 108.476 166.015 107.909 165.629 107.524C165.267 107.116 164.677 106.912 163.861 106.912C163.181 106.912 162.626 107.059 162.195 107.354C161.787 107.649 161.493 108.181 161.311 108.952C161.13 109.7 161.039 110.777 161.039 112.182V113.508ZM172.345 125V105.348H177.105C178.397 105.348 179.395 105.575 180.097 106.028C180.823 106.481 181.344 107.071 181.661 107.796C181.979 108.499 182.137 109.258 182.137 110.074C182.137 110.958 181.967 111.808 181.627 112.624C181.287 113.417 180.619 113.984 179.621 114.324C180.392 114.528 180.981 114.891 181.389 115.412C181.82 115.911 182.126 116.5 182.307 117.18C182.489 117.86 182.579 118.574 182.579 119.322C182.579 120.433 182.432 121.419 182.137 122.28C181.843 123.141 181.321 123.81 180.573 124.286C179.825 124.762 178.76 125 177.377 125H172.345ZM174.793 123.096H176.935C177.706 123.096 178.318 122.949 178.771 122.654C179.247 122.359 179.587 121.929 179.791 121.362C180.018 120.773 180.131 120.059 180.131 119.22C180.131 118.177 179.995 117.395 179.723 116.874C179.474 116.33 179.123 115.956 178.669 115.752C178.239 115.548 177.717 115.446 177.105 115.446H174.793V123.096ZM174.793 113.644H177.275C178.046 113.644 178.669 113.361 179.145 112.794C179.621 112.227 179.859 111.4 179.859 110.312C179.859 109.292 179.599 108.533 179.077 108.034C178.579 107.513 177.831 107.252 176.833 107.252H174.793V113.644ZM185.593 125V105.348H188.075V113.916H194.195V105.348H196.711V125H194.195V115.786H188.075V125H185.593ZM205.432 125.306C204.208 125.306 203.199 125.068 202.406 124.592C201.635 124.093 201.057 123.277 200.672 122.144C200.309 121.011 200.128 119.503 200.128 117.622V112.658C200.128 110.709 200.32 109.19 200.706 108.102C201.091 106.991 201.68 106.209 202.474 105.756C203.267 105.28 204.264 105.042 205.466 105.042C206.848 105.042 207.902 105.337 208.628 105.926C209.353 106.515 209.852 107.411 210.124 108.612C210.418 109.791 210.566 111.309 210.566 113.168V114.936H202.61V118.37C202.61 119.639 202.7 120.648 202.882 121.396C203.086 122.121 203.392 122.643 203.8 122.96C204.23 123.277 204.774 123.436 205.432 123.436C205.93 123.436 206.384 123.345 206.792 123.164C207.2 122.96 207.517 122.586 207.744 122.042C207.993 121.475 208.118 120.682 208.118 119.662V118.302H210.532V119.39C210.532 121.181 210.158 122.62 209.41 123.708C208.684 124.773 207.358 125.306 205.432 125.306ZM202.61 113.508H208.118V111.876C208.118 110.833 208.061 109.949 207.948 109.224C207.834 108.476 207.585 107.909 207.2 107.524C206.837 107.116 206.248 106.912 205.432 106.912C204.752 106.912 204.196 107.059 203.766 107.354C203.358 107.649 203.063 108.181 202.882 108.952C202.7 109.7 202.61 110.777 202.61 112.182V113.508Z" fill="white"/>
<path d="M53.772 610.34C52.14 610.34 50.848 609.989 49.896 609.286C48.944 608.583 48.264 607.62 47.856 606.396C47.448 605.172 47.244 603.778 47.244 602.214V590.246C47.244 588.659 47.448 587.265 47.856 586.064C48.2867 584.84 48.978 583.888 49.93 583.208C50.9047 582.528 52.1853 582.188 53.772 582.188C55.404 582.188 56.696 582.528 57.648 583.208C58.6227 583.888 59.314 584.84 59.722 586.064C60.1527 587.265 60.368 588.659 60.368 590.246V602.214C60.368 603.801 60.1527 605.206 59.722 606.43C59.314 607.654 58.634 608.617 57.682 609.32C56.73 610 55.4267 610.34 53.772 610.34ZM53.772 608.368C54.8373 608.368 55.6533 608.096 56.22 607.552C56.8093 607.008 57.2173 606.294 57.444 605.41C57.6933 604.503 57.818 603.506 57.818 602.418V590.076C57.818 588.965 57.6933 587.968 57.444 587.084C57.2173 586.177 56.8207 585.463 56.254 584.942C55.6873 584.421 54.86 584.16 53.772 584.16C52.7293 584.16 51.9133 584.421 51.324 584.942C50.7573 585.463 50.3493 586.177 50.1 587.084C49.8733 587.968 49.76 588.965 49.76 590.076V602.418C49.76 603.506 49.8733 604.503 50.1 605.41C50.3493 606.294 50.7687 607.008 51.358 607.552C51.9473 608.096 52.752 608.368 53.772 608.368ZM71.1325 610.34C69.7498 610.34 68.5938 610.102 67.6645 609.626C66.7351 609.15 66.0325 608.436 65.5565 607.484C65.1031 606.509 64.8651 605.308 64.8425 603.88C64.8425 603.857 64.8425 603.778 64.8425 603.642C64.8425 603.506 64.8425 603.427 64.8425 603.404H67.2905C67.2905 605.149 67.5738 606.396 68.1405 607.144C68.7071 607.892 69.7158 608.266 71.1665 608.266C71.9371 608.266 72.5945 608.085 73.1385 607.722C73.7051 607.359 74.1358 606.747 74.4305 605.886C74.7251 605.002 74.8725 603.823 74.8725 602.35V597.148C74.5325 597.556 73.9885 597.93 73.2405 598.27C72.5151 598.61 71.5858 598.78 70.4525 598.78C68.9338 598.78 67.7438 598.497 66.8825 597.93C66.0211 597.341 65.4091 596.445 65.0465 595.244C64.6838 594.02 64.5025 592.456 64.5025 590.552C64.5025 588.852 64.7178 587.379 65.1485 586.132C65.6018 584.885 66.3045 583.922 67.2565 583.242C68.2311 582.539 69.5005 582.188 71.0645 582.188C72.5605 582.188 73.7731 582.539 74.7025 583.242C75.6318 583.922 76.3118 584.908 76.7425 586.2C77.1731 587.469 77.3885 588.999 77.3885 590.79V601.772C77.3885 603.449 77.1845 604.934 76.7765 606.226C76.3911 607.518 75.7451 608.527 74.8385 609.252C73.9318 609.977 72.6965 610.34 71.1325 610.34ZM71.0305 596.842C72.0051 596.842 72.8098 596.672 73.4445 596.332C74.0791 595.969 74.5551 595.607 74.8725 595.244V590.518C74.8725 589.022 74.7365 587.821 74.4645 586.914C74.2151 585.985 73.8071 585.316 73.2405 584.908C72.6738 584.477 71.9485 584.262 71.0645 584.262C70.1805 584.262 69.4325 584.477 68.8205 584.908C68.2311 585.316 67.7891 585.951 67.4945 586.812C67.1998 587.673 67.0525 588.761 67.0525 590.076C67.0525 591.572 67.1318 592.83 67.2905 593.85C67.4718 594.847 67.8458 595.595 68.4125 596.094C68.9791 596.593 69.8518 596.842 71.0305 596.842ZM81.6377 610V606.26H84.2557V610H81.6377ZM94.5122 610.34C92.8802 610.34 91.5882 609.989 90.6362 609.286C89.6842 608.583 89.0042 607.62 88.5962 606.396C88.1882 605.172 87.9842 603.778 87.9842 602.214V590.246C87.9842 588.659 88.1882 587.265 88.5962 586.064C89.0269 584.84 89.7182 583.888 90.6702 583.208C91.6449 582.528 92.9256 582.188 94.5122 582.188C96.1442 582.188 97.4362 582.528 98.3882 583.208C99.3629 583.888 100.054 584.84 100.462 586.064C100.893 587.265 101.108 588.659 101.108 590.246V602.214C101.108 603.801 100.893 605.206 100.462 606.43C100.054 607.654 99.3742 608.617 98.4222 609.32C97.4702 610 96.1669 610.34 94.5122 610.34ZM94.5122 608.368C95.5776 608.368 96.3936 608.096 96.9602 607.552C97.5496 607.008 97.9576 606.294 98.1842 605.41C98.4336 604.503 98.5582 603.506 98.5582 602.418V590.076C98.5582 588.965 98.4336 587.968 98.1842 587.084C97.9576 586.177 97.5609 585.463 96.9942 584.942C96.4276 584.421 95.6002 584.16 94.5122 584.16C93.4696 584.16 92.6536 584.421 92.0642 584.942C91.4976 585.463 91.0896 586.177 90.8402 587.084C90.6136 587.968 90.5002 588.965 90.5002 590.076V602.418C90.5002 603.506 90.6136 604.503 90.8402 605.41C91.0896 606.294 91.5089 607.008 92.0982 607.552C92.6876 608.096 93.4922 608.368 94.5122 608.368ZM111.873 610.34C110.49 610.34 109.334 610.102 108.405 609.626C107.475 609.15 106.773 608.436 106.297 607.484C105.843 606.509 105.605 605.308 105.583 603.88C105.583 603.857 105.583 603.778 105.583 603.642C105.583 603.506 105.583 603.427 105.583 603.404H108.031C108.031 605.149 108.314 606.396 108.881 607.144C109.447 607.892 110.456 608.266 111.907 608.266C112.677 608.266 113.335 608.085 113.879 607.722C114.445 607.359 114.876 606.747 115.171 605.886C115.465 605.002 115.613 603.823 115.613 602.35V597.148C115.273 597.556 114.729 597.93 113.981 598.27C113.255 598.61 112.326 598.78 111.193 598.78C109.674 598.78 108.484 598.497 107.623 597.93C106.761 597.341 106.149 596.445 105.787 595.244C105.424 594.02 105.243 592.456 105.243 590.552C105.243 588.852 105.458 587.379 105.889 586.132C106.342 584.885 107.045 583.922 107.997 583.242C108.971 582.539 110.241 582.188 111.805 582.188C113.301 582.188 114.513 582.539 115.443 583.242C116.372 583.922 117.052 584.908 117.483 586.2C117.913 587.469 118.129 588.999 118.129 590.79V601.772C118.129 603.449 117.925 604.934 117.517 606.226C117.131 607.518 116.485 608.527 115.579 609.252C114.672 609.977 113.437 610.34 111.873 610.34ZM111.771 596.842C112.745 596.842 113.55 596.672 114.185 596.332C114.819 595.969 115.295 595.607 115.613 595.244V590.518C115.613 589.022 115.477 587.821 115.205 586.914C114.955 585.985 114.547 585.316 113.981 584.908C113.414 584.477 112.689 584.262 111.805 584.262C110.921 584.262 110.173 584.477 109.561 584.908C108.971 585.316 108.529 585.951 108.235 586.812C107.94 587.673 107.793 588.761 107.793 590.076C107.793 591.572 107.872 592.83 108.031 593.85C108.212 594.847 108.586 595.595 109.153 596.094C109.719 596.593 110.592 596.842 111.771 596.842ZM53.092 660.34C51.664 660.34 50.4967 660.068 49.59 659.524C48.6833 658.957 48.0147 658.175 47.584 657.178C47.176 656.181 46.972 655.002 46.972 653.642V652.962H49.386C49.386 653.007 49.386 653.098 49.386 653.234C49.386 653.37 49.386 653.472 49.386 653.54C49.4087 654.515 49.5333 655.365 49.76 656.09C49.9867 656.793 50.372 657.337 50.916 657.722C51.46 658.107 52.1853 658.3 53.092 658.3C53.9533 658.3 54.6787 658.119 55.268 657.756C55.88 657.371 56.3333 656.747 56.628 655.886C56.9453 655.025 57.104 653.903 57.104 652.52C57.104 650.82 56.798 649.437 56.186 648.372C55.574 647.284 54.5087 646.717 52.99 646.672C52.9447 646.672 52.8313 646.672 52.65 646.672C52.4687 646.672 52.3553 646.672 52.31 646.672V644.292C52.3553 644.292 52.4687 644.292 52.65 644.292C52.8313 644.292 52.9447 644.292 52.99 644.292C54.4633 644.292 55.5173 643.884 56.152 643.068C56.7867 642.229 57.104 640.892 57.104 639.056C57.104 637.628 56.832 636.461 56.288 635.554C55.7667 634.647 54.792 634.194 53.364 634.194C51.9813 634.194 50.9727 634.591 50.338 635.384C49.726 636.155 49.4087 637.356 49.386 638.988C49.386 639.033 49.386 639.113 49.386 639.226C49.386 639.317 49.386 639.396 49.386 639.464H46.972V638.818C46.972 637.458 47.176 636.291 47.584 635.316C48.0147 634.319 48.706 633.548 49.658 633.004C50.61 632.46 51.834 632.188 53.33 632.188C54.7807 632.188 55.9707 632.483 56.9 633.072C57.8293 633.661 58.5207 634.477 58.974 635.52C59.4273 636.54 59.654 637.719 59.654 639.056C59.654 640.983 59.28 642.479 58.532 643.544C57.8067 644.587 56.866 645.244 55.71 645.516C56.39 645.697 57.0247 646.06 57.614 646.604C58.226 647.148 58.7133 647.907 59.076 648.882C59.4613 649.834 59.654 651.035 59.654 652.486C59.654 654.027 59.4273 655.399 58.974 656.6C58.5433 657.779 57.852 658.697 56.9 659.354C55.948 660.011 54.6787 660.34 53.092 660.34ZM77.4198 660V651.806C76.9891 651.874 76.5358 651.953 76.0598 652.044C75.6065 652.112 75.1078 652.146 74.5638 652.146C73.6345 652.146 72.7958 652.01 72.0478 651.738C71.3225 651.443 70.7445 650.967 70.3138 650.31C69.9058 649.653 69.7018 648.757 69.7018 647.624V640.348H72.1838V647.692C72.1838 648.553 72.4105 649.211 72.8638 649.664C73.3398 650.117 74.0765 650.344 75.0738 650.344C75.5498 650.344 75.9578 650.31 76.2978 650.242C76.6605 650.174 77.0345 650.106 77.4198 650.038V640.348H79.9358V660H77.4198ZM87.1595 660.306C86.3661 660.306 85.6748 660.113 85.0855 659.728C84.4961 659.32 84.0315 658.787 83.6915 658.13C83.3741 657.45 83.2155 656.713 83.2155 655.92C83.2155 654.923 83.3515 654.073 83.6235 653.37C83.9181 652.667 84.3715 652.044 84.9835 651.5C85.6181 650.933 86.4341 650.389 87.4315 649.868C88.4515 649.324 89.6868 648.723 91.1375 648.066V646.672C91.1375 645.471 91.0581 644.53 90.8995 643.85C90.7635 643.147 90.5141 642.649 90.1515 642.354C89.8115 642.059 89.3241 641.912 88.6895 641.912C88.1681 641.912 87.7035 642.014 87.2955 642.218C86.8875 642.422 86.5588 642.773 86.3095 643.272C86.0601 643.748 85.9355 644.417 85.9355 645.278V645.958L83.4875 645.924C83.5101 643.929 83.9295 642.456 84.7455 641.504C85.5841 640.529 86.9441 640.042 88.8255 640.042C90.5935 640.042 91.8288 640.575 92.5315 641.64C93.2568 642.683 93.6195 644.315 93.6195 646.536V656.09C93.6195 656.43 93.6308 656.872 93.6535 657.416C93.6761 657.937 93.6988 658.436 93.7215 658.912C93.7441 659.388 93.7668 659.751 93.7895 660H91.5795C91.5341 659.569 91.4661 659.093 91.3755 658.572C91.2848 658.028 91.2281 657.597 91.2055 657.28C90.9335 658.073 90.4461 658.776 89.7435 659.388C89.0635 660 88.2021 660.306 87.1595 660.306ZM87.9415 658.198C88.4401 658.198 88.8935 658.073 89.3015 657.824C89.7095 657.575 90.0721 657.28 90.3895 656.94C90.7068 656.577 90.9561 656.215 91.1375 655.852V649.732C90.1628 650.231 89.3241 650.684 88.6215 651.092C87.9415 651.5 87.3861 651.897 86.9555 652.282C86.5248 652.667 86.2075 653.109 86.0035 653.608C85.7995 654.084 85.6975 654.651 85.6975 655.308C85.6975 656.351 85.9241 657.099 86.3775 657.552C86.8308 657.983 87.3521 658.198 87.9415 658.198ZM102.169 660.306C100.628 660.306 99.4831 659.966 98.7351 659.286C97.9871 658.606 97.4885 657.688 97.2391 656.532C97.0125 655.353 96.8991 654.027 96.8991 652.554V647.964C96.8991 646.151 97.0465 644.666 97.3411 643.51C97.6358 642.331 98.1571 641.459 98.9051 640.892C99.6758 640.325 100.764 640.042 102.169 640.042C103.552 640.042 104.606 640.303 105.331 640.824C106.056 641.345 106.544 642.082 106.793 643.034C107.042 643.986 107.167 645.085 107.167 646.332V647.284H104.855V646.332C104.855 645.176 104.764 644.281 104.583 643.646C104.424 643.011 104.141 642.569 103.733 642.32C103.348 642.048 102.826 641.912 102.169 641.912C101.398 641.912 100.809 642.093 100.401 642.456C99.9931 642.819 99.7211 643.419 99.5851 644.258C99.4491 645.074 99.3811 646.173 99.3811 647.556V653.064C99.3811 655.036 99.5738 656.43 99.9591 657.246C100.344 658.039 101.092 658.436 102.203 658.436C102.974 658.436 103.552 658.266 103.937 657.926C104.322 657.563 104.572 657.031 104.685 656.328C104.798 655.625 104.855 654.753 104.855 653.71V652.622H107.167V653.574C107.167 654.889 107.042 656.056 106.793 657.076C106.566 658.073 106.09 658.867 105.365 659.456C104.64 660.023 103.574 660.306 102.169 660.306ZM113.888 660.306C113.095 660.306 112.403 660.113 111.814 659.728C111.225 659.32 110.76 658.787 110.42 658.13C110.103 657.45 109.944 656.713 109.944 655.92C109.944 654.923 110.08 654.073 110.352 653.37C110.647 652.667 111.1 652.044 111.712 651.5C112.347 650.933 113.163 650.389 114.16 649.868C115.18 649.324 116.415 648.723 117.866 648.066V646.672C117.866 645.471 117.787 644.53 117.628 643.85C117.492 643.147 117.243 642.649 116.88 642.354C116.54 642.059 116.053 641.912 115.418 641.912C114.897 641.912 114.432 642.014 114.024 642.218C113.616 642.422 113.287 642.773 113.038 643.272C112.789 643.748 112.664 644.417 112.664 645.278V645.958L110.216 645.924C110.239 643.929 110.658 642.456 111.474 641.504C112.313 640.529 113.673 640.042 115.554 640.042C117.322 640.042 118.557 640.575 119.26 641.64C119.985 642.683 120.348 644.315 120.348 646.536V656.09C120.348 656.43 120.359 656.872 120.382 657.416C120.405 657.937 120.427 658.436 120.45 658.912C120.473 659.388 120.495 659.751 120.518 660H118.308C118.263 659.569 118.195 659.093 118.104 658.572C118.013 658.028 117.957 657.597 117.934 657.28C117.662 658.073 117.175 658.776 116.472 659.388C115.792 660 114.931 660.306 113.888 660.306ZM114.67 658.198C115.169 658.198 115.622 658.073 116.03 657.824C116.438 657.575 116.801 657.28 117.118 656.94C117.435 656.577 117.685 656.215 117.866 655.852V649.732C116.891 650.231 116.053 650.684 115.35 651.092C114.67 651.5 114.115 651.897 113.684 652.282C113.253 652.667 112.936 653.109 112.732 653.608C112.528 654.084 112.426 654.651 112.426 655.308C112.426 656.351 112.653 657.099 113.106 657.552C113.559 657.983 114.081 658.198 114.67 658.198ZM137.129 660.34C135.701 660.34 134.534 660.068 133.627 659.524C132.72 658.957 132.052 658.175 131.621 657.178C131.213 656.181 131.009 655.002 131.009 653.642V652.962H133.423C133.423 653.007 133.423 653.098 133.423 653.234C133.423 653.37 133.423 653.472 133.423 653.54C133.446 654.515 133.57 655.365 133.797 656.09C134.024 656.793 134.409 657.337 134.953 657.722C135.497 658.107 136.222 658.3 137.129 658.3C137.99 658.3 138.716 658.119 139.305 657.756C139.917 657.371 140.37 656.747 140.665 655.886C140.982 655.025 141.141 653.903 141.141 652.52C141.141 650.82 140.835 649.437 140.223 648.372C139.611 647.284 138.546 646.717 137.027 646.672C136.982 646.672 136.868 646.672 136.687 646.672C136.506 646.672 136.392 646.672 136.347 646.672V644.292C136.392 644.292 136.506 644.292 136.687 644.292C136.868 644.292 136.982 644.292 137.027 644.292C138.5 644.292 139.554 643.884 140.189 643.068C140.824 642.229 141.141 640.892 141.141 639.056C141.141 637.628 140.869 636.461 140.325 635.554C139.804 634.647 138.829 634.194 137.401 634.194C136.018 634.194 135.01 634.591 134.375 635.384C133.763 636.155 133.446 637.356 133.423 638.988C133.423 639.033 133.423 639.113 133.423 639.226C133.423 639.317 133.423 639.396 133.423 639.464H131.009V638.818C131.009 637.458 131.213 636.291 131.621 635.316C132.052 634.319 132.743 633.548 133.695 633.004C134.647 632.46 135.871 632.188 137.367 632.188C138.818 632.188 140.008 632.483 140.937 633.072C141.866 633.661 142.558 634.477 143.011 635.52C143.464 636.54 143.691 637.719 143.691 639.056C143.691 640.983 143.317 642.479 142.569 643.544C141.844 644.587 140.903 645.244 139.747 645.516C140.427 645.697 141.062 646.06 141.651 646.604C142.263 647.148 142.75 647.907 143.113 648.882C143.498 649.834 143.691 651.035 143.691 652.486C143.691 654.027 143.464 655.399 143.011 656.6C142.58 657.779 141.889 658.697 140.937 659.354C139.985 660.011 138.716 660.34 137.129 660.34ZM154.147 660L154.317 640.348H156.187L160.777 653.846L165.367 640.348H167.305L167.475 660H165.333L165.299 646.196L161.185 657.96H160.403L156.323 646.264L156.289 660H154.147ZM171.117 660V640.348H173.225V655.478L179.787 640.348H181.793V660H179.685V644.904L173.191 660H171.117ZM185.593 660V640.348H188.075V648.916H194.195V640.348H196.711V660H194.195V650.786H188.075V660H185.593ZM199.958 664.896V662.958C201.091 662.958 201.941 662.867 202.508 662.686C203.097 662.527 203.482 662.289 203.664 661.972C203.868 661.677 203.97 661.326 203.97 660.918C203.97 660.555 203.902 660.079 203.766 659.49C203.63 658.901 203.482 658.289 203.324 657.654L199.278 640.348H201.76L205.16 657.076L208.458 640.348H210.974L206.214 661.394C206.032 662.233 205.704 662.901 205.228 663.4C204.774 663.921 204.162 664.295 203.392 664.522C202.644 664.771 201.714 664.896 200.604 664.896H199.958ZM216.035 660V642.252H211.785V640.348H222.699V642.252H218.517V660H216.035ZM224.84 660V640.348H227.322V648.338C227.367 648.338 227.48 648.338 227.662 648.338C227.843 648.338 228.024 648.338 228.206 648.338C228.41 648.338 228.512 648.338 228.512 648.338C229.849 648.338 230.948 648.485 231.81 648.78C232.671 649.052 233.351 649.449 233.85 649.97C234.348 650.491 234.7 651.115 234.904 651.84C235.108 652.543 235.21 653.347 235.21 654.254C235.21 655.093 235.108 655.863 234.904 656.566C234.7 657.246 234.337 657.847 233.816 658.368C233.317 658.889 232.614 659.297 231.708 659.592C230.824 659.864 229.69 660 228.308 660H224.84ZM227.322 658.436H228.308C229.577 658.436 230.54 658.266 231.198 657.926C231.855 657.586 232.308 657.099 232.558 656.464C232.807 655.829 232.932 655.081 232.932 654.22C232.932 653.381 232.818 652.645 232.592 652.01C232.365 651.375 231.934 650.865 231.3 650.48C230.665 650.095 229.702 649.902 228.41 649.902C228.387 649.902 228.251 649.902 228.002 649.902C227.775 649.902 227.548 649.902 227.322 649.902V658.436ZM237.692 660V640.348H240.174V660H237.692ZM46.36 714.896V712.958C47.4933 712.958 48.3433 712.867 48.91 712.686C49.4993 712.527 49.8847 712.289 50.066 711.972C50.27 711.677 50.372 711.326 50.372 710.918C50.372 710.555 50.304 710.079 50.168 709.49C50.032 708.901 49.8847 708.289 49.726 707.654L45.68 690.348H48.162L51.562 707.076L54.86 690.348H57.376L52.616 711.394C52.4347 712.233 52.106 712.901 51.63 713.4C51.1767 713.921 50.5647 714.295 49.794 714.522C49.046 714.771 48.1167 714.896 47.006 714.896H46.36ZM57.4599 710.17V708.266C58.1173 708.243 58.6499 708.107 59.0579 707.858C59.4886 707.609 59.8286 707.167 60.0779 706.532C60.3499 705.875 60.5653 704.945 60.7239 703.744C60.9053 702.543 61.0639 701.001 61.1999 699.12L61.8119 690.348H70.7879V710H68.3059V692.252H63.9879L63.5119 699.12C63.3533 701.341 63.1606 703.166 62.9339 704.594C62.7073 706.022 62.3786 707.144 61.9479 707.96C61.5399 708.776 60.9959 709.354 60.3159 709.694C59.6586 710.011 58.8313 710.17 57.8339 710.17H57.4599ZM74.6982 710V706.26H77.3162V710H74.6982ZM86.2842 710.034V708.062C86.9416 708.039 87.4969 707.971 87.9502 707.858C88.4036 707.722 88.7776 707.439 89.0722 707.008C89.3896 706.577 89.6502 705.875 89.8542 704.9C90.0809 703.925 90.2849 702.588 90.4662 700.888C90.6702 699.188 90.8742 697.012 91.0782 694.36L91.8942 682.46H102.604V710H99.9862V684.432H94.2062L93.5602 694.36C93.3562 696.967 93.1522 699.188 92.9482 701.024C92.7669 702.837 92.5289 704.345 92.2342 705.546C91.9396 706.725 91.5429 707.654 91.0442 708.334C90.5682 708.991 89.9449 709.445 89.1742 709.694C88.4036 709.943 87.4402 710.057 86.2842 710.034ZM111.832 710.306C110.608 710.306 109.599 710.068 108.806 709.592C108.035 709.093 107.457 708.277 107.072 707.144C106.709 706.011 106.528 704.503 106.528 702.622V697.658C106.528 695.709 106.721 694.19 107.106 693.102C107.491 691.991 108.081 691.209 108.874 690.756C109.667 690.28 110.665 690.042 111.866 690.042C113.249 690.042 114.303 690.337 115.028 690.926C115.753 691.515 116.252 692.411 116.524 693.612C116.819 694.791 116.966 696.309 116.966 698.168V699.936H109.01V703.37C109.01 704.639 109.101 705.648 109.282 706.396C109.486 707.121 109.792 707.643 110.2 707.96C110.631 708.277 111.175 708.436 111.832 708.436C112.331 708.436 112.784 708.345 113.192 708.164C113.6 707.96 113.917 707.586 114.144 707.042C114.393 706.475 114.518 705.682 114.518 704.662V703.302H116.932V704.39C116.932 706.181 116.558 707.62 115.81 708.708C115.085 709.773 113.759 710.306 111.832 710.306ZM109.01 698.508H114.518V696.876C114.518 695.833 114.461 694.949 114.348 694.224C114.235 693.476 113.985 692.909 113.6 692.524C113.237 692.116 112.648 691.912 111.832 691.912C111.152 691.912 110.597 692.059 110.166 692.354C109.758 692.649 109.463 693.181 109.282 693.952C109.101 694.7 109.01 695.777 109.01 697.182V698.508ZM125.212 710.306C123.671 710.306 122.526 709.966 121.778 709.286C121.03 708.606 120.531 707.688 120.282 706.532C120.055 705.353 119.942 704.027 119.942 702.554V697.964C119.942 696.151 120.089 694.666 120.384 693.51C120.679 692.331 121.2 691.459 121.948 690.892C122.719 690.325 123.807 690.042 125.212 690.042C126.595 690.042 127.649 690.303 128.374 690.824C129.099 691.345 129.587 692.082 129.836 693.034C130.085 693.986 130.21 695.085 130.21 696.332V697.284H127.898V696.332C127.898 695.176 127.807 694.281 127.626 693.646C127.467 693.011 127.184 692.569 126.776 692.32C126.391 692.048 125.869 691.912 125.212 691.912C124.441 691.912 123.852 692.093 123.444 692.456C123.036 692.819 122.764 693.419 122.628 694.258C122.492 695.074 122.424 696.173 122.424 697.556V703.064C122.424 705.036 122.617 706.43 123.002 707.246C123.387 708.039 124.135 708.436 125.246 708.436C126.017 708.436 126.595 708.266 126.98 707.926C127.365 707.563 127.615 707.031 127.728 706.328C127.841 705.625 127.898 704.753 127.898 703.71V702.622H130.21V703.574C130.21 704.889 130.085 706.056 129.836 707.076C129.609 708.073 129.133 708.867 128.408 709.456C127.683 710.023 126.617 710.306 125.212 710.306ZM133.531 710V690.348H136.013V698.916H142.133V690.348H144.649V710H142.133V700.786H136.013V710H133.531ZM151.839 710.306C151.046 710.306 150.354 710.113 149.765 709.728C149.176 709.32 148.711 708.787 148.371 708.13C148.054 707.45 147.895 706.713 147.895 705.92C147.895 704.923 148.031 704.073 148.303 703.37C148.598 702.667 149.051 702.044 149.663 701.5C150.298 700.933 151.114 700.389 152.111 699.868C153.131 699.324 154.366 698.723 155.817 698.066V696.672C155.817 695.471 155.738 694.53 155.579 693.85C155.443 693.147 155.194 692.649 154.831 692.354C154.491 692.059 154.004 691.912 153.369 691.912C152.848 691.912 152.383 692.014 151.975 692.218C151.567 692.422 151.238 692.773 150.989 693.272C150.74 693.748 150.615 694.417 150.615 695.278V695.958L148.167 695.924C148.19 693.929 148.609 692.456 149.425 691.504C150.264 690.529 151.624 690.042 153.505 690.042C155.273 690.042 156.508 690.575 157.211 691.64C157.936 692.683 158.299 694.315 158.299 696.536V706.09C158.299 706.43 158.31 706.872 158.333 707.416C158.356 707.937 158.378 708.436 158.401 708.912C158.424 709.388 158.446 709.751 158.469 710H156.259C156.214 709.569 156.146 709.093 156.055 708.572C155.964 708.028 155.908 707.597 155.885 707.28C155.613 708.073 155.126 708.776 154.423 709.388C153.743 710 152.882 710.306 151.839 710.306ZM152.621 708.198C153.12 708.198 153.573 708.073 153.981 707.824C154.389 707.575 154.752 707.28 155.069 706.94C155.386 706.577 155.636 706.215 155.817 705.852V699.732C154.842 700.231 154.004 700.684 153.301 701.092C152.621 701.5 152.066 701.897 151.635 702.282C151.204 702.667 150.887 703.109 150.683 703.608C150.479 704.084 150.377 704.651 150.377 705.308C150.377 706.351 150.604 707.099 151.057 707.552C151.51 707.983 152.032 708.198 152.621 708.198ZM160.593 710L164.469 701.5C163.766 701.205 163.211 700.786 162.803 700.242C162.395 699.675 162.1 699.041 161.919 698.338C161.76 697.613 161.681 696.876 161.681 696.128C161.681 695.312 161.771 694.553 161.953 693.85C162.157 693.125 162.497 692.513 162.973 692.014C163.449 691.493 164.117 691.085 164.979 690.79C165.863 690.495 166.985 690.348 168.345 690.348H171.847V710H169.365V702.044C168.843 702.044 168.367 702.044 167.937 702.044C167.529 702.021 167.143 701.987 166.781 701.942L163.279 710H160.593ZM168.481 700.514C168.503 700.514 168.617 700.514 168.821 700.514C169.025 700.514 169.206 700.514 169.365 700.514V691.878C169.138 691.878 168.9 691.878 168.651 691.878C168.401 691.878 168.265 691.878 168.243 691.878C167.041 691.878 166.135 692.059 165.523 692.422C164.911 692.785 164.491 693.283 164.265 693.918C164.061 694.53 163.959 695.267 163.959 696.128C163.959 697.601 164.287 698.701 164.945 699.426C165.625 700.129 166.803 700.491 168.481 700.514ZM182.605 710V690.348H193.111V710H190.629V692.286H185.087V710H182.605ZM201.745 710.306C200.407 710.306 199.353 710.023 198.583 709.456C197.835 708.867 197.302 708.028 196.985 706.94C196.667 705.829 196.509 704.481 196.509 702.894V697.454C196.509 695.867 196.667 694.53 196.985 693.442C197.302 692.331 197.835 691.493 198.583 690.926C199.353 690.337 200.407 690.042 201.745 690.042C203.127 690.042 204.193 690.337 204.941 690.926C205.689 691.493 206.221 692.331 206.539 693.442C206.856 694.53 207.015 695.867 207.015 697.454V702.894C207.015 704.481 206.856 705.829 206.539 706.94C206.221 708.028 205.689 708.867 204.941 709.456C204.193 710.023 203.127 710.306 201.745 710.306ZM201.745 708.436C202.606 708.436 203.229 708.209 203.615 707.756C204.023 707.303 204.272 706.668 204.363 705.852C204.453 705.013 204.499 704.073 204.499 703.03V697.318C204.499 696.253 204.453 695.323 204.363 694.53C204.272 693.714 204.023 693.079 203.615 692.626C203.229 692.15 202.606 691.912 201.745 691.912C200.883 691.912 200.26 692.15 199.875 692.626C199.489 693.079 199.251 693.714 199.161 694.53C199.07 695.323 199.025 696.253 199.025 697.318V703.03C199.025 704.073 199.07 705.013 199.161 705.852C199.251 706.668 199.489 707.303 199.875 707.756C200.26 708.209 200.883 708.436 201.745 708.436ZM208.7 710.17V708.266C209.358 708.243 209.89 708.107 210.298 707.858C210.729 707.609 211.069 707.167 211.318 706.532C211.59 705.875 211.806 704.945 211.964 703.744C212.146 702.543 212.304 701.001 212.44 699.12L213.052 690.348H222.028V710H219.546V692.252H215.228L214.752 699.12C214.594 701.341 214.401 703.166 214.174 704.594C213.948 706.022 213.619 707.144 213.188 707.96C212.78 708.776 212.236 709.354 211.556 709.694C210.899 710.011 210.072 710.17 209.074 710.17H208.7ZM224.442 710L228.318 701.5C227.616 701.205 227.06 700.786 226.652 700.242C226.244 699.675 225.95 699.041 225.768 698.338C225.61 697.613 225.53 696.876 225.53 696.128C225.53 695.312 225.621 694.553 225.802 693.85C226.006 693.125 226.346 692.513 226.822 692.014C227.298 691.493 227.967 691.085 228.828 690.79C229.712 690.495 230.834 690.348 232.194 690.348H235.696V710H233.214V702.044C232.693 702.044 232.217 702.044 231.786 702.044C231.378 702.021 230.993 701.987 230.63 701.942L227.128 710H224.442ZM232.33 700.514C232.353 700.514 232.466 700.514 232.67 700.514C232.874 700.514 233.056 700.514 233.214 700.514V691.878C232.988 691.878 232.75 691.878 232.5 691.878C232.251 691.878 232.115 691.878 232.092 691.878C230.891 691.878 229.984 692.059 229.372 692.422C228.76 692.785 228.341 693.283 228.114 693.918C227.91 694.53 227.808 695.267 227.808 696.128C227.808 697.601 228.137 698.701 228.794 699.426C229.474 700.129 230.653 700.491 232.33 700.514ZM239.515 710V690.348H241.997V698.916H248.117V690.348H250.633V710H248.117V700.786H241.997V710H239.515ZM257.824 710.306C257.03 710.306 256.339 710.113 255.75 709.728C255.16 709.32 254.696 708.787 254.356 708.13C254.038 707.45 253.88 706.713 253.88 705.92C253.88 704.923 254.016 704.073 254.288 703.37C254.582 702.667 255.036 702.044 255.648 701.5C256.282 700.933 257.098 700.389 258.096 699.868C259.116 699.324 260.351 698.723 261.802 698.066V696.672C261.802 695.471 261.722 694.53 261.564 693.85C261.428 693.147 261.178 692.649 260.816 692.354C260.476 692.059 259.988 691.912 259.354 691.912C258.832 691.912 258.368 692.014 257.96 692.218C257.552 692.422 257.223 692.773 256.974 693.272C256.724 693.748 256.6 694.417 256.6 695.278V695.958L254.152 695.924C254.174 693.929 254.594 692.456 255.41 691.504C256.248 690.529 257.608 690.042 259.49 690.042C261.258 690.042 262.493 690.575 263.196 691.64C263.921 692.683 264.284 694.315 264.284 696.536V706.09C264.284 706.43 264.295 706.872 264.318 707.416C264.34 707.937 264.363 708.436 264.386 708.912C264.408 709.388 264.431 709.751 264.454 710H262.244C262.198 709.569 262.13 709.093 262.04 708.572C261.949 708.028 261.892 707.597 261.87 707.28C261.598 708.073 261.11 708.776 260.408 709.388C259.728 710 258.866 710.306 257.824 710.306ZM258.606 708.198C259.104 708.198 259.558 708.073 259.966 707.824C260.374 707.575 260.736 707.28 261.054 706.94C261.371 706.577 261.62 706.215 261.802 705.852V699.732C260.827 700.231 259.988 700.684 259.286 701.092C258.606 701.5 258.05 701.897 257.62 702.282C257.189 702.667 256.872 703.109 256.668 703.608C256.464 704.084 256.362 704.651 256.362 705.308C256.362 706.351 256.588 707.099 257.042 707.552C257.495 707.983 258.016 708.198 258.606 708.198ZM268.243 713.944L267.699 712.856C268.311 712.516 268.731 712.119 268.957 711.666C269.207 711.235 269.331 710.68 269.331 710H267.869V706.294H270.623V709.728C270.623 710.839 270.442 711.711 270.079 712.346C269.717 712.981 269.105 713.513 268.243 713.944ZM45.34 764.726V758.3C45.9293 757.915 46.4507 757.427 46.904 756.838C47.3573 756.226 47.754 755.421 48.094 754.424C48.434 753.427 48.7173 752.157 48.944 750.616C49.1707 749.075 49.3407 747.182 49.454 744.938L49.76 740.348H57.954V758.198H59.926V764.726H58.056L57.852 760H47.448L47.21 764.726H45.34ZM47.924 758.198H55.54V742.184H51.766L51.46 745.448C51.324 747.601 51.1653 749.415 50.984 750.888C50.8027 752.361 50.576 753.574 50.304 754.526C50.032 755.478 49.692 756.249 49.284 756.838C48.8987 757.405 48.4453 757.858 47.924 758.198ZM67.3715 760.306C66.0341 760.306 64.9801 760.023 64.2095 759.456C63.4615 758.867 62.9288 758.028 62.6115 756.94C62.2941 755.829 62.1355 754.481 62.1355 752.894V747.454C62.1355 745.867 62.2941 744.53 62.6115 743.442C62.9288 742.331 63.4615 741.493 64.2095 740.926C64.9801 740.337 66.0341 740.042 67.3715 740.042C68.7541 740.042 69.8195 740.337 70.5675 740.926C71.3155 741.493 71.8481 742.331 72.1655 743.442C72.4828 744.53 72.6415 745.867 72.6415 747.454V752.894C72.6415 754.481 72.4828 755.829 72.1655 756.94C71.8481 758.028 71.3155 758.867 70.5675 759.456C69.8195 760.023 68.7541 760.306 67.3715 760.306ZM67.3715 758.436C68.2328 758.436 68.8561 758.209 69.2415 757.756C69.6495 757.303 69.8988 756.668 69.9895 755.852C70.0801 755.013 70.1255 754.073 70.1255 753.03V747.318C70.1255 746.253 70.0801 745.323 69.9895 744.53C69.8988 743.714 69.6495 743.079 69.2415 742.626C68.8561 742.15 68.2328 741.912 67.3715 741.912C66.5101 741.912 65.8868 742.15 65.5015 742.626C65.1161 743.079 64.8781 743.714 64.7875 744.53C64.6968 745.323 64.6515 746.253 64.6515 747.318V753.03C64.6515 754.073 64.6968 755.013 64.7875 755.852C64.8781 756.668 65.1161 757.303 65.5015 757.756C65.8868 758.209 66.5101 758.436 67.3715 758.436ZM75.9535 760L76.1235 740.348H77.9935L82.5835 753.846L87.1735 740.348H89.1115L89.2815 760H87.1395L87.1055 746.196L82.9915 757.96H82.2095L78.1295 746.264L78.0955 760H75.9535ZM99.863 760V740.348H102.345V748.916H108.465V740.348H110.981V760H108.465V750.786H102.345V760H99.863ZM118.171 760.306C117.378 760.306 116.687 760.113 116.097 759.728C115.508 759.32 115.043 758.787 114.703 758.13C114.386 757.45 114.227 756.713 114.227 755.92C114.227 754.923 114.363 754.073 114.635 753.37C114.93 752.667 115.383 752.044 115.995 751.5C116.63 750.933 117.446 750.389 118.443 749.868C119.463 749.324 120.699 748.723 122.149 748.066V746.672C122.149 745.471 122.07 744.53 121.911 743.85C121.775 743.147 121.526 742.649 121.163 742.354C120.823 742.059 120.336 741.912 119.701 741.912C119.18 741.912 118.715 742.014 118.307 742.218C117.899 742.422 117.571 742.773 117.321 743.272C117.072 743.748 116.947 744.417 116.947 745.278V745.958L114.499 745.924C114.522 743.929 114.941 742.456 115.757 741.504C116.596 740.529 117.956 740.042 119.837 740.042C121.605 740.042 122.841 740.575 123.543 741.64C124.269 742.683 124.631 744.315 124.631 746.536V756.09C124.631 756.43 124.643 756.872 124.665 757.416C124.688 757.937 124.711 758.436 124.733 758.912C124.756 759.388 124.779 759.751 124.801 760H122.591C122.546 759.569 122.478 759.093 122.387 758.572C122.297 758.028 122.24 757.597 122.217 757.28C121.945 758.073 121.458 758.776 120.755 759.388C120.075 760 119.214 760.306 118.171 760.306ZM118.953 758.198C119.452 758.198 119.905 758.073 120.313 757.824C120.721 757.575 121.084 757.28 121.401 756.94C121.719 756.577 121.968 756.215 122.149 755.852V749.732C121.175 750.231 120.336 750.684 119.633 751.092C118.953 751.5 118.398 751.897 117.967 752.282C117.537 752.667 117.219 753.109 117.015 753.608C116.811 754.084 116.709 754.651 116.709 755.308C116.709 756.351 116.936 757.099 117.389 757.552C117.843 757.983 118.364 758.198 118.953 758.198ZM135.224 760V740.348H137.706V749.018H139.1L143.588 740.348H146.172L141.378 749.834L146.308 760H143.724L139.1 750.548H137.706V760H135.224ZM147.862 764.896V762.958C148.995 762.958 149.845 762.867 150.412 762.686C151.001 762.527 151.387 762.289 151.568 761.972C151.772 761.677 151.874 761.326 151.874 760.918C151.874 760.555 151.806 760.079 151.67 759.49C151.534 758.901 151.387 758.289 151.228 757.654L147.182 740.348H149.664L153.064 757.076L156.362 740.348H158.878L154.118 761.394C153.937 762.233 153.608 762.901 153.132 763.4C152.679 763.921 152.067 764.295 151.296 764.522C150.548 764.771 149.619 764.896 148.508 764.896H147.862ZM161.355 766.46V740.348H163.837V741.98C164.245 741.481 164.755 741.039 165.367 740.654C165.979 740.246 166.727 740.042 167.611 740.042C168.563 740.042 169.323 740.269 169.889 740.722C170.479 741.153 170.932 741.742 171.249 742.49C171.567 743.238 171.782 744.077 171.895 745.006C172.009 745.935 172.065 746.887 172.065 747.862V752.01C172.065 753.687 171.929 755.149 171.657 756.396C171.385 757.62 170.898 758.583 170.195 759.286C169.515 759.966 168.563 760.306 167.339 760.306C166.546 760.306 165.855 760.102 165.265 759.694C164.699 759.286 164.223 758.867 163.837 758.436V766.46H161.355ZM166.965 758.334C167.713 758.334 168.269 758.096 168.631 757.62C169.017 757.144 169.266 756.441 169.379 755.512C169.515 754.56 169.583 753.415 169.583 752.078V747.862C169.583 746.593 169.515 745.527 169.379 744.666C169.266 743.782 169.017 743.113 168.631 742.66C168.246 742.207 167.668 741.98 166.897 741.98C166.263 741.98 165.673 742.15 165.129 742.49C164.608 742.83 164.177 743.17 163.837 743.51V756.906C164.2 757.291 164.642 757.631 165.163 757.926C165.707 758.198 166.308 758.334 166.965 758.334ZM175.533 760V740.348H178.015V748.338C178.06 748.338 178.174 748.338 178.355 748.338C178.536 748.338 178.718 748.338 178.899 748.338C179.103 748.338 179.205 748.338 179.205 748.338C180.542 748.338 181.642 748.485 182.503 748.78C183.364 749.052 184.044 749.449 184.543 749.97C185.042 750.469 185.393 751.081 185.597 751.806C185.801 752.509 185.903 753.302 185.903 754.186C185.903 755.025 185.801 755.807 185.597 756.532C185.393 757.235 185.03 757.847 184.509 758.368C184.01 758.867 183.308 759.263 182.401 759.558C181.517 759.853 180.384 760 179.001 760H175.533ZM178.015 758.436H179.001C180.27 758.436 181.234 758.266 181.891 757.926C182.548 757.563 183.002 757.076 183.251 756.464C183.5 755.829 183.625 755.07 183.625 754.186C183.625 753.347 183.512 752.611 183.285 751.976C183.058 751.341 182.628 750.843 181.993 750.48C181.358 750.095 180.395 749.902 179.103 749.902C179.08 749.902 178.944 749.902 178.695 749.902C178.468 749.902 178.242 749.902 178.015 749.902V758.436ZM188.748 760V740.348H190.856V755.478L197.418 740.348H199.424V760H197.316V744.904L190.822 760H188.748ZM201.864 760L206.522 749.732L202.102 740.348H204.55L207.916 747.556L211.146 740.348H213.662L209.072 750.004L213.73 760H211.35L207.678 752.282L204.244 760H201.864ZM223.08 760V740.348H225.562V748.916H231.682V740.348H234.198V760H231.682V750.786H225.562V760H223.08ZM242.85 760.306C241.513 760.306 240.459 760.023 239.688 759.456C238.94 758.867 238.407 758.028 238.09 756.94C237.773 755.829 237.614 754.481 237.614 752.894V747.454C237.614 745.867 237.773 744.53 238.09 743.442C238.407 742.331 238.94 741.493 239.688 740.926C240.459 740.337 241.513 740.042 242.85 740.042C244.233 740.042 245.298 740.337 246.046 740.926C246.794 741.493 247.327 742.331 247.644 743.442C247.961 744.53 248.12 745.867 248.12 747.454V752.894C248.12 754.481 247.961 755.829 247.644 756.94C247.327 758.028 246.794 758.867 246.046 759.456C245.298 760.023 244.233 760.306 242.85 760.306ZM242.85 758.436C243.711 758.436 244.335 758.209 244.72 757.756C245.128 757.303 245.377 756.668 245.468 755.852C245.559 755.013 245.604 754.073 245.604 753.03V747.318C245.604 746.253 245.559 745.323 245.468 744.53C245.377 743.714 245.128 743.079 244.72 742.626C244.335 742.15 243.711 741.912 242.85 741.912C241.989 741.912 241.365 742.15 240.98 742.626C240.595 743.079 240.357 743.714 240.266 744.53C240.175 745.323 240.13 746.253 240.13 747.318V753.03C240.13 754.073 240.175 755.013 240.266 755.852C240.357 756.668 240.595 757.303 240.98 757.756C241.365 758.209 241.989 758.436 242.85 758.436ZM249.7 760L255.242 749.936L249.972 740.348H252.386L257.316 749.766H257.622V740.348H259.696V749.766H260.002L264.898 740.348H267.278L262.042 749.936L267.55 760H265.238L260.002 750.242H259.696V760H257.622V750.242H257.282L252.046 760H249.7ZM269.597 760V740.348H272.079V749.018H273.473L277.961 740.348H280.545L275.751 749.834L280.681 760H278.097L273.473 750.548H272.079V760H269.597ZM286.179 760.306C285.386 760.306 284.694 760.113 284.105 759.728C283.516 759.32 283.051 758.787 282.711 758.13C282.394 757.45 282.235 756.713 282.235 755.92C282.235 754.923 282.371 754.073 282.643 753.37C282.938 752.667 283.391 752.044 284.003 751.5C284.638 750.933 285.454 750.389 286.451 749.868C287.471 749.324 288.706 748.723 290.157 748.066V746.672C290.157 745.471 290.078 744.53 289.919 743.85C289.783 743.147 289.534 742.649 289.171 742.354C288.831 742.059 288.344 741.912 287.709 741.912C287.188 741.912 286.723 742.014 286.315 742.218C285.907 742.422 285.578 742.773 285.329 743.272C285.08 743.748 284.955 744.417 284.955 745.278V745.958L282.507 745.924C282.53 743.929 282.949 742.456 283.765 741.504C284.604 740.529 285.964 740.042 287.845 740.042C289.613 740.042 290.848 740.575 291.551 741.64C292.276 742.683 292.639 744.315 292.639 746.536V756.09C292.639 756.43 292.65 756.872 292.673 757.416C292.696 757.937 292.718 758.436 292.741 758.912C292.764 759.388 292.786 759.751 292.809 760H290.599C290.554 759.569 290.486 759.093 290.395 758.572C290.304 758.028 290.248 757.597 290.225 757.28C289.953 758.073 289.466 758.776 288.763 759.388C288.083 760 287.222 760.306 286.179 760.306ZM286.961 758.198C287.46 758.198 287.913 758.073 288.321 757.824C288.729 757.575 289.092 757.28 289.409 756.94C289.726 756.577 289.976 756.215 290.157 755.852V749.732C289.182 750.231 288.344 750.684 287.641 751.092C286.961 751.5 286.406 751.897 285.975 752.282C285.544 752.667 285.227 753.109 285.023 753.608C284.819 754.084 284.717 754.651 284.717 755.308C284.717 756.351 284.944 757.099 285.397 757.552C285.85 757.983 286.372 758.198 286.961 758.198ZM294.933 760L299.591 749.732L295.171 740.348H297.619L300.985 747.556L304.215 740.348H306.731L302.141 750.004L306.799 760H304.419L300.747 752.282L297.313 760H294.933Z" fill="white"/>
<path d="M57.46 197.02V177H62.36V219H57.46V198.42H52.35V219H47.45V177H52.35V197.02H57.46ZM74.6805 209.13C74.6805 211.417 75.0072 212.957 75.6605 213.75C76.3605 214.543 77.2939 214.94 78.4605 214.94C80.4205 214.94 81.4705 212.56 81.6105 207.8L81.8205 199.61H82.8005L83.0105 208.01C83.1039 211.463 82.5672 214.287 81.4005 216.48C80.2339 218.627 78.5072 219.7 76.2205 219.7C74.0272 219.7 72.3939 219.07 71.3205 217.81C70.2939 216.55 69.7805 214.45 69.7805 211.51V185.82C69.7805 182.553 70.4572 180.15 71.8105 178.61C73.1639 177.07 74.9605 176.3 77.2005 176.3C79.2072 176.3 80.6772 176.953 81.6105 178.26C82.5905 179.52 83.0805 181.62 83.0805 184.56V195.76H74.6805V209.13ZM76.7105 181.06C75.9172 181.06 75.3805 181.387 75.1005 182.04C74.8205 182.693 74.6805 183.72 74.6805 185.12V194.78H78.8805V186.87C78.8805 184.49 78.7172 182.927 78.3905 182.18C78.0639 181.433 77.5039 181.06 76.7105 181.06ZM103.251 214.45H105.351V225.79H103.951L101.641 219H92.1215L89.8115 225.79H88.4115V214.45H89.8815C90.3948 213.33 90.7682 211.603 91.0015 209.27C91.2815 206.937 91.4448 203.413 91.4915 198.7C91.5848 193.94 91.6315 186.707 91.6315 177H103.251V214.45ZM98.3515 214.45V181.55H93.3815C93.3815 191.257 93.3348 198.397 93.2415 202.97C93.1948 207.543 93.0548 211.37 92.8215 214.45H98.3515ZM115.589 209.13C115.589 211.417 115.915 212.957 116.569 213.75C117.269 214.543 118.202 214.94 119.369 214.94C121.329 214.94 122.379 212.56 122.519 207.8L122.729 199.61H123.709L123.919 208.01C124.012 211.463 123.475 214.287 122.309 216.48C121.142 218.627 119.415 219.7 117.129 219.7C114.935 219.7 113.302 219.07 112.229 217.81C111.202 216.55 110.689 214.45 110.689 211.51V185.82C110.689 182.553 111.365 180.15 112.719 178.61C114.072 177.07 115.869 176.3 118.109 176.3C120.115 176.3 121.585 176.953 122.519 178.26C123.499 179.52 123.989 181.62 123.989 184.56V195.76H115.589V209.13ZM117.619 181.06C116.825 181.06 116.289 181.387 116.009 182.04C115.729 182.693 115.589 183.72 115.589 185.12V194.78H119.789V186.87C119.789 184.49 119.625 182.927 119.299 182.18C118.972 181.433 118.412 181.06 117.619 181.06ZM144.09 219H139.19V181.55H134.22L134.36 210.04C134.36 214.193 134.313 217.18 134.22 219H129.32V213.96C130.346 213.213 131.07 211.79 131.49 209.69C131.91 207.59 132.166 204.277 132.26 199.75C132.4 195.177 132.47 187.593 132.47 177H144.09V219ZM166.655 219H161.755V202.2C159.142 202.2 157.695 203.227 157.415 205.28L155.455 219H150.485L153.705 202.06H158.325L158.395 201.29C153.822 200.73 151.535 197.883 151.535 192.75V185.82C151.535 182.693 152.282 180.453 153.775 179.1C155.315 177.7 157.625 177 160.705 177H166.655V219ZM156.435 194.85C156.435 198.397 157.765 200.17 160.425 200.17H161.755V181.76H161.195C159.422 181.76 158.185 182.18 157.485 183.02C156.785 183.813 156.435 185.33 156.435 187.57V194.85ZM199.593 177V181.55H194.623V219H189.723V181.55H184.683V177H199.593ZM219.84 181.97V207.8C219.84 211.953 219.304 214.987 218.23 216.9C217.204 218.767 215.57 219.7 213.33 219.7C211.79 219.7 210.18 218.93 208.5 217.39L208.08 217.81L209.83 219.63V228.1H204.93V177H209.76V177.77L208.15 188.41L208.85 188.55C209.504 183.743 210.367 180.5 211.44 178.82C212.514 177.14 213.82 176.3 215.36 176.3C216.667 176.3 217.74 176.813 218.58 177.84C219.42 178.867 219.84 180.243 219.84 181.97ZM214.8 208.22V184.7C214.8 182.273 214.194 181.06 212.98 181.06C212.467 181.06 211.954 181.55 211.44 182.53C210.974 183.51 210.577 184.863 210.25 186.59C209.97 188.317 209.83 190.207 209.83 192.26V213.82C210.764 214.753 211.767 215.22 212.84 215.22C213.54 215.22 214.03 214.777 214.31 213.89C214.637 212.957 214.8 211.067 214.8 208.22ZM233.631 218.79C232.978 219.397 232.161 219.7 231.181 219.7C228.474 219.7 227.121 218.043 227.121 214.73V209.9C227.121 208.22 227.378 206.773 227.891 205.56C228.404 204.347 229.128 203.227 230.061 202.2C230.994 201.173 232.418 199.773 234.331 198L235.591 196.81V183.86C235.591 182.74 235.404 181.993 235.031 181.62C234.658 181.247 233.888 181.06 232.721 181.06C230.994 181.06 229.804 181.41 229.151 182.11C228.498 182.763 228.171 183.743 228.171 185.05C228.171 186.59 228.638 188.177 229.571 189.81C230.504 191.443 232.348 193.637 235.101 196.39H228.381C227.168 193.497 226.561 189.973 226.561 185.82C226.561 184.327 226.911 182.857 227.611 181.41C228.311 179.917 229.268 178.703 230.481 177.77C231.694 176.79 233.001 176.3 234.401 176.3C236.408 176.3 237.924 176.813 238.951 177.84C239.978 178.82 240.491 180.22 240.491 182.04V210.74C240.491 212.467 240.608 213.61 240.841 214.17C241.121 214.683 241.494 214.94 241.961 214.94C242.334 214.94 242.614 214.753 242.801 214.38C242.988 214.007 243.104 213.283 243.151 212.21L243.361 199.96H244.341L244.551 211.93C244.598 214.403 244.341 216.317 243.781 217.67C243.221 219.023 242.171 219.7 240.631 219.7C239.371 219.7 238.461 219.233 237.901 218.3C237.341 217.32 237.061 215.523 237.061 212.91C237.061 212.163 237.154 210.437 237.341 207.73L236.641 207.59C236.314 210.95 235.894 213.517 235.381 215.29C234.868 217.017 234.284 218.183 233.631 218.79ZM232.021 212.91C232.021 214.03 232.418 214.59 233.211 214.59C233.958 214.59 234.541 213.633 234.961 211.72C235.381 209.76 235.591 207.147 235.591 203.88V198.28C234.144 199.68 233.188 200.917 232.721 201.99C232.254 203.017 232.021 204.323 232.021 205.91V212.91ZM263.316 214.45H265.416V225.79H264.016L261.706 219H252.186L249.876 225.79H248.476V214.45H249.946C250.459 213.33 250.832 211.603 251.066 209.27C251.346 206.937 251.509 203.413 251.556 198.7C251.649 193.94 251.696 186.707 251.696 177H263.316V214.45ZM258.416 214.45V181.55H253.446C253.446 191.257 253.399 198.397 253.306 202.97C253.259 207.543 253.119 211.37 252.886 214.45H258.416ZM286.153 177V219H281.183L281.603 201.78L282.583 185.61H281.533L275.723 219H270.753V177H275.793L275.303 194.22L274.323 210.39H275.303L281.183 177H286.153ZM308.136 177V214.45H310.236V225.79H308.836L306.526 219H293.576V177H298.476V214.45H303.236V177H308.136ZM330.937 177V219H325.967L326.387 201.78L327.367 185.61H326.317L320.507 219H315.537V177H320.577L320.087 194.22L319.107 210.39H320.087L325.967 177H330.937ZM346.13 174.48C343.797 174.48 342 173.967 340.74 172.94C339.527 171.913 338.92 170.467 338.92 168.6V167.9H343.82L343.68 168.6C343.54 169.347 343.47 170.023 343.47 170.63C343.47 172.543 344.287 173.5 345.92 173.5C347.553 173.5 348.37 172.543 348.37 170.63C348.37 170.023 348.3 169.347 348.16 168.6L348.02 167.9H352.92V168.6C352.92 170.467 352.337 171.913 351.17 172.94C350.003 173.967 348.323 174.48 346.13 174.48ZM353.76 177V219H348.79L349.21 201.78L350.19 185.61H349.14L343.33 219H338.36V177H343.4L342.91 194.22L341.93 210.39H342.91L348.79 177H353.76Z" fill="white"/>
</svg>
