<svg width="125" height="125" viewBox="0 0 125 125" fill="none" xmlns="http://www.w3.org/2000/svg">
<circle cx="61.9281" cy="62.3369" r="33.8167" transform="rotate(89.5479 61.9281 62.3369)" stroke="white" stroke-width="2"/>
<circle cx="62.1315" cy="62.1305" r="16.9987" transform="rotate(89.5479 62.1315 62.1305)" fill="white"/>
<circle cx="14.6184" cy="62.5055" r="4.30088" transform="rotate(89.5479 14.6184 62.5055)" fill="white"/>
<circle cx="61.7532" cy="14.2079" r="4.30088" transform="rotate(89.5479 61.7532 14.2079)" fill="white"/>
<circle cx="62.5096" cy="110.053" r="4.30088" transform="rotate(89.5479 62.5096 110.053)" fill="white"/>
<circle cx="93.9451" cy="96.6972" r="4.30088" transform="rotate(89.5479 93.9451 96.6972)" fill="white"/>
<circle cx="27.0347" cy="26.7705" r="4.30088" transform="rotate(89.5479 27.0347 26.7705)" fill="white"/>
<circle cx="93.3889" cy="26.2469" r="4.30088" transform="rotate(89.5479 93.3889 26.2469)" fill="white"/>
<circle cx="27.5906" cy="97.2209" r="4.30088" transform="rotate(89.5479 27.5906 97.2209)" fill="white"/>
<circle cx="18.8599" cy="80.905" r="4.30088" transform="rotate(89.5479 18.8599 80.905)" fill="white"/>
<circle cx="44.0454" cy="106.103" r="4.30088" transform="rotate(89.5479 44.0454 106.103)" fill="white"/>
<circle cx="79.6802" cy="105.822" r="4.30088" transform="rotate(89.5479 79.6802 105.822)" fill="white"/>
<ellipse cx="104.875" cy="80.2262" rx="4.30088" ry="4.30088" transform="rotate(89.5479 104.875 80.2262)" fill="white"/>
<ellipse cx="104.561" cy="40.4955" rx="4.30088" ry="4.30088" transform="rotate(89.5479 104.561 40.4955)" fill="white"/>
<ellipse cx="78.9854" cy="17.7585" rx="4.30088" ry="4.30088" transform="rotate(89.5479 78.9854 17.7585)" fill="white"/>
<ellipse cx="43.3506" cy="18.0398" rx="4.30088" ry="4.30088" transform="rotate(89.5479 43.3506 18.0398)" fill="white"/>
<circle cx="18.5462" cy="41.1742" r="4.30088" transform="rotate(89.5479 18.5462 41.1742)" fill="white"/>
<ellipse cx="109.235" cy="61.7589" rx="4.30088" ry="4.30088" transform="rotate(89.5479 109.235 61.7589)" fill="white"/>
</svg>
