<svg width="104" height="104" viewBox="0 0 104 104" fill="none" xmlns="http://www.w3.org/2000/svg">
<circle cx="52" cy="52" r="51" stroke="white" stroke-width="2"/>
<circle cx="52.1727" cy="52.1727" r="28.3688" stroke="white" stroke-width="2"/>
<circle cx="52" cy="52" r="14.3389" fill="white"/>
<circle cx="52" cy="92.0797" r="3.62791" fill="white"/>
<ellipse cx="11.5748" cy="52" rx="3.62791" ry="3.62791" fill="white"/>
<circle cx="92.4253" cy="52" r="3.62791" fill="white"/>
<ellipse cx="81.3689" cy="25.3954" rx="3.62791" ry="3.62791" fill="white"/>
<ellipse cx="21.9402" cy="81.3688" rx="3.62791" ry="3.62791" fill="white"/>
<circle cx="21.9402" cy="25.3954" r="3.62791" fill="white"/>
<circle cx="81.3689" cy="81.3688" r="3.62791" fill="white"/>
<circle cx="67.5481" cy="88.6246" r="3.62791" fill="white"/>
<circle cx="88.9702" cy="67.5482" r="3.62791" fill="white"/>
<circle cx="88.9702" cy="37.4884" r="3.62791" fill="white"/>
<ellipse cx="67.5481" cy="16.0665" rx="3.62791" ry="3.62791" fill="white"/>
<ellipse cx="34.0332" cy="16.0665" rx="3.62791" ry="3.62791" fill="white"/>
<circle cx="14.6844" cy="37.4884" r="3.62791" fill="white"/>
<circle cx="14.6844" cy="67.5482" r="3.62791" fill="white"/>
<circle cx="34.0332" cy="88.6246" r="3.62791" fill="white"/>
<circle cx="52" cy="12.2657" r="3.62791" fill="white"/>
</svg>
